<svg width="4800" height="4800">
  <line x1="0" y1="173" x2="48" y2="173" stroke="green" stroke-width="2" />
  <line x1="0" y1="0" x2="4752" y2="0" stroke="green" stroke-width="2" />
  <line x1="0" y1="173" x2="0" y2="0" stroke="red" stroke-width="2" />
  <text x="4800" y="0" fill="black">5-n</text>
  <line x1="48" y1="299" x2="96" y2="299" stroke="green" stroke-width="2" />
  <line x1="48" y1="48" x2="4752" y2="48" stroke="green" stroke-width="2" />
  <line x1="48" y1="299" x2="48" y2="48" stroke="red" stroke-width="2" />
  <text x="4800" y="48" fill="black">past-n</text>
  <line x1="96" y1="503" x2="144" y2="503" stroke="green" stroke-width="2" />
  <line x1="96" y1="96" x2="4752" y2="96" stroke="green" stroke-width="2" />
  <line x1="96" y1="503" x2="96" y2="96" stroke="red" stroke-width="2" />
  <text x="4800" y="96" fill="black">Chapter-n</text>
  <line x1="144" y1="862" x2="192" y2="862" stroke="green" stroke-width="2" />
  <line x1="144" y1="144" x2="4752" y2="144" stroke="green" stroke-width="2" />
  <line x1="144" y1="862" x2="144" y2="144" stroke="red" stroke-width="2" />
  <text x="4800" y="144" fill="black">V-n</text>
  <line x1="192" y1="1532" x2="240" y2="1532" stroke="green" stroke-width="2" />
  <line x1="192" y1="192" x2="4752" y2="192" stroke="green" stroke-width="2" />
  <line x1="192" y1="1532" x2="192" y2="192" stroke="red" stroke-width="2" />
  <text x="4800" y="192" fill="black">auto-n</text>
  <line x1="240" y1="2824" x2="288" y2="2824" stroke="green" stroke-width="2" />
  <line x1="240" y1="240" x2="4752" y2="240" stroke="green" stroke-width="2" />
  <line x1="240" y1="2824" x2="240" y2="240" stroke="red" stroke-width="2" />
  <text x="4800" y="240" fill="black">Inc.-n</text>
  <line x1="288" y1="4692" x2="4656" y2="4692" stroke="green" stroke-width="2" />
  <line x1="288" y1="957" x2="432" y2="957" stroke="green" stroke-width="2" />
  <line x1="288" y1="4692" x2="288" y2="957" stroke="red" stroke-width="2" />
  <line x1="432" y1="1626" x2="480" y2="1626" stroke="green" stroke-width="2" />
  <line x1="432" y1="288" x2="4752" y2="288" stroke="green" stroke-width="2" />
  <line x1="432" y1="1626" x2="432" y2="288" stroke="red" stroke-width="2" />
  <text x="4800" y="288" fill="black">News-n</text>
  <line x1="480" y1="2713" x2="912" y2="2713" stroke="green" stroke-width="2" />
  <line x1="480" y1="539" x2="4368" y2="539" stroke="green" stroke-width="2" />
  <line x1="480" y1="2713" x2="480" y2="539" stroke="red" stroke-width="2" />
  <line x1="4368" y1="696" x2="4704" y2="696" stroke="green" stroke-width="2" />
  <line x1="4368" y1="383" x2="4464" y2="383" stroke="green" stroke-width="2" />
  <line x1="4368" y1="696" x2="4368" y2="383" stroke="red" stroke-width="2" />
  <line x1="4464" y1="430" x2="4512" y2="430" stroke="green" stroke-width="2" />
  <line x1="4464" y1="336" x2="4752" y2="336" stroke="green" stroke-width="2" />
  <line x1="4464" y1="430" x2="4464" y2="336" stroke="red" stroke-width="2" />
  <text x="4800" y="336" fill="black">rating-n</text>
  <line x1="4512" y1="477" x2="4560" y2="477" stroke="green" stroke-width="2" />
  <line x1="4512" y1="384" x2="4752" y2="384" stroke="green" stroke-width="2" />
  <line x1="4512" y1="477" x2="4512" y2="384" stroke="red" stroke-width="2" />
  <text x="4800" y="384" fill="black">Foundation-n</text>
  <line x1="4560" y1="522" x2="4608" y2="522" stroke="green" stroke-width="2" />
  <line x1="4560" y1="432" x2="4752" y2="432" stroke="green" stroke-width="2" />
  <line x1="4560" y1="522" x2="4560" y2="432" stroke="red" stroke-width="2" />
  <text x="4800" y="432" fill="black">ratio-n</text>
  <line x1="4608" y1="564" x2="4656" y2="564" stroke="green" stroke-width="2" />
  <line x1="4608" y1="480" x2="4752" y2="480" stroke="green" stroke-width="2" />
  <line x1="4608" y1="564" x2="4608" y2="480" stroke="red" stroke-width="2" />
  <text x="4800" y="480" fill="black">origin-n</text>
  <line x1="4656" y1="600" x2="4704" y2="600" stroke="green" stroke-width="2" />
  <line x1="4656" y1="528" x2="4752" y2="528" stroke="green" stroke-width="2" />
  <line x1="4656" y1="600" x2="4656" y2="528" stroke="red" stroke-width="2" />
  <text x="4800" y="528" fill="black">justice-n</text>
  <line x1="4704" y1="624" x2="4752" y2="624" stroke="green" stroke-width="2" />
  <line x1="4704" y1="576" x2="4752" y2="576" stroke="green" stroke-width="2" />
  <line x1="4704" y1="624" x2="4704" y2="576" stroke="red" stroke-width="2" />
  <text x="4800" y="576" fill="black">expense-n</text>
  <text x="4800" y="624" fill="black">soul-n</text>
  <line x1="4704" y1="720" x2="4752" y2="720" stroke="green" stroke-width="2" />
  <line x1="4704" y1="672" x2="4752" y2="672" stroke="green" stroke-width="2" />
  <line x1="4704" y1="720" x2="4704" y2="672" stroke="red" stroke-width="2" />
  <text x="4800" y="672" fill="black">recipe-n</text>
  <text x="4800" y="720" fill="black">ticket-n</text>
  <line x1="912" y1="4584" x2="4704" y2="4584" stroke="green" stroke-width="2" />
  <line x1="912" y1="842" x2="1008" y2="842" stroke="green" stroke-width="2" />
  <line x1="912" y1="4584" x2="912" y2="842" stroke="red" stroke-width="2" />
  <line x1="1008" y1="916" x2="1056" y2="916" stroke="green" stroke-width="2" />
  <line x1="1008" y1="768" x2="4752" y2="768" stroke="green" stroke-width="2" />
  <line x1="1008" y1="916" x2="1008" y2="768" stroke="red" stroke-width="2" />
  <text x="4800" y="768" fill="black">No.-n</text>
  <line x1="1056" y1="993" x2="1152" y2="993" stroke="green" stroke-width="2" />
  <line x1="1056" y1="840" x2="4704" y2="840" stroke="green" stroke-width="2" />
  <line x1="1056" y1="993" x2="1056" y2="840" stroke="red" stroke-width="2" />
  <line x1="4704" y1="864" x2="4752" y2="864" stroke="green" stroke-width="2" />
  <line x1="4704" y1="816" x2="4752" y2="816" stroke="green" stroke-width="2" />
  <line x1="4704" y1="864" x2="4704" y2="816" stroke="red" stroke-width="2" />
  <text x="4800" y="816" fill="black">William-n</text>
  <text x="4800" y="864" fill="black">Robert-n</text>
  <line x1="1152" y1="1075" x2="1200" y2="1075" stroke="green" stroke-width="2" />
  <line x1="1152" y1="912" x2="4752" y2="912" stroke="green" stroke-width="2" />
  <line x1="1152" y1="1075" x2="1152" y2="912" stroke="red" stroke-width="2" />
  <text x="4800" y="912" fill="black">Peter-n</text>
  <line x1="1200" y1="1155" x2="1344" y2="1155" stroke="green" stroke-width="2" />
  <line x1="1200" y1="996" x2="4656" y2="996" stroke="green" stroke-width="2" />
  <line x1="1200" y1="1155" x2="1200" y2="996" stroke="red" stroke-width="2" />
  <line x1="4656" y1="1032" x2="4704" y2="1032" stroke="green" stroke-width="2" />
  <line x1="4656" y1="960" x2="4752" y2="960" stroke="green" stroke-width="2" />
  <line x1="4656" y1="1032" x2="4656" y2="960" stroke="red" stroke-width="2" />
  <text x="4800" y="960" fill="black">Free-n</text>
  <line x1="4704" y1="1056" x2="4752" y2="1056" stroke="green" stroke-width="2" />
  <line x1="4704" y1="1008" x2="4752" y2="1008" stroke="green" stroke-width="2" />
  <line x1="4704" y1="1056" x2="4704" y2="1008" stroke="red" stroke-width="2" />
  <text x="4800" y="1008" fill="black">Data-n</text>
  <text x="4800" y="1056" fill="black">Home-n</text>
  <line x1="1344" y1="1206" x2="1392" y2="1206" stroke="green" stroke-width="2" />
  <line x1="1344" y1="1104" x2="4752" y2="1104" stroke="green" stroke-width="2" />
  <line x1="1344" y1="1206" x2="1344" y2="1104" stroke="red" stroke-width="2" />
  <text x="4800" y="1104" fill="black">Social-n</text>
  <line x1="1392" y1="1260" x2="1440" y2="1260" stroke="green" stroke-width="2" />
  <line x1="1392" y1="1152" x2="4752" y2="1152" stroke="green" stroke-width="2" />
  <line x1="1392" y1="1260" x2="1392" y2="1152" stroke="red" stroke-width="2" />
  <text x="4800" y="1152" fill="black">Energy-n</text>
  <line x1="1440" y1="1320" x2="1488" y2="1320" stroke="green" stroke-width="2" />
  <line x1="1440" y1="1200" x2="4752" y2="1200" stroke="green" stroke-width="2" />
  <line x1="1440" y1="1320" x2="1440" y2="1200" stroke="red" stroke-width="2" />
  <text x="4800" y="1200" fill="black">Air-n</text>
  <line x1="1488" y1="1393" x2="1536" y2="1393" stroke="green" stroke-width="2" />
  <line x1="1488" y1="1248" x2="4752" y2="1248" stroke="green" stroke-width="2" />
  <line x1="1488" y1="1393" x2="1488" y2="1248" stroke="red" stroke-width="2" />
  <text x="4800" y="1248" fill="black">Community-n</text>
  <line x1="1536" y1="1490" x2="1584" y2="1490" stroke="green" stroke-width="2" />
  <line x1="1536" y1="1296" x2="4752" y2="1296" stroke="green" stroke-width="2" />
  <line x1="1536" y1="1490" x2="1536" y2="1296" stroke="red" stroke-width="2" />
  <text x="4800" y="1296" fill="black">Project-n</text>
  <line x1="1584" y1="1637" x2="1632" y2="1637" stroke="green" stroke-width="2" />
  <line x1="1584" y1="1344" x2="4752" y2="1344" stroke="green" stroke-width="2" />
  <line x1="1584" y1="1637" x2="1584" y2="1344" stroke="red" stroke-width="2" />
  <text x="4800" y="1344" fill="black">Christian-n</text>
  <line x1="1632" y1="1883" x2="1680" y2="1883" stroke="green" stroke-width="2" />
  <line x1="1632" y1="1392" x2="4752" y2="1392" stroke="green" stroke-width="2" />
  <line x1="1632" y1="1883" x2="1632" y2="1392" stroke="red" stroke-width="2" />
  <text x="4800" y="1392" fill="black">Law-n</text>
  <line x1="1680" y1="2326" x2="1728" y2="2326" stroke="green" stroke-width="2" />
  <line x1="1680" y1="1440" x2="4752" y2="1440" stroke="green" stroke-width="2" />
  <line x1="1680" y1="2326" x2="1680" y2="1440" stroke="red" stroke-width="2" />
  <text x="4800" y="1440" fill="black">Security-n</text>
  <line x1="1728" y1="3140" x2="1824" y2="3140" stroke="green" stroke-width="2" />
  <line x1="1728" y1="1512" x2="4704" y2="1512" stroke="green" stroke-width="2" />
  <line x1="1728" y1="3140" x2="1728" y2="1512" stroke="red" stroke-width="2" />
  <line x1="4704" y1="1536" x2="4752" y2="1536" stroke="green" stroke-width="2" />
  <line x1="4704" y1="1488" x2="4752" y2="1488" stroke="green" stroke-width="2" />
  <line x1="4704" y1="1536" x2="4704" y2="1488" stroke="red" stroke-width="2" />
  <text x="4800" y="1488" fill="black">rise-n</text>
  <text x="4800" y="1536" fill="black">partnership-n</text>
  <line x1="1824" y1="4488" x2="4704" y2="4488" stroke="green" stroke-width="2" />
  <line x1="1824" y1="1793" x2="1920" y2="1793" stroke="green" stroke-width="2" />
  <line x1="1824" y1="4488" x2="1824" y2="1793" stroke="red" stroke-width="2" />
  <line x1="1920" y1="2003" x2="1968" y2="2003" stroke="green" stroke-width="2" />
  <line x1="1920" y1="1584" x2="4752" y2="1584" stroke="green" stroke-width="2" />
  <line x1="1920" y1="2003" x2="1920" y2="1584" stroke="red" stroke-width="2" />
  <text x="4800" y="1584" fill="black">emergency-n</text>
  <line x1="1968" y1="2374" x2="2016" y2="2374" stroke="green" stroke-width="2" />
  <line x1="1968" y1="1632" x2="4752" y2="1632" stroke="green" stroke-width="2" />
  <line x1="1968" y1="2374" x2="1968" y2="1632" stroke="red" stroke-width="2" />
  <text x="4800" y="1632" fill="black">waste-n</text>
  <line x1="2016" y1="3069" x2="2064" y2="3069" stroke="green" stroke-width="2" />
  <line x1="2016" y1="1680" x2="4752" y2="1680" stroke="green" stroke-width="2" />
  <line x1="2016" y1="3069" x2="2016" y2="1680" stroke="red" stroke-width="2" />
  <text x="4800" y="1680" fill="black">union-n</text>
  <line x1="2064" y1="4314" x2="4608" y2="4314" stroke="green" stroke-width="2" />
  <line x1="2064" y1="1825" x2="2256" y2="1825" stroke="green" stroke-width="2" />
  <line x1="2064" y1="4314" x2="2064" y2="1825" stroke="red" stroke-width="2" />
  <line x1="2256" y1="1922" x2="2304" y2="1922" stroke="green" stroke-width="2" />
  <line x1="2256" y1="1728" x2="4752" y2="1728" stroke="green" stroke-width="2" />
  <line x1="2256" y1="1922" x2="2256" y2="1728" stroke="red" stroke-width="2" />
  <text x="4800" y="1728" fill="black">Texas-n</text>
  <line x1="2304" y1="2068" x2="2352" y2="2068" stroke="green" stroke-width="2" />
  <line x1="2304" y1="1776" x2="4752" y2="1776" stroke="green" stroke-width="2" />
  <line x1="2304" y1="2068" x2="2304" y2="1776" stroke="red" stroke-width="2" />
  <text x="4800" y="1776" fill="black">visitor-n</text>
  <line x1="2352" y1="2253" x2="2592" y2="2253" stroke="green" stroke-width="2" />
  <line x1="2352" y1="1884" x2="4560" y2="1884" stroke="green" stroke-width="2" />
  <line x1="2352" y1="2253" x2="2352" y2="1884" stroke="red" stroke-width="2" />
  <line x1="4560" y1="1944" x2="4608" y2="1944" stroke="green" stroke-width="2" />
  <line x1="4560" y1="1824" x2="4752" y2="1824" stroke="green" stroke-width="2" />
  <line x1="4560" y1="1944" x2="4560" y2="1824" stroke="red" stroke-width="2" />
  <text x="4800" y="1824" fill="black">alternative-n</text>
  <line x1="4608" y1="1992" x2="4704" y2="1992" stroke="green" stroke-width="2" />
  <line x1="4608" y1="1896" x2="4704" y2="1896" stroke="green" stroke-width="2" />
  <line x1="4608" y1="1992" x2="4608" y2="1896" stroke="red" stroke-width="2" />
  <line x1="4704" y1="1920" x2="4752" y2="1920" stroke="green" stroke-width="2" />
  <line x1="4704" y1="1872" x2="4752" y2="1872" stroke="green" stroke-width="2" />
  <line x1="4704" y1="1920" x2="4704" y2="1872" stroke="red" stroke-width="2" />
  <text x="4800" y="1872" fill="black">surgery-n</text>
  <text x="4800" y="1920" fill="black">meal-n</text>
  <line x1="4704" y1="2016" x2="4752" y2="2016" stroke="green" stroke-width="2" />
  <line x1="4704" y1="1968" x2="4752" y2="1968" stroke="green" stroke-width="2" />
  <line x1="4704" y1="2016" x2="4704" y2="1968" stroke="red" stroke-width="2" />
  <text x="4800" y="1968" fill="black">hole-n</text>
  <text x="4800" y="2016" fill="black">corner-n</text>
  <line x1="2592" y1="2442" x2="2640" y2="2442" stroke="green" stroke-width="2" />
  <line x1="2592" y1="2064" x2="4752" y2="2064" stroke="green" stroke-width="2" />
  <line x1="2592" y1="2442" x2="2592" y2="2064" stroke="red" stroke-width="2" />
  <text x="4800" y="2064" fill="black">literature-n</text>
  <line x1="2640" y1="2773" x2="2688" y2="2773" stroke="green" stroke-width="2" />
  <line x1="2640" y1="2112" x2="4752" y2="2112" stroke="green" stroke-width="2" />
  <line x1="2640" y1="2773" x2="2640" y2="2112" stroke="red" stroke-width="2" />
  <text x="4800" y="2112" fill="black">publication-n</text>
  <line x1="2688" y1="3386" x2="2736" y2="3386" stroke="green" stroke-width="2" />
  <line x1="2688" y1="2160" x2="4752" y2="2160" stroke="green" stroke-width="2" />
  <line x1="2688" y1="3386" x2="2688" y2="2160" stroke="red" stroke-width="2" />
  <text x="4800" y="2160" fill="black">novel-n</text>
  <line x1="2736" y1="4164" x2="4656" y2="4164" stroke="green" stroke-width="2" />
  <line x1="2736" y1="2609" x2="2880" y2="2609" stroke="green" stroke-width="2" />
  <line x1="2736" y1="4164" x2="2736" y2="2609" stroke="red" stroke-width="2" />
  <line x1="2880" y1="3011" x2="2928" y2="3011" stroke="green" stroke-width="2" />
  <line x1="2880" y1="2208" x2="4752" y2="2208" stroke="green" stroke-width="2" />
  <line x1="2880" y1="3011" x2="2880" y2="2208" stroke="red" stroke-width="2" />
  <text x="4800" y="2208" fill="black">ad-n</text>
  <line x1="2928" y1="3599" x2="4224" y2="3599" stroke="green" stroke-width="2" />
  <line x1="2928" y1="2423" x2="3504" y2="2423" stroke="green" stroke-width="2" />
  <line x1="2928" y1="3599" x2="2928" y2="2423" stroke="red" stroke-width="2" />
  <line x1="3504" y1="2591" x2="3552" y2="2591" stroke="green" stroke-width="2" />
  <line x1="3504" y1="2256" x2="4752" y2="2256" stroke="green" stroke-width="2" />
  <line x1="3504" y1="2591" x2="3504" y2="2256" stroke="red" stroke-width="2" />
  <text x="4800" y="2256" fill="black">winter-n</text>
  <line x1="3552" y1="2855" x2="3648" y2="2855" stroke="green" stroke-width="2" />
  <line x1="3552" y1="2328" x2="4704" y2="2328" stroke="green" stroke-width="2" />
  <line x1="3552" y1="2855" x2="3552" y2="2328" stroke="red" stroke-width="2" />
  <line x1="4704" y1="2352" x2="4752" y2="2352" stroke="green" stroke-width="2" />
  <line x1="4704" y1="2304" x2="4752" y2="2304" stroke="green" stroke-width="2" />
  <line x1="4704" y1="2352" x2="4704" y2="2304" stroke="red" stroke-width="2" />
  <text x="4800" y="2304" fill="black">Christmas-n</text>
  <text x="4800" y="2352" fill="black">wedding-n</text>
  <line x1="3648" y1="3263" x2="4464" y2="3263" stroke="green" stroke-width="2" />
  <line x1="3648" y1="2447" x2="3984" y2="2447" stroke="green" stroke-width="2" />
  <line x1="3648" y1="3263" x2="3648" y2="2447" stroke="red" stroke-width="2" />
  <line x1="3984" y1="2495" x2="4032" y2="2495" stroke="green" stroke-width="2" />
  <line x1="3984" y1="2400" x2="4752" y2="2400" stroke="green" stroke-width="2" />
  <line x1="3984" y1="2495" x2="3984" y2="2400" stroke="red" stroke-width="2" />
  <text x="4800" y="2400" fill="black">installation-n</text>
  <line x1="4032" y1="2543" x2="4080" y2="2543" stroke="green" stroke-width="2" />
  <line x1="4032" y1="2448" x2="4752" y2="2448" stroke="green" stroke-width="2" />
  <line x1="4032" y1="2543" x2="4032" y2="2448" stroke="red" stroke-width="2" />
  <text x="4800" y="2448" fill="black">colour-n</text>
  <line x1="4080" y1="2591" x2="4128" y2="2591" stroke="green" stroke-width="2" />
  <line x1="4080" y1="2496" x2="4752" y2="2496" stroke="green" stroke-width="2" />
  <line x1="4080" y1="2591" x2="4080" y2="2496" stroke="red" stroke-width="2" />
  <text x="4800" y="2496" fill="black">cut-n</text>
  <line x1="4128" y1="2639" x2="4176" y2="2639" stroke="green" stroke-width="2" />
  <line x1="4128" y1="2544" x2="4752" y2="2544" stroke="green" stroke-width="2" />
  <line x1="4128" y1="2639" x2="4128" y2="2544" stroke="red" stroke-width="2" />
  <text x="4800" y="2544" fill="black">bus-n</text>
  <line x1="4176" y1="2687" x2="4224" y2="2687" stroke="green" stroke-width="2" />
  <line x1="4176" y1="2592" x2="4752" y2="2592" stroke="green" stroke-width="2" />
  <line x1="4176" y1="2687" x2="4176" y2="2592" stroke="red" stroke-width="2" />
  <text x="4800" y="2592" fill="black">train-n</text>
  <line x1="4224" y1="2735" x2="4272" y2="2735" stroke="green" stroke-width="2" />
  <line x1="4224" y1="2640" x2="4752" y2="2640" stroke="green" stroke-width="2" />
  <line x1="4224" y1="2735" x2="4224" y2="2640" stroke="red" stroke-width="2" />
  <text x="4800" y="2640" fill="black">bird-n</text>
  <line x1="4272" y1="2783" x2="4320" y2="2783" stroke="green" stroke-width="2" />
  <line x1="4272" y1="2688" x2="4752" y2="2688" stroke="green" stroke-width="2" />
  <line x1="4272" y1="2783" x2="4272" y2="2688" stroke="red" stroke-width="2" />
  <text x="4800" y="2688" fill="black">grade-n</text>
  <line x1="4320" y1="2831" x2="4368" y2="2831" stroke="green" stroke-width="2" />
  <line x1="4320" y1="2736" x2="4752" y2="2736" stroke="green" stroke-width="2" />
  <line x1="4320" y1="2831" x2="4320" y2="2736" stroke="red" stroke-width="2" />
  <text x="4800" y="2736" fill="black">mountain-n</text>
  <line x1="4368" y1="2879" x2="4416" y2="2879" stroke="green" stroke-width="2" />
  <line x1="4368" y1="2784" x2="4752" y2="2784" stroke="green" stroke-width="2" />
  <line x1="4368" y1="2879" x2="4368" y2="2784" stroke="red" stroke-width="2" />
  <text x="4800" y="2784" fill="black">farm-n</text>
  <line x1="4416" y1="2927" x2="4464" y2="2927" stroke="green" stroke-width="2" />
  <line x1="4416" y1="2832" x2="4752" y2="2832" stroke="green" stroke-width="2" />
  <line x1="4416" y1="2927" x2="4416" y2="2832" stroke="red" stroke-width="2" />
  <text x="4800" y="2832" fill="black">tank-n</text>
  <line x1="4464" y1="2974" x2="4512" y2="2974" stroke="green" stroke-width="2" />
  <line x1="4464" y1="2880" x2="4752" y2="2880" stroke="green" stroke-width="2" />
  <line x1="4464" y1="2974" x2="4464" y2="2880" stroke="red" stroke-width="2" />
  <text x="4800" y="2880" fill="black">boat-n</text>
  <line x1="4512" y1="3021" x2="4560" y2="3021" stroke="green" stroke-width="2" />
  <line x1="4512" y1="2928" x2="4752" y2="2928" stroke="green" stroke-width="2" />
  <line x1="4512" y1="3021" x2="4512" y2="2928" stroke="red" stroke-width="2" />
  <text x="4800" y="2928" fill="black">plate-n</text>
  <line x1="4560" y1="3066" x2="4608" y2="3066" stroke="green" stroke-width="2" />
  <line x1="4560" y1="2976" x2="4752" y2="2976" stroke="green" stroke-width="2" />
  <line x1="4560" y1="3066" x2="4560" y2="2976" stroke="red" stroke-width="2" />
  <text x="4800" y="2976" fill="black">interface-n</text>
  <line x1="4608" y1="3108" x2="4656" y2="3108" stroke="green" stroke-width="2" />
  <line x1="4608" y1="3024" x2="4752" y2="3024" stroke="green" stroke-width="2" />
  <line x1="4608" y1="3108" x2="4608" y2="3024" stroke="red" stroke-width="2" />
  <text x="4800" y="3024" fill="black">journey-n</text>
  <line x1="4656" y1="3144" x2="4704" y2="3144" stroke="green" stroke-width="2" />
  <line x1="4656" y1="3072" x2="4752" y2="3072" stroke="green" stroke-width="2" />
  <line x1="4656" y1="3144" x2="4656" y2="3072" stroke="red" stroke-width="2" />
  <text x="4800" y="3072" fill="black">diet-n</text>
  <line x1="4704" y1="3168" x2="4752" y2="3168" stroke="green" stroke-width="2" />
  <line x1="4704" y1="3120" x2="4752" y2="3120" stroke="green" stroke-width="2" />
  <line x1="4704" y1="3168" x2="4704" y2="3120" stroke="red" stroke-width="2" />
  <text x="4800" y="3120" fill="black">beach-n</text>
  <text x="4800" y="3168" fill="black">match-n</text>
  <line x1="4464" y1="3310" x2="4512" y2="3310" stroke="green" stroke-width="2" />
  <line x1="4464" y1="3216" x2="4752" y2="3216" stroke="green" stroke-width="2" />
  <line x1="4464" y1="3310" x2="4464" y2="3216" stroke="red" stroke-width="2" />
  <text x="4800" y="3216" fill="black">ice-n</text>
  <line x1="4512" y1="3357" x2="4560" y2="3357" stroke="green" stroke-width="2" />
  <line x1="4512" y1="3264" x2="4752" y2="3264" stroke="green" stroke-width="2" />
  <line x1="4512" y1="3357" x2="4512" y2="3264" stroke="red" stroke-width="2" />
  <text x="4800" y="3264" fill="black">steel-n</text>
  <line x1="4560" y1="3402" x2="4608" y2="3402" stroke="green" stroke-width="2" />
  <line x1="4560" y1="3312" x2="4752" y2="3312" stroke="green" stroke-width="2" />
  <line x1="4560" y1="3402" x2="4560" y2="3312" stroke="red" stroke-width="2" />
  <text x="4800" y="3312" fill="black">motor-n</text>
  <line x1="4608" y1="3444" x2="4656" y2="3444" stroke="green" stroke-width="2" />
  <line x1="4608" y1="3360" x2="4752" y2="3360" stroke="green" stroke-width="2" />
  <line x1="4608" y1="3444" x2="4608" y2="3360" stroke="red" stroke-width="2" />
  <text x="4800" y="3360" fill="black">radio-n</text>
  <line x1="4656" y1="3480" x2="4704" y2="3480" stroke="green" stroke-width="2" />
  <line x1="4656" y1="3408" x2="4752" y2="3408" stroke="green" stroke-width="2" />
  <line x1="4656" y1="3480" x2="4656" y2="3408" stroke="red" stroke-width="2" />
  <text x="4800" y="3408" fill="black">processing-n</text>
  <line x1="4704" y1="3504" x2="4752" y2="3504" stroke="green" stroke-width="2" />
  <line x1="4704" y1="3456" x2="4752" y2="3456" stroke="green" stroke-width="2" />
  <line x1="4704" y1="3504" x2="4704" y2="3456" stroke="red" stroke-width="2" />
  <text x="4800" y="3456" fill="black">housing-n</text>
  <text x="4800" y="3504" fill="black">engineering-n</text>
  <line x1="4224" y1="3647" x2="4272" y2="3647" stroke="green" stroke-width="2" />
  <line x1="4224" y1="3552" x2="4752" y2="3552" stroke="green" stroke-width="2" />
  <line x1="4224" y1="3647" x2="4224" y2="3552" stroke="red" stroke-width="2" />
  <text x="4800" y="3552" fill="black">advance-n</text>
  <line x1="4272" y1="3695" x2="4320" y2="3695" stroke="green" stroke-width="2" />
  <line x1="4272" y1="3600" x2="4752" y2="3600" stroke="green" stroke-width="2" />
  <line x1="4272" y1="3695" x2="4272" y2="3600" stroke="red" stroke-width="2" />
  <text x="4800" y="3600" fill="black">chair-n</text>
  <line x1="4320" y1="3743" x2="4368" y2="3743" stroke="green" stroke-width="2" />
  <line x1="4320" y1="3648" x2="4752" y2="3648" stroke="green" stroke-width="2" />
  <line x1="4320" y1="3743" x2="4320" y2="3648" stroke="red" stroke-width="2" />
  <text x="4800" y="3648" fill="black">lead-n</text>
  <line x1="4368" y1="3791" x2="4416" y2="3791" stroke="green" stroke-width="2" />
  <line x1="4368" y1="3696" x2="4752" y2="3696" stroke="green" stroke-width="2" />
  <line x1="4368" y1="3791" x2="4368" y2="3696" stroke="red" stroke-width="2" />
  <text x="4800" y="3696" fill="black">difficulty-n</text>
  <line x1="4416" y1="3839" x2="4464" y2="3839" stroke="green" stroke-width="2" />
  <line x1="4416" y1="3744" x2="4752" y2="3744" stroke="green" stroke-width="2" />
  <line x1="4416" y1="3839" x2="4416" y2="3744" stroke="red" stroke-width="2" />
  <text x="4800" y="3744" fill="black">division-n</text>
  <line x1="4464" y1="3886" x2="4512" y2="3886" stroke="green" stroke-width="2" />
  <line x1="4464" y1="3792" x2="4752" y2="3792" stroke="green" stroke-width="2" />
  <line x1="4464" y1="3886" x2="4464" y2="3792" stroke="red" stroke-width="2" />
  <text x="4800" y="3792" fill="black">resolution-n</text>
  <line x1="4512" y1="3933" x2="4560" y2="3933" stroke="green" stroke-width="2" />
  <line x1="4512" y1="3840" x2="4752" y2="3840" stroke="green" stroke-width="2" />
  <line x1="4512" y1="3933" x2="4512" y2="3840" stroke="red" stroke-width="2" />
  <text x="4800" y="3840" fill="black">defense-n</text>
  <line x1="4560" y1="3978" x2="4608" y2="3978" stroke="green" stroke-width="2" />
  <line x1="4560" y1="3888" x2="4752" y2="3888" stroke="green" stroke-width="2" />
  <line x1="4560" y1="3978" x2="4560" y2="3888" stroke="red" stroke-width="2" />
  <text x="4800" y="3888" fill="black">vote-n</text>
  <line x1="4608" y1="4020" x2="4656" y2="4020" stroke="green" stroke-width="2" />
  <line x1="4608" y1="3936" x2="4752" y2="3936" stroke="green" stroke-width="2" />
  <line x1="4608" y1="4020" x2="4608" y2="3936" stroke="red" stroke-width="2" />
  <text x="4800" y="3936" fill="black">domain-n</text>
  <line x1="4656" y1="4056" x2="4704" y2="4056" stroke="green" stroke-width="2" />
  <line x1="4656" y1="3984" x2="4752" y2="3984" stroke="green" stroke-width="2" />
  <line x1="4656" y1="4056" x2="4656" y2="3984" stroke="red" stroke-width="2" />
  <text x="4800" y="3984" fill="black">intervention-n</text>
  <line x1="4704" y1="4080" x2="4752" y2="4080" stroke="green" stroke-width="2" />
  <line x1="4704" y1="4032" x2="4752" y2="4032" stroke="green" stroke-width="2" />
  <line x1="4704" y1="4080" x2="4704" y2="4032" stroke="red" stroke-width="2" />
  <text x="4800" y="4032" fill="black">motion-n</text>
  <text x="4800" y="4080" fill="black">innovation-n</text>
  <line x1="4656" y1="4200" x2="4704" y2="4200" stroke="green" stroke-width="2" />
  <line x1="4656" y1="4128" x2="4752" y2="4128" stroke="green" stroke-width="2" />
  <line x1="4656" y1="4200" x2="4656" y2="4128" stroke="red" stroke-width="2" />
  <text x="4800" y="4128" fill="black">Americans-n</text>
  <line x1="4704" y1="4224" x2="4752" y2="4224" stroke="green" stroke-width="2" />
  <line x1="4704" y1="4176" x2="4752" y2="4176" stroke="green" stroke-width="2" />
  <line x1="4704" y1="4224" x2="4704" y2="4176" stroke="red" stroke-width="2" />
  <text x="4800" y="4176" fill="black">framework-n</text>
  <text x="4800" y="4224" fill="black">debate-n</text>
  <line x1="4608" y1="4356" x2="4656" y2="4356" stroke="green" stroke-width="2" />
  <line x1="4608" y1="4272" x2="4752" y2="4272" stroke="green" stroke-width="2" />
  <line x1="4608" y1="4356" x2="4608" y2="4272" stroke="red" stroke-width="2" />
  <text x="4800" y="4272" fill="black">mass-n</text>
  <line x1="4656" y1="4392" x2="4704" y2="4392" stroke="green" stroke-width="2" />
  <line x1="4656" y1="4320" x2="4752" y2="4320" stroke="green" stroke-width="2" />
  <line x1="4656" y1="4392" x2="4656" y2="4320" stroke="red" stroke-width="2" />
  <text x="4800" y="4320" fill="black">infrastructure-n</text>
  <line x1="4704" y1="4416" x2="4752" y2="4416" stroke="green" stroke-width="2" />
  <line x1="4704" y1="4368" x2="4752" y2="4368" stroke="green" stroke-width="2" />
  <line x1="4704" y1="4416" x2="4704" y2="4368" stroke="red" stroke-width="2" />
  <text x="4800" y="4368" fill="black">zone-n</text>
  <text x="4800" y="4416" fill="black">border-n</text>
  <line x1="4704" y1="4512" x2="4752" y2="4512" stroke="green" stroke-width="2" />
  <line x1="4704" y1="4464" x2="4752" y2="4464" stroke="green" stroke-width="2" />
  <line x1="4704" y1="4512" x2="4704" y2="4464" stroke="red" stroke-width="2" />
  <text x="4800" y="4464" fill="black">Central-n</text>
  <text x="4800" y="4512" fill="black">carbon-n</text>
  <line x1="4704" y1="4608" x2="4752" y2="4608" stroke="green" stroke-width="2" />
  <line x1="4704" y1="4560" x2="4752" y2="4560" stroke="green" stroke-width="2" />
  <line x1="4704" y1="4608" x2="4704" y2="4560" stroke="red" stroke-width="2" />
  <text x="4800" y="4560" fill="black">Minister-n</text>
  <text x="4800" y="4608" fill="black">European-n</text>
  <line x1="4656" y1="4728" x2="4704" y2="4728" stroke="green" stroke-width="2" />
  <line x1="4656" y1="4656" x2="4752" y2="4656" stroke="green" stroke-width="2" />
  <line x1="4656" y1="4728" x2="4656" y2="4656" stroke="red" stroke-width="2" />
  <text x="4800" y="4656" fill="black">extent-n</text>
  <line x1="4704" y1="4752" x2="4752" y2="4752" stroke="green" stroke-width="2" />
  <line x1="4704" y1="4704" x2="4752" y2="4704" stroke="green" stroke-width="2" />
  <line x1="4704" y1="4752" x2="4704" y2="4704" stroke="red" stroke-width="2" />
  <text x="4800" y="4704" fill="black">mg-n</text>
  <text x="4800" y="4752" fill="black">inch-n</text>
</svg>
