<svg width="4800" height="4800">
  <line x1="0" y1="208" x2="48" y2="208" stroke="green" stroke-width="2" />
  <line x1="0" y1="0" x2="4752" y2="0" stroke="green" stroke-width="2" />
  <line x1="0" y1="208" x2="0" y2="0" stroke="red" stroke-width="2" />
  <text x="4800" y="0" fill="black">mluvčí-n</text>
  <line x1="48" y1="368" x2="96" y2="368" stroke="green" stroke-width="2" />
  <line x1="48" y1="48" x2="4752" y2="48" stroke="green" stroke-width="2" />
  <line x1="48" y1="368" x2="48" y2="48" stroke="red" stroke-width="2" />
  <text x="4800" y="48" fill="black">soulad-n</text>
  <line x1="96" y1="605" x2="240" y2="605" stroke="green" stroke-width="2" />
  <line x1="96" y1="132" x2="4656" y2="132" stroke="green" stroke-width="2" />
  <line x1="96" y1="605" x2="96" y2="132" stroke="red" stroke-width="2" />
  <line x1="4656" y1="168" x2="4704" y2="168" stroke="green" stroke-width="2" />
  <line x1="4656" y1="96" x2="4752" y2="96" stroke="green" stroke-width="2" />
  <line x1="4656" y1="168" x2="4656" y2="96" stroke="red" stroke-width="2" />
  <text x="4800" y="96" fill="black">zmínit-v</text>
  <line x1="4704" y1="192" x2="4752" y2="192" stroke="green" stroke-width="2" />
  <line x1="4704" y1="144" x2="4752" y2="144" stroke="green" stroke-width="2" />
  <line x1="4704" y1="192" x2="4704" y2="144" stroke="red" stroke-width="2" />
  <text x="4800" y="144" fill="black">zahrnovat-v</text>
  <text x="4800" y="192" fill="black">klást-v</text>
  <line x1="240" y1="946" x2="336" y2="946" stroke="green" stroke-width="2" />
  <line x1="240" y1="264" x2="4704" y2="264" stroke="green" stroke-width="2" />
  <line x1="240" y1="946" x2="240" y2="264" stroke="red" stroke-width="2" />
  <line x1="4704" y1="288" x2="4752" y2="288" stroke="green" stroke-width="2" />
  <line x1="4704" y1="240" x2="4752" y2="240" stroke="green" stroke-width="2" />
  <line x1="4704" y1="288" x2="4704" y2="240" stroke="red" stroke-width="2" />
  <text x="4800" y="240" fill="black">celkově-a</text>
  <text x="4800" y="288" fill="black">zkrátka-a</text>
  <line x1="336" y1="1557" x2="384" y2="1557" stroke="green" stroke-width="2" />
  <line x1="336" y1="336" x2="4752" y2="336" stroke="green" stroke-width="2" />
  <line x1="336" y1="1557" x2="336" y2="336" stroke="red" stroke-width="2" />
  <text x="4800" y="336" fill="black">akorát-a</text>
  <line x1="384" y1="2652" x2="624" y2="2652" stroke="green" stroke-width="2" />
  <line x1="384" y1="462" x2="4560" y2="462" stroke="green" stroke-width="2" />
  <line x1="384" y1="2652" x2="384" y2="462" stroke="red" stroke-width="2" />
  <line x1="4560" y1="516" x2="4656" y2="516" stroke="green" stroke-width="2" />
  <line x1="4560" y1="408" x2="4704" y2="408" stroke="green" stroke-width="2" />
  <line x1="4560" y1="516" x2="4560" y2="408" stroke="red" stroke-width="2" />
  <line x1="4704" y1="432" x2="4752" y2="432" stroke="green" stroke-width="2" />
  <line x1="4704" y1="384" x2="4752" y2="384" stroke="green" stroke-width="2" />
  <line x1="4704" y1="432" x2="4704" y2="384" stroke="red" stroke-width="2" />
  <text x="4800" y="384" fill="black">doslova-a</text>
  <text x="4800" y="432" fill="black">maximálně-a</text>
  <line x1="4656" y1="552" x2="4704" y2="552" stroke="green" stroke-width="2" />
  <line x1="4656" y1="480" x2="4752" y2="480" stroke="green" stroke-width="2" />
  <line x1="4656" y1="552" x2="4656" y2="480" stroke="red" stroke-width="2" />
  <text x="4800" y="480" fill="black">nikde-a</text>
  <line x1="4704" y1="576" x2="4752" y2="576" stroke="green" stroke-width="2" />
  <line x1="4704" y1="528" x2="4752" y2="528" stroke="green" stroke-width="2" />
  <line x1="4704" y1="576" x2="4704" y2="528" stroke="red" stroke-width="2" />
  <text x="4800" y="528" fill="black">František-n</text>
  <text x="4800" y="576" fill="black">naprostý-j</text>
  <line x1="624" y1="4620" x2="4560" y2="4620" stroke="green" stroke-width="2" />
  <line x1="624" y1="684" x2="864" y2="684" stroke="green" stroke-width="2" />
  <line x1="624" y1="4620" x2="624" y2="684" stroke="red" stroke-width="2" />
  <line x1="864" y1="744" x2="912" y2="744" stroke="green" stroke-width="2" />
  <line x1="864" y1="624" x2="4752" y2="624" stroke="green" stroke-width="2" />
  <line x1="864" y1="744" x2="864" y2="624" stroke="red" stroke-width="2" />
  <text x="4800" y="624" fill="black">dodnes-a</text>
  <line x1="912" y1="817" x2="960" y2="817" stroke="green" stroke-width="2" />
  <line x1="912" y1="672" x2="4752" y2="672" stroke="green" stroke-width="2" />
  <line x1="912" y1="817" x2="912" y2="672" stroke="red" stroke-width="2" />
  <text x="4800" y="672" fill="black">vzpomínat-v</text>
  <line x1="960" y1="914" x2="1008" y2="914" stroke="green" stroke-width="2" />
  <line x1="960" y1="720" x2="4752" y2="720" stroke="green" stroke-width="2" />
  <line x1="960" y1="914" x2="960" y2="720" stroke="red" stroke-width="2" />
  <text x="4800" y="720" fill="black">Klaus-n</text>
  <line x1="1008" y1="1061" x2="1056" y2="1061" stroke="green" stroke-width="2" />
  <line x1="1008" y1="768" x2="4752" y2="768" stroke="green" stroke-width="2" />
  <line x1="1008" y1="1061" x2="1008" y2="768" stroke="red" stroke-width="2" />
  <text x="4800" y="768" fill="black">výjimka-n</text>
  <line x1="1056" y1="1307" x2="1104" y2="1307" stroke="green" stroke-width="2" />
  <line x1="1056" y1="816" x2="4752" y2="816" stroke="green" stroke-width="2" />
  <line x1="1056" y1="1307" x2="1056" y2="816" stroke="red" stroke-width="2" />
  <text x="4800" y="816" fill="black">okolnost-n</text>
  <line x1="1104" y1="1751" x2="1152" y2="1751" stroke="green" stroke-width="2" />
  <line x1="1104" y1="864" x2="4752" y2="864" stroke="green" stroke-width="2" />
  <line x1="1104" y1="1751" x2="1104" y2="864" stroke="red" stroke-width="2" />
  <text x="4800" y="864" fill="black">útočník-n</text>
  <line x1="1152" y1="2327" x2="2496" y2="2327" stroke="green" stroke-width="2" />
  <line x1="1152" y1="1174" x2="3456" y2="1174" stroke="green" stroke-width="2" />
  <line x1="1152" y1="2327" x2="1152" y2="1174" stroke="red" stroke-width="2" />
  <line x1="3456" y1="1437" x2="3504" y2="1437" stroke="green" stroke-width="2" />
  <line x1="3456" y1="912" x2="4752" y2="912" stroke="green" stroke-width="2" />
  <line x1="3456" y1="1437" x2="3456" y2="912" stroke="red" stroke-width="2" />
  <text x="4800" y="912" fill="black">omezený-j</text>
  <line x1="3504" y1="1852" x2="4320" y2="1852" stroke="green" stroke-width="2" />
  <line x1="3504" y1="1022" x2="3984" y2="1022" stroke="green" stroke-width="2" />
  <line x1="3504" y1="1852" x2="3504" y2="1022" stroke="red" stroke-width="2" />
  <line x1="3984" y1="1085" x2="4032" y2="1085" stroke="green" stroke-width="2" />
  <line x1="3984" y1="960" x2="4752" y2="960" stroke="green" stroke-width="2" />
  <line x1="3984" y1="1085" x2="3984" y2="960" stroke="red" stroke-width="2" />
  <text x="4800" y="960" fill="black">učinit-v</text>
  <line x1="4032" y1="1162" x2="4080" y2="1162" stroke="green" stroke-width="2" />
  <line x1="4032" y1="1008" x2="4752" y2="1008" stroke="green" stroke-width="2" />
  <line x1="4032" y1="1162" x2="4032" y2="1008" stroke="red" stroke-width="2" />
  <text x="4800" y="1008" fill="black">popisovat-v</text>
  <line x1="4080" y1="1268" x2="4128" y2="1268" stroke="green" stroke-width="2" />
  <line x1="4080" y1="1056" x2="4752" y2="1056" stroke="green" stroke-width="2" />
  <line x1="4080" y1="1268" x2="4080" y2="1056" stroke="red" stroke-width="2" />
  <text x="4800" y="1056" fill="black">působení-n</text>
  <line x1="4128" y1="1433" x2="4176" y2="1433" stroke="green" stroke-width="2" />
  <line x1="4128" y1="1104" x2="4752" y2="1104" stroke="green" stroke-width="2" />
  <line x1="4128" y1="1433" x2="4128" y2="1104" stroke="red" stroke-width="2" />
  <text x="4800" y="1104" fill="black">přechod-n</text>
  <line x1="4176" y1="1668" x2="4656" y2="1668" stroke="green" stroke-width="2" />
  <line x1="4176" y1="1199" x2="4320" y2="1199" stroke="green" stroke-width="2" />
  <line x1="4176" y1="1668" x2="4176" y2="1199" stroke="red" stroke-width="2" />
  <line x1="4320" y1="1247" x2="4368" y2="1247" stroke="green" stroke-width="2" />
  <line x1="4320" y1="1152" x2="4752" y2="1152" stroke="green" stroke-width="2" />
  <line x1="4320" y1="1247" x2="4320" y2="1152" stroke="red" stroke-width="2" />
  <text x="4800" y="1152" fill="black">posílat-v</text>
  <line x1="4368" y1="1295" x2="4416" y2="1295" stroke="green" stroke-width="2" />
  <line x1="4368" y1="1200" x2="4752" y2="1200" stroke="green" stroke-width="2" />
  <line x1="4368" y1="1295" x2="4368" y2="1200" stroke="red" stroke-width="2" />
  <text x="4800" y="1200" fill="black">studovat-v</text>
  <line x1="4416" y1="1343" x2="4464" y2="1343" stroke="green" stroke-width="2" />
  <line x1="4416" y1="1248" x2="4752" y2="1248" stroke="green" stroke-width="2" />
  <line x1="4416" y1="1343" x2="4416" y2="1248" stroke="red" stroke-width="2" />
  <text x="4800" y="1248" fill="black">pozorovat-v</text>
  <line x1="4464" y1="1390" x2="4512" y2="1390" stroke="green" stroke-width="2" />
  <line x1="4464" y1="1296" x2="4752" y2="1296" stroke="green" stroke-width="2" />
  <line x1="4464" y1="1390" x2="4464" y2="1296" stroke="red" stroke-width="2" />
  <text x="4800" y="1296" fill="black">položit-v</text>
  <line x1="4512" y1="1437" x2="4560" y2="1437" stroke="green" stroke-width="2" />
  <line x1="4512" y1="1344" x2="4752" y2="1344" stroke="green" stroke-width="2" />
  <line x1="4512" y1="1437" x2="4512" y2="1344" stroke="red" stroke-width="2" />
  <text x="4800" y="1344" fill="black">vydávat-v</text>
  <line x1="4560" y1="1482" x2="4608" y2="1482" stroke="green" stroke-width="2" />
  <line x1="4560" y1="1392" x2="4752" y2="1392" stroke="green" stroke-width="2" />
  <line x1="4560" y1="1482" x2="4560" y2="1392" stroke="red" stroke-width="2" />
  <text x="4800" y="1392" fill="black">strávit-v</text>
  <line x1="4608" y1="1524" x2="4656" y2="1524" stroke="green" stroke-width="2" />
  <line x1="4608" y1="1440" x2="4752" y2="1440" stroke="green" stroke-width="2" />
  <line x1="4608" y1="1524" x2="4608" y2="1440" stroke="red" stroke-width="2" />
  <text x="4800" y="1440" fill="black">obdržet-v</text>
  <line x1="4656" y1="1560" x2="4704" y2="1560" stroke="green" stroke-width="2" />
  <line x1="4656" y1="1488" x2="4752" y2="1488" stroke="green" stroke-width="2" />
  <line x1="4656" y1="1560" x2="4656" y2="1488" stroke="red" stroke-width="2" />
  <text x="4800" y="1488" fill="black">odehrát-v</text>
  <line x1="4704" y1="1584" x2="4752" y2="1584" stroke="green" stroke-width="2" />
  <line x1="4704" y1="1536" x2="4752" y2="1536" stroke="green" stroke-width="2" />
  <line x1="4704" y1="1584" x2="4704" y2="1536" stroke="red" stroke-width="2" />
  <text x="4800" y="1536" fill="black">vyrobit-v</text>
  <text x="4800" y="1584" fill="black">předvést-v</text>
  <line x1="4656" y1="1704" x2="4704" y2="1704" stroke="green" stroke-width="2" />
  <line x1="4656" y1="1632" x2="4752" y2="1632" stroke="green" stroke-width="2" />
  <line x1="4656" y1="1704" x2="4656" y2="1632" stroke="red" stroke-width="2" />
  <text x="4800" y="1632" fill="black">měření-n</text>
  <line x1="4704" y1="1728" x2="4752" y2="1728" stroke="green" stroke-width="2" />
  <line x1="4704" y1="1680" x2="4752" y2="1680" stroke="green" stroke-width="2" />
  <line x1="4704" y1="1728" x2="4704" y2="1680" stroke="red" stroke-width="2" />
  <text x="4800" y="1680" fill="black">předpoklad-n</text>
  <text x="4800" y="1728" fill="black">přednáška-n</text>
  <line x1="4320" y1="1928" x2="4368" y2="1928" stroke="green" stroke-width="2" />
  <line x1="4320" y1="1776" x2="4752" y2="1776" stroke="green" stroke-width="2" />
  <line x1="4320" y1="1928" x2="4320" y2="1776" stroke="red" stroke-width="2" />
  <text x="4800" y="1776" fill="black">topit-v</text>
  <line x1="4368" y1="2032" x2="4416" y2="2032" stroke="green" stroke-width="2" />
  <line x1="4368" y1="1824" x2="4752" y2="1824" stroke="green" stroke-width="2" />
  <line x1="4368" y1="2032" x2="4368" y2="1824" stroke="red" stroke-width="2" />
  <text x="4800" y="1824" fill="black">originální-j</text>
  <line x1="4416" y1="2148" x2="4656" y2="2148" stroke="green" stroke-width="2" />
  <line x1="4416" y1="1917" x2="4560" y2="1917" stroke="green" stroke-width="2" />
  <line x1="4416" y1="2148" x2="4416" y2="1917" stroke="red" stroke-width="2" />
  <line x1="4560" y1="1962" x2="4608" y2="1962" stroke="green" stroke-width="2" />
  <line x1="4560" y1="1872" x2="4752" y2="1872" stroke="green" stroke-width="2" />
  <line x1="4560" y1="1962" x2="4560" y2="1872" stroke="red" stroke-width="2" />
  <text x="4800" y="1872" fill="black">vládní-j</text>
  <line x1="4608" y1="2004" x2="4656" y2="2004" stroke="green" stroke-width="2" />
  <line x1="4608" y1="1920" x2="4752" y2="1920" stroke="green" stroke-width="2" />
  <line x1="4608" y1="2004" x2="4608" y2="1920" stroke="red" stroke-width="2" />
  <text x="4800" y="1920" fill="black">operační-j</text>
  <line x1="4656" y1="2040" x2="4704" y2="2040" stroke="green" stroke-width="2" />
  <line x1="4656" y1="1968" x2="4752" y2="1968" stroke="green" stroke-width="2" />
  <line x1="4656" y1="2040" x2="4656" y2="1968" stroke="red" stroke-width="2" />
  <text x="4800" y="1968" fill="black">umělecký-j</text>
  <line x1="4704" y1="2064" x2="4752" y2="2064" stroke="green" stroke-width="2" />
  <line x1="4704" y1="2016" x2="4752" y2="2016" stroke="green" stroke-width="2" />
  <line x1="4704" y1="2064" x2="4704" y2="2016" stroke="red" stroke-width="2" />
  <text x="4800" y="2016" fill="black">východní-j</text>
  <text x="4800" y="2064" fill="black">průmyslový-j</text>
  <line x1="4656" y1="2184" x2="4704" y2="2184" stroke="green" stroke-width="2" />
  <line x1="4656" y1="2112" x2="4752" y2="2112" stroke="green" stroke-width="2" />
  <line x1="4656" y1="2184" x2="4656" y2="2112" stroke="red" stroke-width="2" />
  <text x="4800" y="2112" fill="black">zkušený-j</text>
  <line x1="4704" y1="2208" x2="4752" y2="2208" stroke="green" stroke-width="2" />
  <line x1="4704" y1="2160" x2="4752" y2="2160" stroke="green" stroke-width="2" />
  <line x1="4704" y1="2208" x2="4704" y2="2160" stroke="red" stroke-width="2" />
  <text x="4800" y="2160" fill="black">individuální-j</text>
  <text x="4800" y="2208" fill="black">teplý-j</text>
  <line x1="2496" y1="2398" x2="2544" y2="2398" stroke="green" stroke-width="2" />
  <line x1="2496" y1="2256" x2="4752" y2="2256" stroke="green" stroke-width="2" />
  <line x1="2496" y1="2398" x2="2496" y2="2256" stroke="red" stroke-width="2" />
  <text x="4800" y="2256" fill="black">patro-n</text>
  <line x1="2544" y1="2493" x2="2592" y2="2493" stroke="green" stroke-width="2" />
  <line x1="2544" y1="2304" x2="4752" y2="2304" stroke="green" stroke-width="2" />
  <line x1="2544" y1="2493" x2="2544" y2="2304" stroke="red" stroke-width="2" />
  <text x="4800" y="2304" fill="black">displej-n</text>
  <line x1="2592" y1="2635" x2="2640" y2="2635" stroke="green" stroke-width="2" />
  <line x1="2592" y1="2352" x2="4752" y2="2352" stroke="green" stroke-width="2" />
  <line x1="2592" y1="2635" x2="2592" y2="2352" stroke="red" stroke-width="2" />
  <text x="4800" y="2352" fill="black">sleva-n</text>
  <line x1="2640" y1="2847" x2="2736" y2="2847" stroke="green" stroke-width="2" />
  <line x1="2640" y1="2424" x2="4704" y2="2424" stroke="green" stroke-width="2" />
  <line x1="2640" y1="2847" x2="2640" y2="2424" stroke="red" stroke-width="2" />
  <line x1="4704" y1="2448" x2="4752" y2="2448" stroke="green" stroke-width="2" />
  <line x1="4704" y1="2400" x2="4752" y2="2400" stroke="green" stroke-width="2" />
  <line x1="4704" y1="2448" x2="4704" y2="2400" stroke="red" stroke-width="2" />
  <text x="4800" y="2400" fill="black">oběd-n</text>
  <text x="4800" y="2448" fill="black">ráno-n</text>
  <line x1="2736" y1="3163" x2="2880" y2="3163" stroke="green" stroke-width="2" />
  <line x1="2736" y1="2532" x2="4656" y2="2532" stroke="green" stroke-width="2" />
  <line x1="2736" y1="3163" x2="2736" y2="2532" stroke="red" stroke-width="2" />
  <line x1="4656" y1="2568" x2="4704" y2="2568" stroke="green" stroke-width="2" />
  <line x1="4656" y1="2496" x2="4752" y2="2496" stroke="green" stroke-width="2" />
  <line x1="4656" y1="2568" x2="4656" y2="2496" stroke="red" stroke-width="2" />
  <text x="4800" y="2496" fill="black">pít-v</text>
  <line x1="4704" y1="2592" x2="4752" y2="2592" stroke="green" stroke-width="2" />
  <line x1="4704" y1="2544" x2="4752" y2="2544" stroke="green" stroke-width="2" />
  <line x1="4704" y1="2592" x2="4704" y2="2544" stroke="red" stroke-width="2" />
  <text x="4800" y="2544" fill="black">smát-v</text>
  <text x="4800" y="2592" fill="black">bolet-v</text>
  <line x1="2880" y1="3686" x2="2928" y2="3686" stroke="green" stroke-width="2" />
  <line x1="2880" y1="2640" x2="4752" y2="2640" stroke="green" stroke-width="2" />
  <line x1="2880" y1="3686" x2="2880" y2="2640" stroke="red" stroke-width="2" />
  <text x="4800" y="2640" fill="black">krása-n</text>
  <line x1="2928" y1="4452" x2="4656" y2="4452" stroke="green" stroke-width="2" />
  <line x1="2928" y1="2920" x2="3072" y2="2920" stroke="green" stroke-width="2" />
  <line x1="2928" y1="4452" x2="2928" y2="2920" stroke="red" stroke-width="2" />
  <line x1="3072" y1="3153" x2="3120" y2="3153" stroke="green" stroke-width="2" />
  <line x1="3072" y1="2688" x2="4752" y2="2688" stroke="green" stroke-width="2" />
  <line x1="3072" y1="3153" x2="3072" y2="2688" stroke="red" stroke-width="2" />
  <text x="4800" y="2688" fill="black">novinář-n</text>
  <line x1="3120" y1="3570" x2="3168" y2="3570" stroke="green" stroke-width="2" />
  <line x1="3120" y1="2736" x2="4752" y2="2736" stroke="green" stroke-width="2" />
  <line x1="3120" y1="3570" x2="3120" y2="2736" stroke="red" stroke-width="2" />
  <text x="4800" y="2736" fill="black">lid-n</text>
  <line x1="3168" y1="4308" x2="4656" y2="4308" stroke="green" stroke-width="2" />
  <line x1="3168" y1="2832" x2="3312" y2="2832" stroke="green" stroke-width="2" />
  <line x1="3168" y1="4308" x2="3168" y2="2832" stroke="red" stroke-width="2" />
  <line x1="3312" y1="2880" x2="3360" y2="2880" stroke="green" stroke-width="2" />
  <line x1="3312" y1="2784" x2="4752" y2="2784" stroke="green" stroke-width="2" />
  <line x1="3312" y1="2880" x2="3312" y2="2784" stroke="red" stroke-width="2" />
  <text x="4800" y="2784" fill="black">hmotnost-n</text>
  <line x1="3360" y1="2928" x2="3408" y2="2928" stroke="green" stroke-width="2" />
  <line x1="3360" y1="2832" x2="4752" y2="2832" stroke="green" stroke-width="2" />
  <line x1="3360" y1="2928" x2="3360" y2="2832" stroke="red" stroke-width="2" />
  <text x="4800" y="2832" fill="black">poloha-n</text>
  <line x1="3408" y1="2976" x2="3456" y2="2976" stroke="green" stroke-width="2" />
  <line x1="3408" y1="2880" x2="4752" y2="2880" stroke="green" stroke-width="2" />
  <line x1="3408" y1="2976" x2="3408" y2="2880" stroke="red" stroke-width="2" />
  <text x="4800" y="2880" fill="black">umístění-n</text>
  <line x1="3456" y1="3024" x2="3504" y2="3024" stroke="green" stroke-width="2" />
  <line x1="3456" y1="2928" x2="4752" y2="2928" stroke="green" stroke-width="2" />
  <line x1="3456" y1="3024" x2="3456" y2="2928" stroke="red" stroke-width="2" />
  <text x="4800" y="2928" fill="black">účinný-j</text>
  <line x1="3504" y1="3072" x2="3552" y2="3072" stroke="green" stroke-width="2" />
  <line x1="3504" y1="2976" x2="4752" y2="2976" stroke="green" stroke-width="2" />
  <line x1="3504" y1="3072" x2="3504" y2="2976" stroke="red" stroke-width="2" />
  <text x="4800" y="2976" fill="black">přítomnost-n</text>
  <line x1="3552" y1="3120" x2="3600" y2="3120" stroke="green" stroke-width="2" />
  <line x1="3552" y1="3024" x2="4752" y2="3024" stroke="green" stroke-width="2" />
  <line x1="3552" y1="3120" x2="3552" y2="3024" stroke="red" stroke-width="2" />
  <text x="4800" y="3024" fill="black">postavení-n</text>
  <line x1="3600" y1="3168" x2="3648" y2="3168" stroke="green" stroke-width="2" />
  <line x1="3600" y1="3072" x2="4752" y2="3072" stroke="green" stroke-width="2" />
  <line x1="3600" y1="3168" x2="3600" y2="3072" stroke="red" stroke-width="2" />
  <text x="4800" y="3072" fill="black">omezení-n</text>
  <line x1="3648" y1="3216" x2="3696" y2="3216" stroke="green" stroke-width="2" />
  <line x1="3648" y1="3120" x2="4752" y2="3120" stroke="green" stroke-width="2" />
  <line x1="3648" y1="3216" x2="3648" y2="3120" stroke="red" stroke-width="2" />
  <text x="4800" y="3120" fill="black">zásah-n</text>
  <line x1="3696" y1="3265" x2="3744" y2="3265" stroke="green" stroke-width="2" />
  <line x1="3696" y1="3168" x2="4752" y2="3168" stroke="green" stroke-width="2" />
  <line x1="3696" y1="3265" x2="3696" y2="3168" stroke="red" stroke-width="2" />
  <text x="4800" y="3168" fill="black">hala-n</text>
  <line x1="3744" y1="3314" x2="3792" y2="3314" stroke="green" stroke-width="2" />
  <line x1="3744" y1="3216" x2="4752" y2="3216" stroke="green" stroke-width="2" />
  <line x1="3744" y1="3314" x2="3744" y2="3216" stroke="red" stroke-width="2" />
  <text x="4800" y="3216" fill="black">trend-n</text>
  <line x1="3792" y1="3364" x2="3840" y2="3364" stroke="green" stroke-width="2" />
  <line x1="3792" y1="3264" x2="4752" y2="3264" stroke="green" stroke-width="2" />
  <line x1="3792" y1="3364" x2="3792" y2="3264" stroke="red" stroke-width="2" />
  <text x="4800" y="3264" fill="black">hrdina-n</text>
  <line x1="3840" y1="3416" x2="3888" y2="3416" stroke="green" stroke-width="2" />
  <line x1="3840" y1="3312" x2="4752" y2="3312" stroke="green" stroke-width="2" />
  <line x1="3840" y1="3416" x2="3840" y2="3312" stroke="red" stroke-width="2" />
  <text x="4800" y="3312" fill="black">vyšetření-n</text>
  <line x1="3888" y1="3472" x2="3936" y2="3472" stroke="green" stroke-width="2" />
  <line x1="3888" y1="3360" x2="4752" y2="3360" stroke="green" stroke-width="2" />
  <line x1="3888" y1="3472" x2="3888" y2="3360" stroke="red" stroke-width="2" />
  <text x="4800" y="3360" fill="black">strategie-n</text>
  <line x1="3936" y1="3536" x2="3984" y2="3536" stroke="green" stroke-width="2" />
  <line x1="3936" y1="3408" x2="4752" y2="3408" stroke="green" stroke-width="2" />
  <line x1="3936" y1="3536" x2="3936" y2="3408" stroke="red" stroke-width="2" />
  <text x="4800" y="3408" fill="black">reforma-n</text>
  <line x1="3984" y1="3616" x2="4032" y2="3616" stroke="green" stroke-width="2" />
  <line x1="3984" y1="3456" x2="4752" y2="3456" stroke="green" stroke-width="2" />
  <line x1="3984" y1="3616" x2="3984" y2="3456" stroke="red" stroke-width="2" />
  <text x="4800" y="3456" fill="black">napětí-n</text>
  <line x1="4032" y1="3729" x2="4080" y2="3729" stroke="green" stroke-width="2" />
  <line x1="4032" y1="3504" x2="4752" y2="3504" stroke="green" stroke-width="2" />
  <line x1="4032" y1="3729" x2="4032" y2="3504" stroke="red" stroke-width="2" />
  <text x="4800" y="3504" fill="black">knížka-n</text>
  <line x1="4080" y1="3906" x2="4128" y2="3906" stroke="green" stroke-width="2" />
  <line x1="4080" y1="3552" x2="4752" y2="3552" stroke="green" stroke-width="2" />
  <line x1="4080" y1="3906" x2="4080" y2="3552" stroke="red" stroke-width="2" />
  <text x="4800" y="3552" fill="black">venku-a</text>
  <line x1="4128" y1="4164" x2="4656" y2="4164" stroke="green" stroke-width="2" />
  <line x1="4128" y1="3649" x2="4272" y2="3649" stroke="green" stroke-width="2" />
  <line x1="4128" y1="4164" x2="4128" y2="3649" stroke="red" stroke-width="2" />
  <line x1="4272" y1="3698" x2="4320" y2="3698" stroke="green" stroke-width="2" />
  <line x1="4272" y1="3600" x2="4752" y2="3600" stroke="green" stroke-width="2" />
  <line x1="4272" y1="3698" x2="4272" y2="3600" stroke="red" stroke-width="2" />
  <text x="4800" y="3600" fill="black">zbavit-v</text>
  <line x1="4320" y1="3748" x2="4368" y2="3748" stroke="green" stroke-width="2" />
  <line x1="4320" y1="3648" x2="4752" y2="3648" stroke="green" stroke-width="2" />
  <line x1="4320" y1="3748" x2="4320" y2="3648" stroke="red" stroke-width="2" />
  <text x="4800" y="3648" fill="black">odstranit-v</text>
  <line x1="4368" y1="3800" x2="4416" y2="3800" stroke="green" stroke-width="2" />
  <line x1="4368" y1="3696" x2="4752" y2="3696" stroke="green" stroke-width="2" />
  <line x1="4368" y1="3800" x2="4368" y2="3696" stroke="red" stroke-width="2" />
  <text x="4800" y="3696" fill="black">dohromady-a</text>
  <line x1="4416" y1="3856" x2="4464" y2="3856" stroke="green" stroke-width="2" />
  <line x1="4416" y1="3744" x2="4752" y2="3744" stroke="green" stroke-width="2" />
  <line x1="4416" y1="3856" x2="4416" y2="3744" stroke="red" stroke-width="2" />
  <text x="4800" y="3744" fill="black">mléko-n</text>
  <line x1="4464" y1="3921" x2="4512" y2="3921" stroke="green" stroke-width="2" />
  <line x1="4464" y1="3792" x2="4752" y2="3792" stroke="green" stroke-width="2" />
  <line x1="4464" y1="3921" x2="4464" y2="3792" stroke="red" stroke-width="2" />
  <text x="4800" y="3792" fill="black">alkohol-n</text>
  <line x1="4512" y1="3978" x2="4608" y2="3978" stroke="green" stroke-width="2" />
  <line x1="4512" y1="3864" x2="4704" y2="3864" stroke="green" stroke-width="2" />
  <line x1="4512" y1="3978" x2="4512" y2="3864" stroke="red" stroke-width="2" />
  <line x1="4704" y1="3888" x2="4752" y2="3888" stroke="green" stroke-width="2" />
  <line x1="4704" y1="3840" x2="4752" y2="3840" stroke="green" stroke-width="2" />
  <line x1="4704" y1="3888" x2="4704" y2="3840" stroke="red" stroke-width="2" />
  <text x="4800" y="3840" fill="black">krk-n</text>
  <text x="4800" y="3888" fill="black">záda-n</text>
  <line x1="4608" y1="4020" x2="4656" y2="4020" stroke="green" stroke-width="2" />
  <line x1="4608" y1="3936" x2="4752" y2="3936" stroke="green" stroke-width="2" />
  <line x1="4608" y1="4020" x2="4608" y2="3936" stroke="red" stroke-width="2" />
  <text x="4800" y="3936" fill="black">zub-n</text>
  <line x1="4656" y1="4056" x2="4704" y2="4056" stroke="green" stroke-width="2" />
  <line x1="4656" y1="3984" x2="4752" y2="3984" stroke="green" stroke-width="2" />
  <line x1="4656" y1="4056" x2="4656" y2="3984" stroke="red" stroke-width="2" />
  <text x="4800" y="3984" fill="black">mozek-n</text>
  <line x1="4704" y1="4080" x2="4752" y2="4080" stroke="green" stroke-width="2" />
  <line x1="4704" y1="4032" x2="4752" y2="4032" stroke="green" stroke-width="2" />
  <line x1="4704" y1="4080" x2="4704" y2="4032" stroke="red" stroke-width="2" />
  <text x="4800" y="4032" fill="black">Amerika-n</text>
  <text x="4800" y="4080" fill="black">konkurence-n</text>
  <line x1="4656" y1="4200" x2="4704" y2="4200" stroke="green" stroke-width="2" />
  <line x1="4656" y1="4128" x2="4752" y2="4128" stroke="green" stroke-width="2" />
  <line x1="4656" y1="4200" x2="4656" y2="4128" stroke="red" stroke-width="2" />
  <text x="4800" y="4128" fill="black">sehnat-v</text>
  <line x1="4704" y1="4224" x2="4752" y2="4224" stroke="green" stroke-width="2" />
  <line x1="4704" y1="4176" x2="4752" y2="4176" stroke="green" stroke-width="2" />
  <line x1="4704" y1="4224" x2="4704" y2="4176" stroke="red" stroke-width="2" />
  <text x="4800" y="4176" fill="black">podepsat-v</text>
  <text x="4800" y="4224" fill="black">upravit-v</text>
  <line x1="4656" y1="4344" x2="4704" y2="4344" stroke="green" stroke-width="2" />
  <line x1="4656" y1="4272" x2="4752" y2="4272" stroke="green" stroke-width="2" />
  <line x1="4656" y1="4344" x2="4656" y2="4272" stroke="red" stroke-width="2" />
  <text x="4800" y="4272" fill="black">kód-n</text>
  <line x1="4704" y1="4368" x2="4752" y2="4368" stroke="green" stroke-width="2" />
  <line x1="4704" y1="4320" x2="4752" y2="4320" stroke="green" stroke-width="2" />
  <line x1="4704" y1="4368" x2="4704" y2="4320" stroke="red" stroke-width="2" />
  <text x="4800" y="4320" fill="black">standard-n</text>
  <text x="4800" y="4368" fill="black">kanál-n</text>
  <line x1="4656" y1="4488" x2="4704" y2="4488" stroke="green" stroke-width="2" />
  <line x1="4656" y1="4416" x2="4752" y2="4416" stroke="green" stroke-width="2" />
  <line x1="4656" y1="4488" x2="4656" y2="4416" stroke="red" stroke-width="2" />
  <text x="4800" y="4416" fill="black">Olomouc-n</text>
  <line x1="4704" y1="4512" x2="4752" y2="4512" stroke="green" stroke-width="2" />
  <line x1="4704" y1="4464" x2="4752" y2="4464" stroke="green" stroke-width="2" />
  <line x1="4704" y1="4512" x2="4704" y2="4464" stroke="red" stroke-width="2" />
  <text x="4800" y="4464" fill="black">domácnost-n</text>
  <text x="4800" y="4512" fill="black">bydlení-n</text>
  <line x1="4560" y1="4680" x2="4608" y2="4680" stroke="green" stroke-width="2" />
  <line x1="4560" y1="4560" x2="4752" y2="4560" stroke="green" stroke-width="2" />
  <line x1="4560" y1="4680" x2="4560" y2="4560" stroke="red" stroke-width="2" />
  <text x="4800" y="4560" fill="black">souviset-v</text>
  <line x1="4608" y1="4728" x2="4704" y2="4728" stroke="green" stroke-width="2" />
  <line x1="4608" y1="4632" x2="4704" y2="4632" stroke="green" stroke-width="2" />
  <line x1="4608" y1="4728" x2="4608" y2="4632" stroke="red" stroke-width="2" />
  <line x1="4704" y1="4656" x2="4752" y2="4656" stroke="green" stroke-width="2" />
  <line x1="4704" y1="4608" x2="4752" y2="4608" stroke="green" stroke-width="2" />
  <line x1="4704" y1="4656" x2="4704" y2="4608" stroke="red" stroke-width="2" />
  <text x="4800" y="4608" fill="black">rameno-n</text>
  <text x="4800" y="4656" fill="black">lišit-v</text>
  <line x1="4704" y1="4752" x2="4752" y2="4752" stroke="green" stroke-width="2" />
  <line x1="4704" y1="4704" x2="4752" y2="4704" stroke="green" stroke-width="2" />
  <line x1="4704" y1="4752" x2="4704" y2="4704" stroke="red" stroke-width="2" />
  <text x="4800" y="4704" fill="black">přispět-v</text>
  <text x="4800" y="4752" fill="black">míč-n</text>
</svg>
