<svg width="4800" height="4800">
  <line x1="0" y1="392" x2="48" y2="392" stroke="green" stroke-width="2" />
  <line x1="0" y1="0" x2="4752" y2="0" stroke="green" stroke-width="2" />
  <line x1="0" y1="392" x2="0" y2="0" stroke="red" stroke-width="2" />
  <text x="4800" y="0" fill="black">however-a</text>
  <line x1="48" y1="690" x2="336" y2="690" stroke="green" stroke-width="2" />
  <line x1="48" y1="94" x2="4512" y2="94" stroke="green" stroke-width="2" />
  <line x1="48" y1="690" x2="48" y2="94" stroke="red" stroke-width="2" />
  <line x1="4512" y1="141" x2="4560" y2="141" stroke="green" stroke-width="2" />
  <line x1="4512" y1="48" x2="4752" y2="48" stroke="green" stroke-width="2" />
  <line x1="4512" y1="141" x2="4512" y2="48" stroke="red" stroke-width="2" />
  <text x="4800" y="48" fill="black">below-a</text>
  <line x1="4560" y1="186" x2="4608" y2="186" stroke="green" stroke-width="2" />
  <line x1="4560" y1="96" x2="4752" y2="96" stroke="green" stroke-width="2" />
  <line x1="4560" y1="186" x2="4560" y2="96" stroke="red" stroke-width="2" />
  <text x="4800" y="96" fill="black">that-a</text>
  <line x1="4608" y1="228" x2="4656" y2="228" stroke="green" stroke-width="2" />
  <line x1="4608" y1="144" x2="4752" y2="144" stroke="green" stroke-width="2" />
  <line x1="4608" y1="228" x2="4608" y2="144" stroke="red" stroke-width="2" />
  <text x="4800" y="144" fill="black">though-a</text>
  <line x1="4656" y1="264" x2="4704" y2="264" stroke="green" stroke-width="2" />
  <line x1="4656" y1="192" x2="4752" y2="192" stroke="green" stroke-width="2" />
  <line x1="4656" y1="264" x2="4656" y2="192" stroke="red" stroke-width="2" />
  <text x="4800" y="192" fill="black">before-a</text>
  <line x1="4704" y1="288" x2="4752" y2="288" stroke="green" stroke-width="2" />
  <line x1="4704" y1="240" x2="4752" y2="240" stroke="green" stroke-width="2" />
  <line x1="4704" y1="288" x2="4704" y2="240" stroke="red" stroke-width="2" />
  <text x="4800" y="240" fill="black">ago-a</text>
  <text x="4800" y="288" fill="black">either-a</text>
  <line x1="336" y1="1045" x2="384" y2="1045" stroke="green" stroke-width="2" />
  <line x1="336" y1="336" x2="4752" y2="336" stroke="green" stroke-width="2" />
  <line x1="336" y1="1045" x2="336" y2="336" stroke="red" stroke-width="2" />
  <text x="4800" y="336" fill="black">definitely-a</text>
  <line x1="384" y1="1633" x2="1296" y2="1633" stroke="green" stroke-width="2" />
  <line x1="384" y1="456" x2="3888" y2="456" stroke="green" stroke-width="2" />
  <line x1="384" y1="1633" x2="384" y2="456" stroke="red" stroke-width="2" />
  <line x1="3888" y1="529" x2="3936" y2="529" stroke="green" stroke-width="2" />
  <line x1="3888" y1="384" x2="4752" y2="384" stroke="green" stroke-width="2" />
  <line x1="3888" y1="529" x2="3888" y2="384" stroke="red" stroke-width="2" />
  <text x="4800" y="384" fill="black">sure-a</text>
  <line x1="3936" y1="626" x2="3984" y2="626" stroke="green" stroke-width="2" />
  <line x1="3936" y1="432" x2="4752" y2="432" stroke="green" stroke-width="2" />
  <line x1="3936" y1="626" x2="3936" y2="432" stroke="red" stroke-width="2" />
  <text x="4800" y="432" fill="black">originally-a</text>
  <line x1="3984" y1="772" x2="4032" y2="772" stroke="green" stroke-width="2" />
  <line x1="3984" y1="480" x2="4752" y2="480" stroke="green" stroke-width="2" />
  <line x1="3984" y1="772" x2="3984" y2="480" stroke="red" stroke-width="2" />
  <text x="4800" y="480" fill="black">recently-a</text>
  <line x1="4032" y1="938" x2="4368" y2="938" stroke="green" stroke-width="2" />
  <line x1="4032" y1="606" x2="4464" y2="606" stroke="green" stroke-width="2" />
  <line x1="4032" y1="938" x2="4032" y2="606" stroke="red" stroke-width="2" />
  <line x1="4464" y1="684" x2="4512" y2="684" stroke="green" stroke-width="2" />
  <line x1="4464" y1="528" x2="4752" y2="528" stroke="green" stroke-width="2" />
  <line x1="4464" y1="684" x2="4464" y2="528" stroke="red" stroke-width="2" />
  <text x="4800" y="528" fill="black">first-a</text>
  <line x1="4512" y1="756" x2="4656" y2="756" stroke="green" stroke-width="2" />
  <line x1="4512" y1="612" x2="4656" y2="612" stroke="green" stroke-width="2" />
  <line x1="4512" y1="756" x2="4512" y2="612" stroke="red" stroke-width="2" />
  <line x1="4656" y1="648" x2="4704" y2="648" stroke="green" stroke-width="2" />
  <line x1="4656" y1="576" x2="4752" y2="576" stroke="green" stroke-width="2" />
  <line x1="4656" y1="648" x2="4656" y2="576" stroke="red" stroke-width="2" />
  <text x="4800" y="576" fill="black">maybe-a</text>
  <line x1="4704" y1="672" x2="4752" y2="672" stroke="green" stroke-width="2" />
  <line x1="4704" y1="624" x2="4752" y2="624" stroke="green" stroke-width="2" />
  <line x1="4704" y1="672" x2="4704" y2="624" stroke="red" stroke-width="2" />
  <text x="4800" y="624" fill="black">sometimes-a</text>
  <text x="4800" y="672" fill="black">perhaps-a</text>
  <line x1="4656" y1="792" x2="4704" y2="792" stroke="green" stroke-width="2" />
  <line x1="4656" y1="720" x2="4752" y2="720" stroke="green" stroke-width="2" />
  <line x1="4656" y1="792" x2="4656" y2="720" stroke="red" stroke-width="2" />
  <text x="4800" y="720" fill="black">once-a</text>
  <line x1="4704" y1="816" x2="4752" y2="816" stroke="green" stroke-width="2" />
  <line x1="4704" y1="768" x2="4752" y2="768" stroke="green" stroke-width="2" />
  <line x1="4704" y1="816" x2="4704" y2="768" stroke="red" stroke-width="2" />
  <text x="4800" y="768" fill="black">therefore-a</text>
  <text x="4800" y="816" fill="black">finally-a</text>
  <line x1="4368" y1="1013" x2="4416" y2="1013" stroke="green" stroke-width="2" />
  <line x1="4368" y1="864" x2="4752" y2="864" stroke="green" stroke-width="2" />
  <line x1="4368" y1="1013" x2="4368" y2="864" stroke="red" stroke-width="2" />
  <text x="4800" y="864" fill="black">further-a</text>
  <line x1="4416" y1="1114" x2="4464" y2="1114" stroke="green" stroke-width="2" />
  <line x1="4416" y1="912" x2="4752" y2="912" stroke="green" stroke-width="2" />
  <line x1="4416" y1="1114" x2="4416" y2="912" stroke="red" stroke-width="2" />
  <text x="4800" y="912" fill="black">previously-a</text>
  <line x1="4464" y1="1224" x2="4704" y2="1224" stroke="green" stroke-width="2" />
  <line x1="4464" y1="1005" x2="4560" y2="1005" stroke="green" stroke-width="2" />
  <line x1="4464" y1="1224" x2="4464" y2="1005" stroke="red" stroke-width="2" />
  <line x1="4560" y1="1050" x2="4608" y2="1050" stroke="green" stroke-width="2" />
  <line x1="4560" y1="960" x2="4752" y2="960" stroke="green" stroke-width="2" />
  <line x1="4560" y1="1050" x2="4560" y2="960" stroke="red" stroke-width="2" />
  <text x="4800" y="960" fill="black">certainly-a</text>
  <line x1="4608" y1="1092" x2="4656" y2="1092" stroke="green" stroke-width="2" />
  <line x1="4608" y1="1008" x2="4752" y2="1008" stroke="green" stroke-width="2" />
  <line x1="4608" y1="1092" x2="4608" y2="1008" stroke="red" stroke-width="2" />
  <text x="4800" y="1008" fill="black">currently-a</text>
  <line x1="4656" y1="1128" x2="4704" y2="1128" stroke="green" stroke-width="2" />
  <line x1="4656" y1="1056" x2="4752" y2="1056" stroke="green" stroke-width="2" />
  <line x1="4656" y1="1128" x2="4656" y2="1056" stroke="red" stroke-width="2" />
  <text x="4800" y="1056" fill="black">typically-a</text>
  <line x1="4704" y1="1152" x2="4752" y2="1152" stroke="green" stroke-width="2" />
  <line x1="4704" y1="1104" x2="4752" y2="1104" stroke="green" stroke-width="2" />
  <line x1="4704" y1="1152" x2="4704" y2="1104" stroke="red" stroke-width="2" />
  <text x="4800" y="1104" fill="black">generally-a</text>
  <text x="4800" y="1152" fill="black">clearly-a</text>
  <line x1="4704" y1="1248" x2="4752" y2="1248" stroke="green" stroke-width="2" />
  <line x1="4704" y1="1200" x2="4752" y2="1200" stroke="green" stroke-width="2" />
  <line x1="4704" y1="1248" x2="4704" y2="1200" stroke="red" stroke-width="2" />
  <text x="4800" y="1200" fill="black">eventually-a</text>
  <text x="4800" y="1248" fill="black">specifically-a</text>
  <line x1="1296" y1="1929" x2="1488" y2="1929" stroke="green" stroke-width="2" />
  <line x1="1296" y1="1338" x2="4608" y2="1338" stroke="green" stroke-width="2" />
  <line x1="1296" y1="1929" x2="1296" y2="1338" stroke="red" stroke-width="2" />
  <line x1="4608" y1="1380" x2="4656" y2="1380" stroke="green" stroke-width="2" />
  <line x1="4608" y1="1296" x2="4752" y2="1296" stroke="green" stroke-width="2" />
  <line x1="4608" y1="1380" x2="4608" y2="1296" stroke="red" stroke-width="2" />
  <text x="4800" y="1296" fill="black">otherwise-a</text>
  <line x1="4656" y1="1416" x2="4704" y2="1416" stroke="green" stroke-width="2" />
  <line x1="4656" y1="1344" x2="4752" y2="1344" stroke="green" stroke-width="2" />
  <line x1="4656" y1="1416" x2="4656" y2="1344" stroke="red" stroke-width="2" />
  <text x="4800" y="1344" fill="black">instead-a</text>
  <line x1="4704" y1="1440" x2="4752" y2="1440" stroke="green" stroke-width="2" />
  <line x1="4704" y1="1392" x2="4752" y2="1392" stroke="green" stroke-width="2" />
  <line x1="4704" y1="1440" x2="4704" y2="1392" stroke="red" stroke-width="2" />
  <text x="4800" y="1392" fill="black">thus-a</text>
  <text x="4800" y="1440" fill="black">indeed-a</text>
  <line x1="1488" y1="2371" x2="1536" y2="2371" stroke="green" stroke-width="2" />
  <line x1="1488" y1="1488" x2="4752" y2="1488" stroke="green" stroke-width="2" />
  <line x1="1488" y1="2371" x2="1488" y2="1488" stroke="red" stroke-width="2" />
  <text x="4800" y="1488" fill="black">earlier-a</text>
  <line x1="1536" y1="3207" x2="1584" y2="3207" stroke="green" stroke-width="2" />
  <line x1="1536" y1="1536" x2="4752" y2="1536" stroke="green" stroke-width="2" />
  <line x1="1536" y1="3207" x2="1536" y2="1536" stroke="red" stroke-width="2" />
  <text x="4800" y="1536" fill="black">else-a</text>
  <line x1="1584" y1="4692" x2="4656" y2="4692" stroke="green" stroke-width="2" />
  <line x1="1584" y1="1723" x2="1728" y2="1723" stroke="green" stroke-width="2" />
  <line x1="1584" y1="4692" x2="1584" y2="1723" stroke="red" stroke-width="2" />
  <line x1="1728" y1="1862" x2="1776" y2="1862" stroke="green" stroke-width="2" />
  <line x1="1728" y1="1584" x2="4752" y2="1584" stroke="green" stroke-width="2" />
  <line x1="1728" y1="1862" x2="1728" y2="1584" stroke="red" stroke-width="2" />
  <text x="4800" y="1584" fill="black">over-a</text>
  <line x1="1776" y1="2093" x2="1824" y2="2093" stroke="green" stroke-width="2" />
  <line x1="1776" y1="1632" x2="4752" y2="1632" stroke="green" stroke-width="2" />
  <line x1="1776" y1="2093" x2="1776" y2="1632" stroke="red" stroke-width="2" />
  <text x="4800" y="1632" fill="black">relatively-a</text>
  <line x1="1824" y1="2507" x2="1872" y2="2507" stroke="green" stroke-width="2" />
  <line x1="1824" y1="1680" x2="4752" y2="1680" stroke="green" stroke-width="2" />
  <line x1="1824" y1="2507" x2="1824" y2="1680" stroke="red" stroke-width="2" />
  <text x="4800" y="1680" fill="black">exactly-a</text>
  <line x1="1872" y1="3207" x2="2256" y2="3207" stroke="green" stroke-width="2" />
  <line x1="1872" y1="1807" x2="4416" y2="1807" stroke="green" stroke-width="2" />
  <line x1="1872" y1="3207" x2="1872" y2="1807" stroke="red" stroke-width="2" />
  <line x1="4416" y1="1887" x2="4464" y2="1887" stroke="green" stroke-width="2" />
  <line x1="4416" y1="1728" x2="4752" y2="1728" stroke="green" stroke-width="2" />
  <line x1="4416" y1="1887" x2="4416" y2="1728" stroke="red" stroke-width="2" />
  <text x="4800" y="1728" fill="black">ever-a</text>
  <line x1="4464" y1="1962" x2="4608" y2="1962" stroke="green" stroke-width="2" />
  <line x1="4464" y1="1812" x2="4656" y2="1812" stroke="green" stroke-width="2" />
  <line x1="4464" y1="1962" x2="4464" y2="1812" stroke="red" stroke-width="2" />
  <line x1="4656" y1="1848" x2="4704" y2="1848" stroke="green" stroke-width="2" />
  <line x1="4656" y1="1776" x2="4752" y2="1776" stroke="green" stroke-width="2" />
  <line x1="4656" y1="1848" x2="4656" y2="1776" stroke="red" stroke-width="2" />
  <text x="4800" y="1776" fill="black">pretty-a</text>
  <line x1="4704" y1="1872" x2="4752" y2="1872" stroke="green" stroke-width="2" />
  <line x1="4704" y1="1824" x2="4752" y2="1824" stroke="green" stroke-width="2" />
  <line x1="4704" y1="1872" x2="4704" y2="1824" stroke="red" stroke-width="2" />
  <text x="4800" y="1824" fill="black">quite-a</text>
  <text x="4800" y="1872" fill="black">extremely-a</text>
  <line x1="4608" y1="2004" x2="4656" y2="2004" stroke="green" stroke-width="2" />
  <line x1="4608" y1="1920" x2="4752" y2="1920" stroke="green" stroke-width="2" />
  <line x1="4608" y1="2004" x2="4608" y2="1920" stroke="red" stroke-width="2" />
  <text x="4800" y="1920" fill="black">truly-a</text>
  <line x1="4656" y1="2040" x2="4704" y2="2040" stroke="green" stroke-width="2" />
  <line x1="4656" y1="1968" x2="4752" y2="1968" stroke="green" stroke-width="2" />
  <line x1="4656" y1="2040" x2="4656" y2="1968" stroke="red" stroke-width="2" />
  <text x="4800" y="1968" fill="black">never-a</text>
  <line x1="4704" y1="2064" x2="4752" y2="2064" stroke="green" stroke-width="2" />
  <line x1="4704" y1="2016" x2="4752" y2="2016" stroke="green" stroke-width="2" />
  <line x1="4704" y1="2064" x2="4704" y2="2016" stroke="red" stroke-width="2" />
  <text x="4800" y="2016" fill="black">really-a</text>
  <text x="4800" y="2064" fill="black">always-a</text>
  <line x1="2256" y1="4226" x2="4272" y2="4226" stroke="green" stroke-width="2" />
  <line x1="2256" y1="2188" x2="2784" y2="2188" stroke="green" stroke-width="2" />
  <line x1="2256" y1="4226" x2="2256" y2="2188" stroke="red" stroke-width="2" />
  <line x1="2784" y1="2265" x2="2832" y2="2265" stroke="green" stroke-width="2" />
  <line x1="2784" y1="2112" x2="4752" y2="2112" stroke="green" stroke-width="2" />
  <line x1="2784" y1="2265" x2="2784" y2="2112" stroke="red" stroke-width="2" />
  <text x="4800" y="2112" fill="black">effectively-a</text>
  <line x1="2832" y1="2371" x2="2880" y2="2371" stroke="green" stroke-width="2" />
  <line x1="2832" y1="2160" x2="4752" y2="2160" stroke="green" stroke-width="2" />
  <line x1="2832" y1="2371" x2="2832" y2="2160" stroke="red" stroke-width="2" />
  <text x="4800" y="2160" fill="black">less-a</text>
  <line x1="2880" y1="2535" x2="2928" y2="2535" stroke="green" stroke-width="2" />
  <line x1="2880" y1="2208" x2="4752" y2="2208" stroke="green" stroke-width="2" />
  <line x1="2880" y1="2535" x2="2880" y2="2208" stroke="red" stroke-width="2" />
  <text x="4800" y="2208" fill="black">enough-a</text>
  <line x1="2928" y1="2814" x2="2976" y2="2814" stroke="green" stroke-width="2" />
  <line x1="2928" y1="2256" x2="4752" y2="2256" stroke="green" stroke-width="2" />
  <line x1="2928" y1="2814" x2="2928" y2="2256" stroke="red" stroke-width="2" />
  <text x="4800" y="2256" fill="black">directly-a</text>
  <line x1="2976" y1="3325" x2="3024" y2="3325" stroke="green" stroke-width="2" />
  <line x1="2976" y1="2304" x2="4752" y2="2304" stroke="green" stroke-width="2" />
  <line x1="2976" y1="3325" x2="2976" y2="2304" stroke="red" stroke-width="2" />
  <text x="4800" y="2304" fill="black">significantly-a</text>
  <line x1="3024" y1="3966" x2="4560" y2="3966" stroke="green" stroke-width="2" />
  <line x1="3024" y1="2684" x2="3264" y2="2684" stroke="green" stroke-width="2" />
  <line x1="3024" y1="3966" x2="3024" y2="2684" stroke="red" stroke-width="2" />
  <line x1="3264" y1="3017" x2="3312" y2="3017" stroke="green" stroke-width="2" />
  <line x1="3264" y1="2352" x2="4752" y2="2352" stroke="green" stroke-width="2" />
  <line x1="3264" y1="3017" x2="3264" y2="2352" stroke="red" stroke-width="2" />
  <text x="4800" y="2352" fill="black">out-a</text>
  <line x1="3312" y1="3587" x2="4416" y2="3587" stroke="green" stroke-width="2" />
  <line x1="3312" y1="2448" x2="3696" y2="2448" stroke="green" stroke-width="2" />
  <line x1="3312" y1="3587" x2="3312" y2="2448" stroke="red" stroke-width="2" />
  <line x1="3696" y1="2497" x2="3744" y2="2497" stroke="green" stroke-width="2" />
  <line x1="3696" y1="2400" x2="4752" y2="2400" stroke="green" stroke-width="2" />
  <line x1="3696" y1="2497" x2="3696" y2="2400" stroke="red" stroke-width="2" />
  <text x="4800" y="2400" fill="black">easily-a</text>
  <line x1="3744" y1="2546" x2="3792" y2="2546" stroke="green" stroke-width="2" />
  <line x1="3744" y1="2448" x2="4752" y2="2448" stroke="green" stroke-width="2" />
  <line x1="3744" y1="2546" x2="3744" y2="2448" stroke="red" stroke-width="2" />
  <text x="4800" y="2448" fill="black">longer-a</text>
  <line x1="3792" y1="2596" x2="3840" y2="2596" stroke="green" stroke-width="2" />
  <line x1="3792" y1="2496" x2="4752" y2="2496" stroke="green" stroke-width="2" />
  <line x1="3792" y1="2596" x2="3792" y2="2496" stroke="red" stroke-width="2" />
  <text x="4800" y="2496" fill="black">completely-a</text>
  <line x1="3840" y1="2648" x2="3888" y2="2648" stroke="green" stroke-width="2" />
  <line x1="3840" y1="2544" x2="4752" y2="2544" stroke="green" stroke-width="2" />
  <line x1="3840" y1="2648" x2="3840" y2="2544" stroke="red" stroke-width="2" />
  <text x="4800" y="2544" fill="black">slightly-a</text>
  <line x1="3888" y1="2704" x2="3936" y2="2704" stroke="green" stroke-width="2" />
  <line x1="3888" y1="2592" x2="4752" y2="2592" stroke="green" stroke-width="2" />
  <line x1="3888" y1="2704" x2="3888" y2="2592" stroke="red" stroke-width="2" />
  <text x="4800" y="2592" fill="black">little-a</text>
  <line x1="3936" y1="2768" x2="3984" y2="2768" stroke="green" stroke-width="2" />
  <line x1="3936" y1="2640" x2="4752" y2="2640" stroke="green" stroke-width="2" />
  <line x1="3936" y1="2768" x2="3936" y2="2640" stroke="red" stroke-width="2" />
  <text x="4800" y="2640" fill="black">fully-a</text>
  <line x1="3984" y1="2848" x2="4032" y2="2848" stroke="green" stroke-width="2" />
  <line x1="3984" y1="2688" x2="4752" y2="2688" stroke="green" stroke-width="2" />
  <line x1="3984" y1="2848" x2="3984" y2="2688" stroke="red" stroke-width="2" />
  <text x="4800" y="2688" fill="black">highly-a</text>
  <line x1="4032" y1="2961" x2="4080" y2="2961" stroke="green" stroke-width="2" />
  <line x1="4032" y1="2736" x2="4752" y2="2736" stroke="green" stroke-width="2" />
  <line x1="4032" y1="2961" x2="4032" y2="2736" stroke="red" stroke-width="2" />
  <text x="4800" y="2736" fill="black">mostly-a</text>
  <line x1="4080" y1="3094" x2="4320" y2="3094" stroke="green" stroke-width="2" />
  <line x1="4080" y1="2829" x2="4560" y2="2829" stroke="green" stroke-width="2" />
  <line x1="4080" y1="3094" x2="4080" y2="2829" stroke="red" stroke-width="2" />
  <line x1="4560" y1="2874" x2="4608" y2="2874" stroke="green" stroke-width="2" />
  <line x1="4560" y1="2784" x2="4752" y2="2784" stroke="green" stroke-width="2" />
  <line x1="4560" y1="2874" x2="4560" y2="2784" stroke="red" stroke-width="2" />
  <text x="4800" y="2784" fill="black">most-a</text>
  <line x1="4608" y1="2916" x2="4656" y2="2916" stroke="green" stroke-width="2" />
  <line x1="4608" y1="2832" x2="4752" y2="2832" stroke="green" stroke-width="2" />
  <line x1="4608" y1="2916" x2="4608" y2="2832" stroke="red" stroke-width="2" />
  <text x="4800" y="2832" fill="black">simply-a</text>
  <line x1="4656" y1="2952" x2="4704" y2="2952" stroke="green" stroke-width="2" />
  <line x1="4656" y1="2880" x2="4752" y2="2880" stroke="green" stroke-width="2" />
  <line x1="4656" y1="2952" x2="4656" y2="2880" stroke="red" stroke-width="2" />
  <text x="4800" y="2880" fill="black">probably-a</text>
  <line x1="4704" y1="2976" x2="4752" y2="2976" stroke="green" stroke-width="2" />
  <line x1="4704" y1="2928" x2="4752" y2="2928" stroke="green" stroke-width="2" />
  <line x1="4704" y1="2976" x2="4704" y2="2928" stroke="red" stroke-width="2" />
  <text x="4800" y="2928" fill="black">often-a</text>
  <text x="4800" y="2976" fill="black">usually-a</text>
  <line x1="4320" y1="3165" x2="4368" y2="3165" stroke="green" stroke-width="2" />
  <line x1="4320" y1="3024" x2="4752" y2="3024" stroke="green" stroke-width="2" />
  <line x1="4320" y1="3165" x2="4320" y2="3024" stroke="red" stroke-width="2" />
  <text x="4800" y="3024" fill="black">already-a</text>
  <line x1="4368" y1="3258" x2="4416" y2="3258" stroke="green" stroke-width="2" />
  <line x1="4368" y1="3072" x2="4752" y2="3072" stroke="green" stroke-width="2" />
  <line x1="4368" y1="3258" x2="4368" y2="3072" stroke="red" stroke-width="2" />
  <text x="4800" y="3072" fill="black">no-a</text>
  <line x1="4416" y1="3354" x2="4608" y2="3354" stroke="green" stroke-width="2" />
  <line x1="4416" y1="3162" x2="4608" y2="3162" stroke="green" stroke-width="2" />
  <line x1="4416" y1="3354" x2="4416" y2="3162" stroke="red" stroke-width="2" />
  <line x1="4608" y1="3204" x2="4656" y2="3204" stroke="green" stroke-width="2" />
  <line x1="4608" y1="3120" x2="4752" y2="3120" stroke="green" stroke-width="2" />
  <line x1="4608" y1="3204" x2="4608" y2="3120" stroke="red" stroke-width="2" />
  <text x="4800" y="3120" fill="black">much-a</text>
  <line x1="4656" y1="3240" x2="4704" y2="3240" stroke="green" stroke-width="2" />
  <line x1="4656" y1="3168" x2="4752" y2="3168" stroke="green" stroke-width="2" />
  <line x1="4656" y1="3240" x2="4656" y2="3168" stroke="red" stroke-width="2" />
  <text x="4800" y="3168" fill="black">up-a</text>
  <line x1="4704" y1="3264" x2="4752" y2="3264" stroke="green" stroke-width="2" />
  <line x1="4704" y1="3216" x2="4752" y2="3216" stroke="green" stroke-width="2" />
  <line x1="4704" y1="3264" x2="4704" y2="3216" stroke="red" stroke-width="2" />
  <text x="4800" y="3216" fill="black">back-a</text>
  <text x="4800" y="3264" fill="black">about-a</text>
  <line x1="4608" y1="3396" x2="4656" y2="3396" stroke="green" stroke-width="2" />
  <line x1="4608" y1="3312" x2="4752" y2="3312" stroke="green" stroke-width="2" />
  <line x1="4608" y1="3396" x2="4608" y2="3312" stroke="red" stroke-width="2" />
  <text x="4800" y="3312" fill="black">all-a</text>
  <line x1="4656" y1="3432" x2="4704" y2="3432" stroke="green" stroke-width="2" />
  <line x1="4656" y1="3360" x2="4752" y2="3360" stroke="green" stroke-width="2" />
  <line x1="4656" y1="3432" x2="4656" y2="3360" stroke="red" stroke-width="2" />
  <text x="4800" y="3360" fill="black">almost-a</text>
  <line x1="4704" y1="3456" x2="4752" y2="3456" stroke="green" stroke-width="2" />
  <line x1="4704" y1="3408" x2="4752" y2="3408" stroke="green" stroke-width="2" />
  <line x1="4704" y1="3456" x2="4704" y2="3408" stroke="red" stroke-width="2" />
  <text x="4800" y="3408" fill="black">still-a</text>
  <text x="4800" y="3456" fill="black">actually-a</text>
  <line x1="4416" y1="3646" x2="4512" y2="3646" stroke="green" stroke-width="2" />
  <line x1="4416" y1="3528" x2="4704" y2="3528" stroke="green" stroke-width="2" />
  <line x1="4416" y1="3646" x2="4416" y2="3528" stroke="red" stroke-width="2" />
  <line x1="4704" y1="3552" x2="4752" y2="3552" stroke="green" stroke-width="2" />
  <line x1="4704" y1="3504" x2="4752" y2="3504" stroke="green" stroke-width="2" />
  <line x1="4704" y1="3552" x2="4704" y2="3504" stroke="red" stroke-width="2" />
  <text x="4800" y="3504" fill="black">far-a</text>
  <text x="4800" y="3552" fill="black">long-a</text>
  <line x1="4512" y1="3693" x2="4560" y2="3693" stroke="green" stroke-width="2" />
  <line x1="4512" y1="3600" x2="4752" y2="3600" stroke="green" stroke-width="2" />
  <line x1="4512" y1="3693" x2="4512" y2="3600" stroke="red" stroke-width="2" />
  <text x="4800" y="3600" fill="black">immediately-a</text>
  <line x1="4560" y1="3738" x2="4608" y2="3738" stroke="green" stroke-width="2" />
  <line x1="4560" y1="3648" x2="4752" y2="3648" stroke="green" stroke-width="2" />
  <line x1="4560" y1="3738" x2="4560" y2="3648" stroke="red" stroke-width="2" />
  <text x="4800" y="3648" fill="black">together-a</text>
  <line x1="4608" y1="3780" x2="4656" y2="3780" stroke="green" stroke-width="2" />
  <line x1="4608" y1="3696" x2="4752" y2="3696" stroke="green" stroke-width="2" />
  <line x1="4608" y1="3780" x2="4608" y2="3696" stroke="red" stroke-width="2" />
  <text x="4800" y="3696" fill="black">away-a</text>
  <line x1="4656" y1="3816" x2="4704" y2="3816" stroke="green" stroke-width="2" />
  <line x1="4656" y1="3744" x2="4752" y2="3744" stroke="green" stroke-width="2" />
  <line x1="4656" y1="3816" x2="4656" y2="3744" stroke="red" stroke-width="2" />
  <text x="4800" y="3744" fill="black">around-a</text>
  <line x1="4704" y1="3840" x2="4752" y2="3840" stroke="green" stroke-width="2" />
  <line x1="4704" y1="3792" x2="4752" y2="3792" stroke="green" stroke-width="2" />
  <line x1="4704" y1="3840" x2="4704" y2="3792" stroke="red" stroke-width="2" />
  <text x="4800" y="3792" fill="black">down-a</text>
  <text x="4800" y="3840" fill="black">quickly-a</text>
  <line x1="4560" y1="4020" x2="4656" y2="4020" stroke="green" stroke-width="2" />
  <line x1="4560" y1="3912" x2="4704" y2="3912" stroke="green" stroke-width="2" />
  <line x1="4560" y1="4020" x2="4560" y2="3912" stroke="red" stroke-width="2" />
  <line x1="4704" y1="3936" x2="4752" y2="3936" stroke="green" stroke-width="2" />
  <line x1="4704" y1="3888" x2="4752" y2="3888" stroke="green" stroke-width="2" />
  <line x1="4704" y1="3936" x2="4704" y2="3888" stroke="red" stroke-width="2" />
  <text x="4800" y="3888" fill="black">nearly-a</text>
  <text x="4800" y="3936" fill="black">approximately-a</text>
  <line x1="4656" y1="4056" x2="4704" y2="4056" stroke="green" stroke-width="2" />
  <line x1="4656" y1="3984" x2="4752" y2="3984" stroke="green" stroke-width="2" />
  <line x1="4656" y1="4056" x2="4656" y2="3984" stroke="red" stroke-width="2" />
  <text x="4800" y="3984" fill="black">especially-a</text>
  <line x1="4704" y1="4080" x2="4752" y2="4080" stroke="green" stroke-width="2" />
  <line x1="4704" y1="4032" x2="4752" y2="4032" stroke="green" stroke-width="2" />
  <line x1="4704" y1="4080" x2="4704" y2="4032" stroke="red" stroke-width="2" />
  <text x="4800" y="4032" fill="black">particularly-a</text>
  <text x="4800" y="4080" fill="black">likely-a</text>
  <line x1="4272" y1="4324" x2="4320" y2="4324" stroke="green" stroke-width="2" />
  <line x1="4272" y1="4128" x2="4752" y2="4128" stroke="green" stroke-width="2" />
  <line x1="4272" y1="4324" x2="4272" y2="4128" stroke="red" stroke-width="2" />
  <text x="4800" y="4128" fill="black">early-a</text>
  <line x1="4320" y1="4449" x2="4416" y2="4449" stroke="green" stroke-width="2" />
  <line x1="4320" y1="4200" x2="4704" y2="4200" stroke="green" stroke-width="2" />
  <line x1="4320" y1="4449" x2="4320" y2="4200" stroke="red" stroke-width="2" />
  <line x1="4704" y1="4224" x2="4752" y2="4224" stroke="green" stroke-width="2" />
  <line x1="4704" y1="4176" x2="4752" y2="4176" stroke="green" stroke-width="2" />
  <line x1="4704" y1="4224" x2="4704" y2="4176" stroke="red" stroke-width="2" />
  <text x="4800" y="4176" fill="black">yet-a</text>
  <text x="4800" y="4224" fill="black">soon-a</text>
  <line x1="4416" y1="4548" x2="4656" y2="4548" stroke="green" stroke-width="2" />
  <line x1="4416" y1="4350" x2="4560" y2="4350" stroke="green" stroke-width="2" />
  <line x1="4416" y1="4548" x2="4416" y2="4350" stroke="red" stroke-width="2" />
  <line x1="4560" y1="4404" x2="4656" y2="4404" stroke="green" stroke-width="2" />
  <line x1="4560" y1="4296" x2="4704" y2="4296" stroke="green" stroke-width="2" />
  <line x1="4560" y1="4404" x2="4560" y2="4296" stroke="red" stroke-width="2" />
  <line x1="4704" y1="4320" x2="4752" y2="4320" stroke="green" stroke-width="2" />
  <line x1="4704" y1="4272" x2="4752" y2="4272" stroke="green" stroke-width="2" />
  <line x1="4704" y1="4320" x2="4704" y2="4272" stroke="red" stroke-width="2" />
  <text x="4800" y="4272" fill="black">too-a</text>
  <text x="4800" y="4320" fill="black">right-a</text>
  <line x1="4656" y1="4440" x2="4704" y2="4440" stroke="green" stroke-width="2" />
  <line x1="4656" y1="4368" x2="4752" y2="4368" stroke="green" stroke-width="2" />
  <line x1="4656" y1="4440" x2="4656" y2="4368" stroke="red" stroke-width="2" />
  <text x="4800" y="4368" fill="black">alone-a</text>
  <line x1="4704" y1="4464" x2="4752" y2="4464" stroke="green" stroke-width="2" />
  <line x1="4704" y1="4416" x2="4752" y2="4416" stroke="green" stroke-width="2" />
  <line x1="4704" y1="4464" x2="4704" y2="4416" stroke="red" stroke-width="2" />
  <text x="4800" y="4416" fill="black">there-a</text>
  <text x="4800" y="4464" fill="black">again-a</text>
  <line x1="4656" y1="4584" x2="4704" y2="4584" stroke="green" stroke-width="2" />
  <line x1="4656" y1="4512" x2="4752" y2="4512" stroke="green" stroke-width="2" />
  <line x1="4656" y1="4584" x2="4656" y2="4512" stroke="red" stroke-width="2" />
  <text x="4800" y="4512" fill="black">ahead-a</text>
  <line x1="4704" y1="4608" x2="4752" y2="4608" stroke="green" stroke-width="2" />
  <line x1="4704" y1="4560" x2="4752" y2="4560" stroke="green" stroke-width="2" />
  <line x1="4704" y1="4608" x2="4704" y2="4560" stroke="red" stroke-width="2" />
  <text x="4800" y="4560" fill="black">later-a</text>
  <text x="4800" y="4608" fill="black">forward-a</text>
  <line x1="4656" y1="4728" x2="4704" y2="4728" stroke="green" stroke-width="2" />
  <line x1="4656" y1="4656" x2="4752" y2="4656" stroke="green" stroke-width="2" />
  <line x1="4656" y1="4728" x2="4656" y2="4656" stroke="red" stroke-width="2" />
  <text x="4800" y="4656" fill="black">prior-a</text>
  <line x1="4704" y1="4752" x2="4752" y2="4752" stroke="green" stroke-width="2" />
  <line x1="4704" y1="4704" x2="4752" y2="4704" stroke="green" stroke-width="2" />
  <line x1="4704" y1="4752" x2="4704" y2="4704" stroke="red" stroke-width="2" />
  <text x="4800" y="4704" fill="black">rather-a</text>
  <text x="4800" y="4752" fill="black">possibly-a</text>
</svg>
