<svg width="4800" height="4800">
  <line x1="0" y1="172" x2="48" y2="172" stroke="green" stroke-width="2" />
  <line x1="0" y1="0" x2="4752" y2="0" stroke="green" stroke-width="2" />
  <line x1="0" y1="172" x2="0" y2="0" stroke="red" stroke-width="2" />
  <text x="4800" y="0" fill="black">Nová-n</text>
  <line x1="48" y1="297" x2="96" y2="297" stroke="green" stroke-width="2" />
  <line x1="48" y1="48" x2="4752" y2="48" stroke="green" stroke-width="2" />
  <line x1="48" y1="297" x2="48" y2="48" stroke="red" stroke-width="2" />
  <text x="4800" y="48" fill="black">menu-n</text>
  <line x1="96" y1="499" x2="144" y2="499" stroke="green" stroke-width="2" />
  <line x1="96" y1="96" x2="4752" y2="96" stroke="green" stroke-width="2" />
  <line x1="96" y1="499" x2="96" y2="96" stroke="red" stroke-width="2" />
  <text x="4800" y="96" fill="black">mluvčí-n</text>
  <line x1="144" y1="831" x2="240" y2="831" stroke="green" stroke-width="2" />
  <line x1="144" y1="168" x2="4704" y2="168" stroke="green" stroke-width="2" />
  <line x1="144" y1="831" x2="144" y2="168" stroke="red" stroke-width="2" />
  <line x1="4704" y1="192" x2="4752" y2="192" stroke="green" stroke-width="2" />
  <line x1="4704" y1="144" x2="4752" y2="144" stroke="green" stroke-width="2" />
  <line x1="4704" y1="192" x2="4704" y2="144" stroke="red" stroke-width="2" />
  <text x="4800" y="144" fill="black">Jaroslav-n</text>
  <text x="4800" y="192" fill="black">František-n</text>
  <line x1="240" y1="1422" x2="288" y2="1422" stroke="green" stroke-width="2" />
  <line x1="240" y1="240" x2="4752" y2="240" stroke="green" stroke-width="2" />
  <line x1="240" y1="1422" x2="240" y2="240" stroke="red" stroke-width="2" />
  <text x="4800" y="240" fill="black">soulad-n</text>
  <line x1="288" y1="2557" x2="336" y2="2557" stroke="green" stroke-width="2" />
  <line x1="288" y1="288" x2="4752" y2="288" stroke="green" stroke-width="2" />
  <line x1="288" y1="2557" x2="288" y2="288" stroke="red" stroke-width="2" />
  <text x="4800" y="288" fill="black">srovnání-n</text>
  <line x1="336" y1="4728" x2="4704" y2="4728" stroke="green" stroke-width="2" />
  <line x1="336" y1="386" x2="432" y2="386" stroke="green" stroke-width="2" />
  <line x1="336" y1="4728" x2="336" y2="386" stroke="red" stroke-width="2" />
  <line x1="432" y1="437" x2="480" y2="437" stroke="green" stroke-width="2" />
  <line x1="432" y1="336" x2="4752" y2="336" stroke="green" stroke-width="2" />
  <line x1="432" y1="437" x2="432" y2="336" stroke="red" stroke-width="2" />
  <text x="4800" y="336" fill="black">rameno-n</text>
  <line x1="480" y1="490" x2="528" y2="490" stroke="green" stroke-width="2" />
  <line x1="480" y1="384" x2="4752" y2="384" stroke="green" stroke-width="2" />
  <line x1="480" y1="490" x2="480" y2="384" stroke="red" stroke-width="2" />
  <text x="4800" y="384" fill="black">Olomouc-n</text>
  <line x1="528" y1="549" x2="576" y2="549" stroke="green" stroke-width="2" />
  <line x1="528" y1="432" x2="4752" y2="432" stroke="green" stroke-width="2" />
  <line x1="528" y1="549" x2="528" y2="432" stroke="red" stroke-width="2" />
  <text x="4800" y="432" fill="black">sleva-n</text>
  <line x1="576" y1="619" x2="624" y2="619" stroke="green" stroke-width="2" />
  <line x1="576" y1="480" x2="4752" y2="480" stroke="green" stroke-width="2" />
  <line x1="576" y1="619" x2="576" y2="480" stroke="red" stroke-width="2" />
  <text x="4800" y="480" fill="black">deník-n</text>
  <line x1="624" y1="710" x2="672" y2="710" stroke="green" stroke-width="2" />
  <line x1="624" y1="528" x2="4752" y2="528" stroke="green" stroke-width="2" />
  <line x1="624" y1="710" x2="624" y2="528" stroke="red" stroke-width="2" />
  <text x="4800" y="528" fill="black">Ježíš-n</text>
  <line x1="672" y1="844" x2="720" y2="844" stroke="green" stroke-width="2" />
  <line x1="672" y1="576" x2="4752" y2="576" stroke="green" stroke-width="2" />
  <line x1="672" y1="844" x2="672" y2="576" stroke="red" stroke-width="2" />
  <text x="4800" y="576" fill="black">představitel-n</text>
  <line x1="720" y1="1064" x2="768" y2="1064" stroke="green" stroke-width="2" />
  <line x1="720" y1="624" x2="4752" y2="624" stroke="green" stroke-width="2" />
  <line x1="720" y1="1064" x2="720" y2="624" stroke="red" stroke-width="2" />
  <text x="4800" y="624" fill="black">výjimka-n</text>
  <line x1="768" y1="1456" x2="816" y2="1456" stroke="green" stroke-width="2" />
  <line x1="768" y1="672" x2="4752" y2="672" stroke="green" stroke-width="2" />
  <line x1="768" y1="1456" x2="768" y2="672" stroke="red" stroke-width="2" />
  <text x="4800" y="672" fill="black">zaměstnavatel-n</text>
  <line x1="816" y1="2193" x2="864" y2="2193" stroke="green" stroke-width="2" />
  <line x1="816" y1="720" x2="4752" y2="720" stroke="green" stroke-width="2" />
  <line x1="816" y1="2193" x2="816" y2="720" stroke="red" stroke-width="2" />
  <text x="4800" y="720" fill="black">vědomí-n</text>
  <line x1="864" y1="3618" x2="912" y2="3618" stroke="green" stroke-width="2" />
  <line x1="864" y1="768" x2="4752" y2="768" stroke="green" stroke-width="2" />
  <line x1="864" y1="3618" x2="864" y2="768" stroke="red" stroke-width="2" />
  <text x="4800" y="768" fill="black">okolnost-n</text>
  <line x1="912" y1="4596" x2="4656" y2="4596" stroke="green" stroke-width="2" />
  <line x1="912" y1="2640" x2="1056" y2="2640" stroke="green" stroke-width="2" />
  <line x1="912" y1="4596" x2="912" y2="2640" stroke="red" stroke-width="2" />
  <line x1="1056" y1="4410" x2="4608" y2="4410" stroke="green" stroke-width="2" />
  <line x1="1056" y1="871" x2="1248" y2="871" stroke="green" stroke-width="2" />
  <line x1="1056" y1="4410" x2="1056" y2="871" stroke="red" stroke-width="2" />
  <line x1="1248" y1="927" x2="1296" y2="927" stroke="green" stroke-width="2" />
  <line x1="1248" y1="816" x2="4752" y2="816" stroke="green" stroke-width="2" />
  <line x1="1248" y1="927" x2="1248" y2="816" stroke="red" stroke-width="2" />
  <text x="4800" y="816" fill="black">displej-n</text>
  <line x1="1296" y1="991" x2="1344" y2="991" stroke="green" stroke-width="2" />
  <line x1="1296" y1="864" x2="4752" y2="864" stroke="green" stroke-width="2" />
  <line x1="1296" y1="991" x2="1296" y2="864" stroke="red" stroke-width="2" />
  <text x="4800" y="864" fill="black">útočník-n</text>
  <line x1="1344" y1="1070" x2="1392" y2="1070" stroke="green" stroke-width="2" />
  <line x1="1344" y1="912" x2="4752" y2="912" stroke="green" stroke-width="2" />
  <line x1="1344" y1="1070" x2="1344" y2="912" stroke="red" stroke-width="2" />
  <text x="4800" y="912" fill="black">vrchol-n</text>
  <line x1="1392" y1="1181" x2="1440" y2="1181" stroke="green" stroke-width="2" />
  <line x1="1392" y1="960" x2="4752" y2="960" stroke="green" stroke-width="2" />
  <line x1="1392" y1="1181" x2="1392" y2="960" stroke="red" stroke-width="2" />
  <text x="4800" y="960" fill="black">trend-n</text>
  <line x1="1440" y1="1354" x2="1488" y2="1354" stroke="green" stroke-width="2" />
  <line x1="1440" y1="1008" x2="4752" y2="1008" stroke="green" stroke-width="2" />
  <line x1="1440" y1="1354" x2="1440" y2="1008" stroke="red" stroke-width="2" />
  <text x="4800" y="1008" fill="black">výhra-n</text>
  <line x1="1488" y1="1586" x2="1968" y2="1586" stroke="green" stroke-width="2" />
  <line x1="1488" y1="1122" x2="4320" y2="1122" stroke="green" stroke-width="2" />
  <line x1="1488" y1="1586" x2="1488" y2="1122" stroke="red" stroke-width="2" />
  <line x1="4320" y1="1189" x2="4368" y2="1189" stroke="green" stroke-width="2" />
  <line x1="4320" y1="1056" x2="4752" y2="1056" stroke="green" stroke-width="2" />
  <line x1="4320" y1="1189" x2="4320" y2="1056" stroke="red" stroke-width="2" />
  <text x="4800" y="1056" fill="black">hmotnost-n</text>
  <line x1="4368" y1="1251" x2="4464" y2="1251" stroke="green" stroke-width="2" />
  <line x1="4368" y1="1128" x2="4704" y2="1128" stroke="green" stroke-width="2" />
  <line x1="4368" y1="1251" x2="4368" y2="1128" stroke="red" stroke-width="2" />
  <line x1="4704" y1="1152" x2="4752" y2="1152" stroke="green" stroke-width="2" />
  <line x1="4704" y1="1104" x2="4752" y2="1104" stroke="green" stroke-width="2" />
  <line x1="4704" y1="1152" x2="4704" y2="1104" stroke="red" stroke-width="2" />
  <text x="4800" y="1104" fill="black">přítomnost-n</text>
  <text x="4800" y="1152" fill="black">postavení-n</text>
  <line x1="4464" y1="1302" x2="4512" y2="1302" stroke="green" stroke-width="2" />
  <line x1="4464" y1="1200" x2="4752" y2="1200" stroke="green" stroke-width="2" />
  <line x1="4464" y1="1302" x2="4464" y2="1200" stroke="red" stroke-width="2" />
  <text x="4800" y="1200" fill="black">poloha-n</text>
  <line x1="4512" y1="1356" x2="4560" y2="1356" stroke="green" stroke-width="2" />
  <line x1="4512" y1="1248" x2="4752" y2="1248" stroke="green" stroke-width="2" />
  <line x1="4512" y1="1356" x2="4512" y2="1248" stroke="red" stroke-width="2" />
  <text x="4800" y="1248" fill="black">umístění-n</text>
  <line x1="4560" y1="1416" x2="4608" y2="1416" stroke="green" stroke-width="2" />
  <line x1="4560" y1="1296" x2="4752" y2="1296" stroke="green" stroke-width="2" />
  <line x1="4560" y1="1416" x2="4560" y2="1296" stroke="red" stroke-width="2" />
  <text x="4800" y="1296" fill="black">výstup-n</text>
  <line x1="4608" y1="1464" x2="4704" y2="1464" stroke="green" stroke-width="2" />
  <line x1="4608" y1="1368" x2="4704" y2="1368" stroke="green" stroke-width="2" />
  <line x1="4608" y1="1464" x2="4608" y2="1368" stroke="red" stroke-width="2" />
  <line x1="4704" y1="1392" x2="4752" y2="1392" stroke="green" stroke-width="2" />
  <line x1="4704" y1="1344" x2="4752" y2="1344" stroke="green" stroke-width="2" />
  <line x1="4704" y1="1392" x2="4704" y2="1344" stroke="red" stroke-width="2" />
  <text x="4800" y="1344" fill="black">seminář-n</text>
  <text x="4800" y="1392" fill="black">přednáška-n</text>
  <line x1="4704" y1="1488" x2="4752" y2="1488" stroke="green" stroke-width="2" />
  <line x1="4704" y1="1440" x2="4752" y2="1440" stroke="green" stroke-width="2" />
  <line x1="4704" y1="1488" x2="4704" y2="1440" stroke="red" stroke-width="2" />
  <text x="4800" y="1440" fill="black">instalace-n</text>
  <text x="4800" y="1488" fill="black">měření-n</text>
  <line x1="1968" y1="1636" x2="2016" y2="1636" stroke="green" stroke-width="2" />
  <line x1="1968" y1="1536" x2="4752" y2="1536" stroke="green" stroke-width="2" />
  <line x1="1968" y1="1636" x2="1968" y2="1536" stroke="red" stroke-width="2" />
  <text x="4800" y="1536" fill="black">kód-n</text>
  <line x1="2016" y1="1689" x2="2064" y2="1689" stroke="green" stroke-width="2" />
  <line x1="2016" y1="1584" x2="4752" y2="1584" stroke="green" stroke-width="2" />
  <line x1="2016" y1="1689" x2="2016" y2="1584" stroke="red" stroke-width="2" />
  <text x="4800" y="1584" fill="black">patro-n</text>
  <line x1="2064" y1="1746" x2="2112" y2="1746" stroke="green" stroke-width="2" />
  <line x1="2064" y1="1632" x2="4752" y2="1632" stroke="green" stroke-width="2" />
  <line x1="2064" y1="1746" x2="2064" y2="1632" stroke="red" stroke-width="2" />
  <text x="4800" y="1632" fill="black">nehoda-n</text>
  <line x1="2112" y1="1812" x2="2160" y2="1812" stroke="green" stroke-width="2" />
  <line x1="2112" y1="1680" x2="4752" y2="1680" stroke="green" stroke-width="2" />
  <line x1="2112" y1="1812" x2="2112" y2="1680" stroke="red" stroke-width="2" />
  <text x="4800" y="1680" fill="black">podlaha-n</text>
  <line x1="2160" y1="1897" x2="2208" y2="1897" stroke="green" stroke-width="2" />
  <line x1="2160" y1="1728" x2="4752" y2="1728" stroke="green" stroke-width="2" />
  <line x1="2160" y1="1897" x2="2160" y2="1728" stroke="red" stroke-width="2" />
  <text x="4800" y="1728" fill="black">dárek-n</text>
  <line x1="2208" y1="2018" x2="2256" y2="2018" stroke="green" stroke-width="2" />
  <line x1="2208" y1="1776" x2="4752" y2="1776" stroke="green" stroke-width="2" />
  <line x1="2208" y1="2018" x2="2208" y2="1776" stroke="red" stroke-width="2" />
  <text x="4800" y="1776" fill="black">krása-n</text>
  <line x1="2256" y1="2213" x2="2304" y2="2213" stroke="green" stroke-width="2" />
  <line x1="2256" y1="1824" x2="4752" y2="1824" stroke="green" stroke-width="2" />
  <line x1="2256" y1="2213" x2="2256" y2="1824" stroke="red" stroke-width="2" />
  <text x="4800" y="1824" fill="black">rána-n</text>
  <line x1="2304" y1="2555" x2="2352" y2="2555" stroke="green" stroke-width="2" />
  <line x1="2304" y1="1872" x2="4752" y2="1872" stroke="green" stroke-width="2" />
  <line x1="2304" y1="2555" x2="2304" y2="1872" stroke="red" stroke-width="2" />
  <text x="4800" y="1872" fill="black">starost-n</text>
  <line x1="2352" y1="3191" x2="2400" y2="3191" stroke="green" stroke-width="2" />
  <line x1="2352" y1="1920" x2="4752" y2="1920" stroke="green" stroke-width="2" />
  <line x1="2352" y1="3191" x2="2352" y2="1920" stroke="red" stroke-width="2" />
  <text x="4800" y="1920" fill="black">vůle-n</text>
  <line x1="2400" y1="4260" x2="4656" y2="4260" stroke="green" stroke-width="2" />
  <line x1="2400" y1="2123" x2="2544" y2="2123" stroke="green" stroke-width="2" />
  <line x1="2400" y1="4260" x2="2400" y2="2123" stroke="red" stroke-width="2" />
  <line x1="2544" y1="2279" x2="2592" y2="2279" stroke="green" stroke-width="2" />
  <line x1="2544" y1="1968" x2="4752" y2="1968" stroke="green" stroke-width="2" />
  <line x1="2544" y1="2279" x2="2544" y2="1968" stroke="red" stroke-width="2" />
  <text x="4800" y="1968" fill="black">dějiny-n</text>
  <line x1="2592" y1="2543" x2="2640" y2="2543" stroke="green" stroke-width="2" />
  <line x1="2592" y1="2016" x2="4752" y2="2016" stroke="green" stroke-width="2" />
  <line x1="2592" y1="2543" x2="2592" y2="2016" stroke="red" stroke-width="2" />
  <text x="4800" y="2016" fill="black">lid-n</text>
  <line x1="2640" y1="2975" x2="3504" y2="2975" stroke="green" stroke-width="2" />
  <line x1="2640" y1="2111" x2="3936" y2="2111" stroke="green" stroke-width="2" />
  <line x1="2640" y1="2975" x2="2640" y2="2111" stroke="red" stroke-width="2" />
  <line x1="3936" y1="2159" x2="3984" y2="2159" stroke="green" stroke-width="2" />
  <line x1="3936" y1="2064" x2="4752" y2="2064" stroke="green" stroke-width="2" />
  <line x1="3936" y1="2159" x2="3936" y2="2064" stroke="red" stroke-width="2" />
  <text x="4800" y="2064" fill="black">porod-n</text>
  <line x1="3984" y1="2207" x2="4032" y2="2207" stroke="green" stroke-width="2" />
  <line x1="3984" y1="2112" x2="4752" y2="2112" stroke="green" stroke-width="2" />
  <line x1="3984" y1="2207" x2="3984" y2="2112" stroke="red" stroke-width="2" />
  <text x="4800" y="2112" fill="black">literatura-n</text>
  <line x1="4032" y1="2255" x2="4080" y2="2255" stroke="green" stroke-width="2" />
  <line x1="4032" y1="2160" x2="4752" y2="2160" stroke="green" stroke-width="2" />
  <line x1="4032" y1="2255" x2="4032" y2="2160" stroke="red" stroke-width="2" />
  <text x="4800" y="2160" fill="black">vzdělávání-n</text>
  <line x1="4080" y1="2303" x2="4128" y2="2303" stroke="green" stroke-width="2" />
  <line x1="4080" y1="2208" x2="4752" y2="2208" stroke="green" stroke-width="2" />
  <line x1="4080" y1="2303" x2="4080" y2="2208" stroke="red" stroke-width="2" />
  <text x="4800" y="2208" fill="black">parlament-n</text>
  <line x1="4128" y1="2351" x2="4176" y2="2351" stroke="green" stroke-width="2" />
  <line x1="4128" y1="2256" x2="4752" y2="2256" stroke="green" stroke-width="2" />
  <line x1="4128" y1="2351" x2="4128" y2="2256" stroke="red" stroke-width="2" />
  <text x="4800" y="2256" fill="black">standard-n</text>
  <line x1="4176" y1="2399" x2="4224" y2="2399" stroke="green" stroke-width="2" />
  <line x1="4176" y1="2304" x2="4752" y2="2304" stroke="green" stroke-width="2" />
  <line x1="4176" y1="2399" x2="4176" y2="2304" stroke="red" stroke-width="2" />
  <text x="4800" y="2304" fill="black">kanál-n</text>
  <line x1="4224" y1="2447" x2="4272" y2="2447" stroke="green" stroke-width="2" />
  <line x1="4224" y1="2352" x2="4752" y2="2352" stroke="green" stroke-width="2" />
  <line x1="4224" y1="2447" x2="4224" y2="2352" stroke="red" stroke-width="2" />
  <text x="4800" y="2352" fill="black">plyn-n</text>
  <line x1="4272" y1="2495" x2="4320" y2="2495" stroke="green" stroke-width="2" />
  <line x1="4272" y1="2400" x2="4752" y2="2400" stroke="green" stroke-width="2" />
  <line x1="4272" y1="2495" x2="4272" y2="2400" stroke="red" stroke-width="2" />
  <text x="4800" y="2400" fill="black">domácnost-n</text>
  <line x1="4320" y1="2543" x2="4368" y2="2543" stroke="green" stroke-width="2" />
  <line x1="4320" y1="2448" x2="4752" y2="2448" stroke="green" stroke-width="2" />
  <line x1="4320" y1="2543" x2="4320" y2="2448" stroke="red" stroke-width="2" />
  <text x="4800" y="2448" fill="black">bydlení-n</text>
  <line x1="4368" y1="2591" x2="4416" y2="2591" stroke="green" stroke-width="2" />
  <line x1="4368" y1="2496" x2="4752" y2="2496" stroke="green" stroke-width="2" />
  <line x1="4368" y1="2591" x2="4368" y2="2496" stroke="red" stroke-width="2" />
  <text x="4800" y="2496" fill="black">Amerika-n</text>
  <line x1="4416" y1="2639" x2="4464" y2="2639" stroke="green" stroke-width="2" />
  <line x1="4416" y1="2544" x2="4752" y2="2544" stroke="green" stroke-width="2" />
  <line x1="4416" y1="2639" x2="4416" y2="2544" stroke="red" stroke-width="2" />
  <text x="4800" y="2544" fill="black">konkurence-n</text>
  <line x1="4464" y1="2686" x2="4512" y2="2686" stroke="green" stroke-width="2" />
  <line x1="4464" y1="2592" x2="4752" y2="2592" stroke="green" stroke-width="2" />
  <line x1="4464" y1="2686" x2="4464" y2="2592" stroke="red" stroke-width="2" />
  <text x="4800" y="2592" fill="black">alkohol-n</text>
  <line x1="4512" y1="2733" x2="4560" y2="2733" stroke="green" stroke-width="2" />
  <line x1="4512" y1="2640" x2="4752" y2="2640" stroke="green" stroke-width="2" />
  <line x1="4512" y1="2733" x2="4512" y2="2640" stroke="red" stroke-width="2" />
  <text x="4800" y="2640" fill="black">mozek-n</text>
  <line x1="4560" y1="2778" x2="4608" y2="2778" stroke="green" stroke-width="2" />
  <line x1="4560" y1="2688" x2="4752" y2="2688" stroke="green" stroke-width="2" />
  <line x1="4560" y1="2778" x2="4560" y2="2688" stroke="red" stroke-width="2" />
  <text x="4800" y="2688" fill="black">nálada-n</text>
  <line x1="4608" y1="2820" x2="4656" y2="2820" stroke="green" stroke-width="2" />
  <line x1="4608" y1="2736" x2="4752" y2="2736" stroke="green" stroke-width="2" />
  <line x1="4608" y1="2820" x2="4608" y2="2736" stroke="red" stroke-width="2" />
  <text x="4800" y="2736" fill="black">zub-n</text>
  <line x1="4656" y1="2856" x2="4704" y2="2856" stroke="green" stroke-width="2" />
  <line x1="4656" y1="2784" x2="4752" y2="2784" stroke="green" stroke-width="2" />
  <line x1="4656" y1="2856" x2="4656" y2="2784" stroke="red" stroke-width="2" />
  <text x="4800" y="2784" fill="black">důl-n</text>
  <line x1="4704" y1="2880" x2="4752" y2="2880" stroke="green" stroke-width="2" />
  <line x1="4704" y1="2832" x2="4752" y2="2832" stroke="green" stroke-width="2" />
  <line x1="4704" y1="2880" x2="4704" y2="2832" stroke="red" stroke-width="2" />
  <text x="4800" y="2832" fill="black">krk-n</text>
  <text x="4800" y="2880" fill="black">záda-n</text>
  <line x1="3504" y1="3023" x2="3552" y2="3023" stroke="green" stroke-width="2" />
  <line x1="3504" y1="2928" x2="4752" y2="2928" stroke="green" stroke-width="2" />
  <line x1="3504" y1="3023" x2="3504" y2="2928" stroke="red" stroke-width="2" />
  <text x="4800" y="2928" fill="black">kočka-n</text>
  <line x1="3552" y1="3071" x2="3600" y2="3071" stroke="green" stroke-width="2" />
  <line x1="3552" y1="2976" x2="4752" y2="2976" stroke="green" stroke-width="2" />
  <line x1="3552" y1="3071" x2="3552" y2="2976" stroke="red" stroke-width="2" />
  <text x="4800" y="2976" fill="black">knížka-n</text>
  <line x1="3600" y1="3119" x2="3648" y2="3119" stroke="green" stroke-width="2" />
  <line x1="3600" y1="3024" x2="4752" y2="3024" stroke="green" stroke-width="2" />
  <line x1="3600" y1="3119" x2="3600" y2="3024" stroke="red" stroke-width="2" />
  <text x="4800" y="3024" fill="black">sestava-n</text>
  <line x1="3648" y1="3167" x2="3696" y2="3167" stroke="green" stroke-width="2" />
  <line x1="3648" y1="3072" x2="4752" y2="3072" stroke="green" stroke-width="2" />
  <line x1="3648" y1="3167" x2="3648" y2="3072" stroke="red" stroke-width="2" />
  <text x="4800" y="3072" fill="black">novinář-n</text>
  <line x1="3696" y1="3215" x2="3744" y2="3215" stroke="green" stroke-width="2" />
  <line x1="3696" y1="3120" x2="4752" y2="3120" stroke="green" stroke-width="2" />
  <line x1="3696" y1="3215" x2="3696" y2="3120" stroke="red" stroke-width="2" />
  <text x="4800" y="3120" fill="black">hrdina-n</text>
  <line x1="3744" y1="3263" x2="3792" y2="3263" stroke="green" stroke-width="2" />
  <line x1="3744" y1="3168" x2="4752" y2="3168" stroke="green" stroke-width="2" />
  <line x1="3744" y1="3263" x2="3744" y2="3168" stroke="red" stroke-width="2" />
  <text x="4800" y="3168" fill="black">podnikatel-n</text>
  <line x1="3792" y1="3311" x2="3840" y2="3311" stroke="green" stroke-width="2" />
  <line x1="3792" y1="3216" x2="4752" y2="3216" stroke="green" stroke-width="2" />
  <line x1="3792" y1="3311" x2="3792" y2="3216" stroke="red" stroke-width="2" />
  <text x="4800" y="3216" fill="black">omezení-n</text>
  <line x1="3840" y1="3359" x2="3888" y2="3359" stroke="green" stroke-width="2" />
  <line x1="3840" y1="3264" x2="4752" y2="3264" stroke="green" stroke-width="2" />
  <line x1="3840" y1="3359" x2="3840" y2="3264" stroke="red" stroke-width="2" />
  <text x="4800" y="3264" fill="black">reforma-n</text>
  <line x1="3888" y1="3407" x2="3936" y2="3407" stroke="green" stroke-width="2" />
  <line x1="3888" y1="3312" x2="4752" y2="3312" stroke="green" stroke-width="2" />
  <line x1="3888" y1="3407" x2="3888" y2="3312" stroke="red" stroke-width="2" />
  <text x="4800" y="3312" fill="black">vyšetření-n</text>
  <line x1="3936" y1="3455" x2="3984" y2="3455" stroke="green" stroke-width="2" />
  <line x1="3936" y1="3360" x2="4752" y2="3360" stroke="green" stroke-width="2" />
  <line x1="3936" y1="3455" x2="3936" y2="3360" stroke="red" stroke-width="2" />
  <text x="4800" y="3360" fill="black">strategie-n</text>
  <line x1="3984" y1="3503" x2="4032" y2="3503" stroke="green" stroke-width="2" />
  <line x1="3984" y1="3408" x2="4752" y2="3408" stroke="green" stroke-width="2" />
  <line x1="3984" y1="3503" x2="3984" y2="3408" stroke="red" stroke-width="2" />
  <text x="4800" y="3408" fill="black">sbírka-n</text>
  <line x1="4032" y1="3551" x2="4080" y2="3551" stroke="green" stroke-width="2" />
  <line x1="4032" y1="3456" x2="4752" y2="3456" stroke="green" stroke-width="2" />
  <line x1="4032" y1="3551" x2="4032" y2="3456" stroke="red" stroke-width="2" />
  <text x="4800" y="3456" fill="black">postoj-n</text>
  <line x1="4080" y1="3599" x2="4128" y2="3599" stroke="green" stroke-width="2" />
  <line x1="4080" y1="3504" x2="4752" y2="3504" stroke="green" stroke-width="2" />
  <line x1="4080" y1="3599" x2="4080" y2="3504" stroke="red" stroke-width="2" />
  <text x="4800" y="3504" fill="black">zásah-n</text>
  <line x1="4128" y1="3647" x2="4176" y2="3647" stroke="green" stroke-width="2" />
  <line x1="4128" y1="3552" x2="4752" y2="3552" stroke="green" stroke-width="2" />
  <line x1="4128" y1="3647" x2="4128" y2="3552" stroke="red" stroke-width="2" />
  <text x="4800" y="3552" fill="black">znak-n</text>
  <line x1="4176" y1="3695" x2="4224" y2="3695" stroke="green" stroke-width="2" />
  <line x1="4176" y1="3600" x2="4752" y2="3600" stroke="green" stroke-width="2" />
  <line x1="4176" y1="3695" x2="4176" y2="3600" stroke="red" stroke-width="2" />
  <text x="4800" y="3600" fill="black">signál-n</text>
  <line x1="4224" y1="3743" x2="4272" y2="3743" stroke="green" stroke-width="2" />
  <line x1="4224" y1="3648" x2="4752" y2="3648" stroke="green" stroke-width="2" />
  <line x1="4224" y1="3743" x2="4224" y2="3648" stroke="red" stroke-width="2" />
  <text x="4800" y="3648" fill="black">jezdec-n</text>
  <line x1="4272" y1="3791" x2="4320" y2="3791" stroke="green" stroke-width="2" />
  <line x1="4272" y1="3696" x2="4752" y2="3696" stroke="green" stroke-width="2" />
  <line x1="4272" y1="3791" x2="4272" y2="3696" stroke="red" stroke-width="2" />
  <text x="4800" y="3696" fill="black">hala-n</text>
  <line x1="4320" y1="3839" x2="4368" y2="3839" stroke="green" stroke-width="2" />
  <line x1="4320" y1="3744" x2="4752" y2="3744" stroke="green" stroke-width="2" />
  <line x1="4320" y1="3839" x2="4320" y2="3744" stroke="red" stroke-width="2" />
  <text x="4800" y="3744" fill="black">kampaň-n</text>
  <line x1="4368" y1="3887" x2="4416" y2="3887" stroke="green" stroke-width="2" />
  <line x1="4368" y1="3792" x2="4752" y2="3792" stroke="green" stroke-width="2" />
  <line x1="4368" y1="3887" x2="4368" y2="3792" stroke="red" stroke-width="2" />
  <text x="4800" y="3792" fill="black">software-n</text>
  <line x1="4416" y1="3935" x2="4464" y2="3935" stroke="green" stroke-width="2" />
  <line x1="4416" y1="3840" x2="4752" y2="3840" stroke="green" stroke-width="2" />
  <line x1="4416" y1="3935" x2="4416" y2="3840" stroke="red" stroke-width="2" />
  <text x="4800" y="3840" fill="black">kamera-n</text>
  <line x1="4464" y1="3982" x2="4512" y2="3982" stroke="green" stroke-width="2" />
  <line x1="4464" y1="3888" x2="4752" y2="3888" stroke="green" stroke-width="2" />
  <line x1="4464" y1="3982" x2="4464" y2="3888" stroke="red" stroke-width="2" />
  <text x="4800" y="3888" fill="black">napětí-n</text>
  <line x1="4512" y1="4029" x2="4560" y2="4029" stroke="green" stroke-width="2" />
  <line x1="4512" y1="3936" x2="4752" y2="3936" stroke="green" stroke-width="2" />
  <line x1="4512" y1="4029" x2="4512" y2="3936" stroke="red" stroke-width="2" />
  <text x="4800" y="3936" fill="black">olej-n</text>
  <line x1="4560" y1="4074" x2="4608" y2="4074" stroke="green" stroke-width="2" />
  <line x1="4560" y1="3984" x2="4752" y2="3984" stroke="green" stroke-width="2" />
  <line x1="4560" y1="4074" x2="4560" y2="3984" stroke="red" stroke-width="2" />
  <text x="4800" y="3984" fill="black">mléko-n</text>
  <line x1="4608" y1="4116" x2="4656" y2="4116" stroke="green" stroke-width="2" />
  <line x1="4608" y1="4032" x2="4752" y2="4032" stroke="green" stroke-width="2" />
  <line x1="4608" y1="4116" x2="4608" y2="4032" stroke="red" stroke-width="2" />
  <text x="4800" y="4032" fill="black">bazén-n</text>
  <line x1="4656" y1="4152" x2="4704" y2="4152" stroke="green" stroke-width="2" />
  <line x1="4656" y1="4080" x2="4752" y2="4080" stroke="green" stroke-width="2" />
  <line x1="4656" y1="4152" x2="4656" y2="4080" stroke="red" stroke-width="2" />
  <text x="4800" y="4080" fill="black">dřevo-n</text>
  <line x1="4704" y1="4176" x2="4752" y2="4176" stroke="green" stroke-width="2" />
  <line x1="4704" y1="4128" x2="4752" y2="4128" stroke="green" stroke-width="2" />
  <line x1="4704" y1="4176" x2="4704" y2="4128" stroke="red" stroke-width="2" />
  <text x="4800" y="4128" fill="black">oblečení-n</text>
  <text x="4800" y="4176" fill="black">vítr-n</text>
  <line x1="4656" y1="4296" x2="4704" y2="4296" stroke="green" stroke-width="2" />
  <line x1="4656" y1="4224" x2="4752" y2="4224" stroke="green" stroke-width="2" />
  <line x1="4656" y1="4296" x2="4656" y2="4224" stroke="red" stroke-width="2" />
  <text x="4800" y="4224" fill="black">měst-n</text>
  <line x1="4704" y1="4320" x2="4752" y2="4320" stroke="green" stroke-width="2" />
  <line x1="4704" y1="4272" x2="4752" y2="4272" stroke="green" stroke-width="2" />
  <line x1="4704" y1="4320" x2="4704" y2="4272" stroke="red" stroke-width="2" />
  <text x="4800" y="4272" fill="black">hladina-n</text>
  <text x="4800" y="4320" fill="black">pohár-n</text>
  <line x1="4608" y1="4452" x2="4656" y2="4452" stroke="green" stroke-width="2" />
  <line x1="4608" y1="4368" x2="4752" y2="4368" stroke="green" stroke-width="2" />
  <line x1="4608" y1="4452" x2="4608" y2="4368" stroke="red" stroke-width="2" />
  <text x="4800" y="4368" fill="black">předpoklad-n</text>
  <line x1="4656" y1="4488" x2="4704" y2="4488" stroke="green" stroke-width="2" />
  <line x1="4656" y1="4416" x2="4752" y2="4416" stroke="green" stroke-width="2" />
  <line x1="4656" y1="4488" x2="4656" y2="4416" stroke="red" stroke-width="2" />
  <text x="4800" y="4416" fill="black">úsek-n</text>
  <line x1="4704" y1="4512" x2="4752" y2="4512" stroke="green" stroke-width="2" />
  <line x1="4704" y1="4464" x2="4752" y2="4464" stroke="green" stroke-width="2" />
  <line x1="4704" y1="4512" x2="4704" y2="4464" stroke="red" stroke-width="2" />
  <text x="4800" y="4464" fill="black">přechod-n</text>
  <text x="4800" y="4512" fill="black">působení-n</text>
  <line x1="4656" y1="4632" x2="4704" y2="4632" stroke="green" stroke-width="2" />
  <line x1="4656" y1="4560" x2="4752" y2="4560" stroke="green" stroke-width="2" />
  <line x1="4656" y1="4632" x2="4656" y2="4560" stroke="red" stroke-width="2" />
  <text x="4800" y="4560" fill="black">Klaus-n</text>
  <line x1="4704" y1="4656" x2="4752" y2="4656" stroke="green" stroke-width="2" />
  <line x1="4704" y1="4608" x2="4752" y2="4608" stroke="green" stroke-width="2" />
  <line x1="4704" y1="4656" x2="4704" y2="4608" stroke="red" stroke-width="2" />
  <text x="4800" y="4608" fill="black">oběd-n</text>
  <text x="4800" y="4656" fill="black">ráno-n</text>
  <line x1="4704" y1="4752" x2="4752" y2="4752" stroke="green" stroke-width="2" />
  <line x1="4704" y1="4704" x2="4752" y2="4704" stroke="green" stroke-width="2" />
  <line x1="4704" y1="4752" x2="4704" y2="4704" stroke="red" stroke-width="2" />
  <text x="4800" y="4704" fill="black">mistrovství-n</text>
  <text x="4800" y="4752" fill="black">míč-n</text>
</svg>
