<svg width="4800" height="4800">
  <line x1="0" y1="3620" x2="96" y2="3620" stroke="green" stroke-width="2" />
  <line x1="0" y1="24" x2="4704" y2="24" stroke="green" stroke-width="2" />
  <line x1="0" y1="3620" x2="0" y2="24" stroke="red" stroke-width="2" />
  <line x1="4704" y1="48" x2="4752" y2="48" stroke="green" stroke-width="2" />
  <line x1="4704" y1="0" x2="4752" y2="0" stroke="green" stroke-width="2" />
  <line x1="4704" y1="48" x2="4704" y2="0" stroke="red" stroke-width="2" />
  <text x="4800" y="0" fill="black">bohužel-a</text>
  <text x="4800" y="48" fill="black">možná-a</text>
  <line x1="96" y1="4728" x2="4704" y2="4728" stroke="green" stroke-width="2" />
  <line x1="96" y1="2512" x2="192" y2="2512" stroke="green" stroke-width="2" />
  <line x1="96" y1="4728" x2="96" y2="2512" stroke="red" stroke-width="2" />
  <line x1="192" y1="4462" x2="4512" y2="4462" stroke="green" stroke-width="2" />
  <line x1="192" y1="562" x2="480" y2="562" stroke="green" stroke-width="2" />
  <line x1="192" y1="4462" x2="192" y2="562" stroke="red" stroke-width="2" />
  <line x1="480" y1="1029" x2="528" y2="1029" stroke="green" stroke-width="2" />
  <line x1="480" y1="96" x2="4752" y2="96" stroke="green" stroke-width="2" />
  <line x1="480" y1="1029" x2="480" y2="96" stroke="red" stroke-width="2" />
  <text x="4800" y="96" fill="black">podobně-a</text>
  <line x1="528" y1="1866" x2="960" y2="1866" stroke="green" stroke-width="2" />
  <line x1="528" y1="191" x2="4368" y2="191" stroke="green" stroke-width="2" />
  <line x1="528" y1="1866" x2="528" y2="191" stroke="red" stroke-width="2" />
  <line x1="4368" y1="239" x2="4416" y2="239" stroke="green" stroke-width="2" />
  <line x1="4368" y1="144" x2="4752" y2="144" stroke="green" stroke-width="2" />
  <line x1="4368" y1="239" x2="4368" y2="144" stroke="red" stroke-width="2" />
  <text x="4800" y="144" fill="black">dodnes-a</text>
  <line x1="4416" y1="287" x2="4464" y2="287" stroke="green" stroke-width="2" />
  <line x1="4416" y1="192" x2="4752" y2="192" stroke="green" stroke-width="2" />
  <line x1="4416" y1="287" x2="4416" y2="192" stroke="red" stroke-width="2" />
  <text x="4800" y="192" fill="black">zdarma-a</text>
  <line x1="4464" y1="334" x2="4512" y2="334" stroke="green" stroke-width="2" />
  <line x1="4464" y1="240" x2="4752" y2="240" stroke="green" stroke-width="2" />
  <line x1="4464" y1="334" x2="4464" y2="240" stroke="red" stroke-width="2" />
  <text x="4800" y="240" fill="black">jinde-a</text>
  <line x1="4512" y1="381" x2="4560" y2="381" stroke="green" stroke-width="2" />
  <line x1="4512" y1="288" x2="4752" y2="288" stroke="green" stroke-width="2" />
  <line x1="4512" y1="381" x2="4512" y2="288" stroke="red" stroke-width="2" />
  <text x="4800" y="288" fill="black">ven-a</text>
  <line x1="4560" y1="426" x2="4608" y2="426" stroke="green" stroke-width="2" />
  <line x1="4560" y1="336" x2="4752" y2="336" stroke="green" stroke-width="2" />
  <line x1="4560" y1="426" x2="4560" y2="336" stroke="red" stroke-width="2" />
  <text x="4800" y="336" fill="black">špatně-a</text>
  <line x1="4608" y1="468" x2="4656" y2="468" stroke="green" stroke-width="2" />
  <line x1="4608" y1="384" x2="4752" y2="384" stroke="green" stroke-width="2" />
  <line x1="4608" y1="468" x2="4608" y2="384" stroke="red" stroke-width="2" />
  <text x="4800" y="384" fill="black">domů-a</text>
  <line x1="4656" y1="504" x2="4704" y2="504" stroke="green" stroke-width="2" />
  <line x1="4656" y1="432" x2="4752" y2="432" stroke="green" stroke-width="2" />
  <line x1="4656" y1="504" x2="4656" y2="432" stroke="red" stroke-width="2" />
  <text x="4800" y="432" fill="black">venku-a</text>
  <line x1="4704" y1="528" x2="4752" y2="528" stroke="green" stroke-width="2" />
  <line x1="4704" y1="480" x2="4752" y2="480" stroke="green" stroke-width="2" />
  <line x1="4704" y1="528" x2="4704" y2="480" stroke="red" stroke-width="2" />
  <text x="4800" y="480" fill="black">denně-a</text>
  <text x="4800" y="528" fill="black">dohromady-a</text>
  <line x1="960" y1="3157" x2="1008" y2="3157" stroke="green" stroke-width="2" />
  <line x1="960" y1="576" x2="4752" y2="576" stroke="green" stroke-width="2" />
  <line x1="960" y1="3157" x2="960" y2="576" stroke="red" stroke-width="2" />
  <text x="4800" y="576" fill="black">předtím-a</text>
  <line x1="1008" y1="3961" x2="3984" y2="3961" stroke="green" stroke-width="2" />
  <line x1="1008" y1="2352" x2="1824" y2="2352" stroke="green" stroke-width="2" />
  <line x1="1008" y1="3961" x2="1008" y2="2352" stroke="red" stroke-width="2" />
  <line x1="1824" y1="3258" x2="4320" y2="3258" stroke="green" stroke-width="2" />
  <line x1="1824" y1="1446" x2="2304" y2="1446" stroke="green" stroke-width="2" />
  <line x1="1824" y1="3258" x2="1824" y2="1446" stroke="red" stroke-width="2" />
  <line x1="2304" y1="2269" x2="2352" y2="2269" stroke="green" stroke-width="2" />
  <line x1="2304" y1="624" x2="4752" y2="624" stroke="green" stroke-width="2" />
  <line x1="2304" y1="2269" x2="2304" y2="624" stroke="red" stroke-width="2" />
  <text x="4800" y="624" fill="black">vážně-a</text>
  <line x1="2352" y1="2721" x2="4320" y2="2721" stroke="green" stroke-width="2" />
  <line x1="2352" y1="1818" x2="2832" y2="1818" stroke="green" stroke-width="2" />
  <line x1="2352" y1="2721" x2="2352" y2="1818" stroke="red" stroke-width="2" />
  <line x1="2832" y1="2532" x2="4656" y2="2532" stroke="green" stroke-width="2" />
  <line x1="2832" y1="1104" x2="2976" y2="1104" stroke="green" stroke-width="2" />
  <line x1="2832" y1="2532" x2="2832" y2="1104" stroke="red" stroke-width="2" />
  <line x1="2976" y1="1536" x2="3024" y2="1536" stroke="green" stroke-width="2" />
  <line x1="2976" y1="672" x2="4752" y2="672" stroke="green" stroke-width="2" />
  <line x1="2976" y1="1536" x2="2976" y2="672" stroke="red" stroke-width="2" />
  <text x="4800" y="672" fill="black">předem-a</text>
  <line x1="3024" y1="2299" x2="4416" y2="2299" stroke="green" stroke-width="2" />
  <line x1="3024" y1="773" x2="3408" y2="773" stroke="green" stroke-width="2" />
  <line x1="3024" y1="2299" x2="3024" y2="773" stroke="red" stroke-width="2" />
  <line x1="3408" y1="826" x2="3456" y2="826" stroke="green" stroke-width="2" />
  <line x1="3408" y1="720" x2="4752" y2="720" stroke="green" stroke-width="2" />
  <line x1="3408" y1="826" x2="3408" y2="720" stroke="red" stroke-width="2" />
  <text x="4800" y="720" fill="black">správně-a</text>
  <line x1="3456" y1="885" x2="3504" y2="885" stroke="green" stroke-width="2" />
  <line x1="3456" y1="768" x2="4752" y2="768" stroke="green" stroke-width="2" />
  <line x1="3456" y1="885" x2="3456" y2="768" stroke="red" stroke-width="2" />
  <text x="4800" y="768" fill="black">kolem-a</text>
  <line x1="3504" y1="954" x2="3552" y2="954" stroke="green" stroke-width="2" />
  <line x1="3504" y1="816" x2="4752" y2="816" stroke="green" stroke-width="2" />
  <line x1="3504" y1="954" x2="3504" y2="816" stroke="red" stroke-width="2" />
  <text x="4800" y="816" fill="black">nadále-a</text>
  <line x1="3552" y1="1045" x2="3600" y2="1045" stroke="green" stroke-width="2" />
  <line x1="3552" y1="864" x2="4752" y2="864" stroke="green" stroke-width="2" />
  <line x1="3552" y1="1045" x2="3552" y2="864" stroke="red" stroke-width="2" />
  <text x="4800" y="864" fill="black">dvakrát-a</text>
  <line x1="3600" y1="1179" x2="3648" y2="1179" stroke="green" stroke-width="2" />
  <line x1="3600" y1="912" x2="4752" y2="912" stroke="green" stroke-width="2" />
  <line x1="3600" y1="1179" x2="3600" y2="912" stroke="red" stroke-width="2" />
  <text x="4800" y="912" fill="black">několikrát-a</text>
  <line x1="3648" y1="1398" x2="3696" y2="1398" stroke="green" stroke-width="2" />
  <line x1="3648" y1="960" x2="4752" y2="960" stroke="green" stroke-width="2" />
  <line x1="3648" y1="1398" x2="3648" y2="960" stroke="red" stroke-width="2" />
  <text x="4800" y="960" fill="black">pravidelně-a</text>
  <line x1="3696" y1="1688" x2="4320" y2="1688" stroke="green" stroke-width="2" />
  <line x1="3696" y1="1109" x2="4176" y2="1109" stroke="green" stroke-width="2" />
  <line x1="3696" y1="1688" x2="3696" y2="1109" stroke="red" stroke-width="2" />
  <line x1="4176" y1="1210" x2="4224" y2="1210" stroke="green" stroke-width="2" />
  <line x1="4176" y1="1008" x2="4752" y2="1008" stroke="green" stroke-width="2" />
  <line x1="4176" y1="1210" x2="4176" y2="1008" stroke="red" stroke-width="2" />
  <text x="4800" y="1008" fill="black">obvykle-a</text>
  <line x1="4224" y1="1364" x2="4272" y2="1364" stroke="green" stroke-width="2" />
  <line x1="4224" y1="1056" x2="4752" y2="1056" stroke="green" stroke-width="2" />
  <line x1="4224" y1="1364" x2="4224" y2="1056" stroke="red" stroke-width="2" />
  <text x="4800" y="1056" fill="black">pravděpodobně-a</text>
  <line x1="4272" y1="1524" x2="4656" y2="1524" stroke="green" stroke-width="2" />
  <line x1="4272" y1="1205" x2="4416" y2="1205" stroke="green" stroke-width="2" />
  <line x1="4272" y1="1524" x2="4272" y2="1205" stroke="red" stroke-width="2" />
  <line x1="4416" y1="1306" x2="4464" y2="1306" stroke="green" stroke-width="2" />
  <line x1="4416" y1="1104" x2="4752" y2="1104" stroke="green" stroke-width="2" />
  <line x1="4416" y1="1306" x2="4416" y2="1104" stroke="red" stroke-width="2" />
  <text x="4800" y="1104" fill="black">postupně-a</text>
  <line x1="4464" y1="1416" x2="4704" y2="1416" stroke="green" stroke-width="2" />
  <line x1="4464" y1="1197" x2="4560" y2="1197" stroke="green" stroke-width="2" />
  <line x1="4464" y1="1416" x2="4464" y2="1197" stroke="red" stroke-width="2" />
  <line x1="4560" y1="1242" x2="4608" y2="1242" stroke="green" stroke-width="2" />
  <line x1="4560" y1="1152" x2="4752" y2="1152" stroke="green" stroke-width="2" />
  <line x1="4560" y1="1242" x2="4560" y2="1152" stroke="red" stroke-width="2" />
  <text x="4800" y="1152" fill="black">jednoduše-a</text>
  <line x1="4608" y1="1284" x2="4656" y2="1284" stroke="green" stroke-width="2" />
  <line x1="4608" y1="1200" x2="4752" y2="1200" stroke="green" stroke-width="2" />
  <line x1="4608" y1="1284" x2="4608" y2="1200" stroke="red" stroke-width="2" />
  <text x="4800" y="1200" fill="black">ihned-a</text>
  <line x1="4656" y1="1320" x2="4704" y2="1320" stroke="green" stroke-width="2" />
  <line x1="4656" y1="1248" x2="4752" y2="1248" stroke="green" stroke-width="2" />
  <line x1="4656" y1="1320" x2="4656" y2="1248" stroke="red" stroke-width="2" />
  <text x="4800" y="1248" fill="black">brzy-a</text>
  <line x1="4704" y1="1344" x2="4752" y2="1344" stroke="green" stroke-width="2" />
  <line x1="4704" y1="1296" x2="4752" y2="1296" stroke="green" stroke-width="2" />
  <line x1="4704" y1="1344" x2="4704" y2="1296" stroke="red" stroke-width="2" />
  <text x="4800" y="1296" fill="black">pomalu-a</text>
  <text x="4800" y="1344" fill="black">okamžitě-a</text>
  <line x1="4704" y1="1440" x2="4752" y2="1440" stroke="green" stroke-width="2" />
  <line x1="4704" y1="1392" x2="4752" y2="1392" stroke="green" stroke-width="2" />
  <line x1="4704" y1="1440" x2="4704" y2="1392" stroke="red" stroke-width="2" />
  <text x="4800" y="1392" fill="black">nejvíce-a</text>
  <text x="4800" y="1440" fill="black">mnoho-a</text>
  <line x1="4656" y1="1560" x2="4704" y2="1560" stroke="green" stroke-width="2" />
  <line x1="4656" y1="1488" x2="4752" y2="1488" stroke="green" stroke-width="2" />
  <line x1="4656" y1="1560" x2="4656" y2="1488" stroke="red" stroke-width="2" />
  <text x="4800" y="1488" fill="black">společně-a</text>
  <line x1="4704" y1="1584" x2="4752" y2="1584" stroke="green" stroke-width="2" />
  <line x1="4704" y1="1536" x2="4752" y2="1536" stroke="green" stroke-width="2" />
  <line x1="4704" y1="1584" x2="4704" y2="1536" stroke="red" stroke-width="2" />
  <text x="4800" y="1536" fill="black">především-a</text>
  <text x="4800" y="1584" fill="black">nově-a</text>
  <line x1="4320" y1="1745" x2="4368" y2="1745" stroke="green" stroke-width="2" />
  <line x1="4320" y1="1632" x2="4752" y2="1632" stroke="green" stroke-width="2" />
  <line x1="4320" y1="1745" x2="4320" y2="1632" stroke="red" stroke-width="2" />
  <text x="4800" y="1632" fill="black">dosud-a</text>
  <line x1="4368" y1="1811" x2="4416" y2="1811" stroke="green" stroke-width="2" />
  <line x1="4368" y1="1680" x2="4752" y2="1680" stroke="green" stroke-width="2" />
  <line x1="4368" y1="1811" x2="4368" y2="1680" stroke="red" stroke-width="2" />
  <text x="4800" y="1680" fill="black">klidně-a</text>
  <line x1="4416" y1="1870" x2="4512" y2="1870" stroke="green" stroke-width="2" />
  <line x1="4416" y1="1752" x2="4704" y2="1752" stroke="green" stroke-width="2" />
  <line x1="4416" y1="1870" x2="4416" y2="1752" stroke="red" stroke-width="2" />
  <line x1="4704" y1="1776" x2="4752" y2="1776" stroke="green" stroke-width="2" />
  <line x1="4704" y1="1728" x2="4752" y2="1728" stroke="green" stroke-width="2" />
  <line x1="4704" y1="1776" x2="4704" y2="1728" stroke="red" stroke-width="2" />
  <text x="4800" y="1728" fill="black">něco-a</text>
  <text x="4800" y="1776" fill="black">tolik-a</text>
  <line x1="4512" y1="1917" x2="4560" y2="1917" stroke="green" stroke-width="2" />
  <line x1="4512" y1="1824" x2="4752" y2="1824" stroke="green" stroke-width="2" />
  <line x1="4512" y1="1917" x2="4512" y2="1824" stroke="red" stroke-width="2" />
  <text x="4800" y="1824" fill="black">prakticky-a</text>
  <line x1="4560" y1="1962" x2="4608" y2="1962" stroke="green" stroke-width="2" />
  <line x1="4560" y1="1872" x2="4752" y2="1872" stroke="green" stroke-width="2" />
  <line x1="4560" y1="1962" x2="4560" y2="1872" stroke="red" stroke-width="2" />
  <text x="4800" y="1872" fill="black">neustále-a</text>
  <line x1="4608" y1="2004" x2="4656" y2="2004" stroke="green" stroke-width="2" />
  <line x1="4608" y1="1920" x2="4752" y2="1920" stroke="green" stroke-width="2" />
  <line x1="4608" y1="2004" x2="4608" y2="1920" stroke="red" stroke-width="2" />
  <text x="4800" y="1920" fill="black">lehko-a</text>
  <line x1="4656" y1="2040" x2="4704" y2="2040" stroke="green" stroke-width="2" />
  <line x1="4656" y1="1968" x2="4752" y2="1968" stroke="green" stroke-width="2" />
  <line x1="4656" y1="2040" x2="4656" y2="1968" stroke="red" stroke-width="2" />
  <text x="4800" y="1968" fill="black">plně-a</text>
  <line x1="4704" y1="2064" x2="4752" y2="2064" stroke="green" stroke-width="2" />
  <line x1="4704" y1="2016" x2="4752" y2="2016" stroke="green" stroke-width="2" />
  <line x1="4704" y1="2064" x2="4704" y2="2016" stroke="red" stroke-width="2" />
  <text x="4800" y="2016" fill="black">výrazně-a</text>
  <text x="4800" y="2064" fill="black">snadno-a</text>
  <line x1="4416" y1="2424" x2="4704" y2="2424" stroke="green" stroke-width="2" />
  <line x1="4416" y1="2175" x2="4512" y2="2175" stroke="green" stroke-width="2" />
  <line x1="4416" y1="2424" x2="4416" y2="2175" stroke="red" stroke-width="2" />
  <line x1="4512" y1="2238" x2="4560" y2="2238" stroke="green" stroke-width="2" />
  <line x1="4512" y1="2112" x2="4752" y2="2112" stroke="green" stroke-width="2" />
  <line x1="4512" y1="2238" x2="4512" y2="2112" stroke="red" stroke-width="2" />
  <text x="4800" y="2112" fill="black">všude-a</text>
  <line x1="4560" y1="2292" x2="4656" y2="2292" stroke="green" stroke-width="2" />
  <line x1="4560" y1="2184" x2="4704" y2="2184" stroke="green" stroke-width="2" />
  <line x1="4560" y1="2292" x2="4560" y2="2184" stroke="red" stroke-width="2" />
  <line x1="4704" y1="2208" x2="4752" y2="2208" stroke="green" stroke-width="2" />
  <line x1="4704" y1="2160" x2="4752" y2="2160" stroke="green" stroke-width="2" />
  <line x1="4704" y1="2208" x2="4704" y2="2160" stroke="red" stroke-width="2" />
  <text x="4800" y="2160" fill="black">najednou-a</text>
  <text x="4800" y="2208" fill="black">zítra-a</text>
  <line x1="4656" y1="2328" x2="4704" y2="2328" stroke="green" stroke-width="2" />
  <line x1="4656" y1="2256" x2="4752" y2="2256" stroke="green" stroke-width="2" />
  <line x1="4656" y1="2328" x2="4656" y2="2256" stroke="red" stroke-width="2" />
  <text x="4800" y="2256" fill="black">takto-a</text>
  <line x1="4704" y1="2352" x2="4752" y2="2352" stroke="green" stroke-width="2" />
  <line x1="4704" y1="2304" x2="4752" y2="2304" stroke="green" stroke-width="2" />
  <line x1="4704" y1="2352" x2="4704" y2="2304" stroke="red" stroke-width="2" />
  <text x="4800" y="2304" fill="black">ráno-a</text>
  <text x="4800" y="2352" fill="black">večer-a</text>
  <line x1="4704" y1="2448" x2="4752" y2="2448" stroke="green" stroke-width="2" />
  <line x1="4704" y1="2400" x2="4752" y2="2400" stroke="green" stroke-width="2" />
  <line x1="4704" y1="2448" x2="4704" y2="2400" stroke="red" stroke-width="2" />
  <text x="4800" y="2400" fill="black">těžko-a</text>
  <text x="4800" y="2448" fill="black">nikde-a</text>
  <line x1="4656" y1="2568" x2="4704" y2="2568" stroke="green" stroke-width="2" />
  <line x1="4656" y1="2496" x2="4752" y2="2496" stroke="green" stroke-width="2" />
  <line x1="4656" y1="2568" x2="4656" y2="2496" stroke="red" stroke-width="2" />
  <text x="4800" y="2496" fill="black">nic-a</text>
  <line x1="4704" y1="2592" x2="4752" y2="2592" stroke="green" stroke-width="2" />
  <line x1="4704" y1="2544" x2="4752" y2="2544" stroke="green" stroke-width="2" />
  <line x1="4704" y1="2592" x2="4704" y2="2544" stroke="red" stroke-width="2" />
  <text x="4800" y="2544" fill="black">takhle-a</text>
  <text x="4800" y="2592" fill="black">kdy-a</text>
  <line x1="4320" y1="2803" x2="4368" y2="2803" stroke="green" stroke-width="2" />
  <line x1="4320" y1="2640" x2="4752" y2="2640" stroke="green" stroke-width="2" />
  <line x1="4320" y1="2803" x2="4320" y2="2640" stroke="red" stroke-width="2" />
  <text x="4800" y="2640" fill="black">krásně-a</text>
  <line x1="4368" y1="2919" x2="4416" y2="2919" stroke="green" stroke-width="2" />
  <line x1="4368" y1="2688" x2="4752" y2="2688" stroke="green" stroke-width="2" />
  <line x1="4368" y1="2919" x2="4368" y2="2688" stroke="red" stroke-width="2" />
  <text x="4800" y="2688" fill="black">doslova-a</text>
  <line x1="4416" y1="3048" x2="4704" y2="3048" stroke="green" stroke-width="2" />
  <line x1="4416" y1="2790" x2="4512" y2="2790" stroke="green" stroke-width="2" />
  <line x1="4416" y1="3048" x2="4416" y2="2790" stroke="red" stroke-width="2" />
  <line x1="4512" y1="2844" x2="4560" y2="2844" stroke="green" stroke-width="2" />
  <line x1="4512" y1="2736" x2="4752" y2="2736" stroke="green" stroke-width="2" />
  <line x1="4512" y1="2844" x2="4512" y2="2736" stroke="red" stroke-width="2" />
  <text x="4800" y="2736" fill="black">strašně-a</text>
  <line x1="4560" y1="2904" x2="4608" y2="2904" stroke="green" stroke-width="2" />
  <line x1="4560" y1="2784" x2="4752" y2="2784" stroke="green" stroke-width="2" />
  <line x1="4560" y1="2904" x2="4560" y2="2784" stroke="red" stroke-width="2" />
  <text x="4800" y="2784" fill="black">trošku-a</text>
  <line x1="4608" y1="2952" x2="4704" y2="2952" stroke="green" stroke-width="2" />
  <line x1="4608" y1="2856" x2="4704" y2="2856" stroke="green" stroke-width="2" />
  <line x1="4608" y1="2952" x2="4608" y2="2856" stroke="red" stroke-width="2" />
  <line x1="4704" y1="2880" x2="4752" y2="2880" stroke="green" stroke-width="2" />
  <line x1="4704" y1="2832" x2="4752" y2="2832" stroke="green" stroke-width="2" />
  <line x1="4704" y1="2880" x2="4704" y2="2832" stroke="red" stroke-width="2" />
  <text x="4800" y="2832" fill="black">nijak-a</text>
  <text x="4800" y="2880" fill="black">poněkud-a</text>
  <line x1="4704" y1="2976" x2="4752" y2="2976" stroke="green" stroke-width="2" />
  <line x1="4704" y1="2928" x2="4752" y2="2928" stroke="green" stroke-width="2" />
  <line x1="4704" y1="2976" x2="4704" y2="2928" stroke="red" stroke-width="2" />
  <text x="4800" y="2928" fill="black">pěkně-a</text>
  <text x="4800" y="2976" fill="black">pořádně-a</text>
  <line x1="4704" y1="3072" x2="4752" y2="3072" stroke="green" stroke-width="2" />
  <line x1="4704" y1="3024" x2="4752" y2="3024" stroke="green" stroke-width="2" />
  <line x1="4704" y1="3072" x2="4704" y2="3024" stroke="red" stroke-width="2" />
  <text x="4800" y="3024" fill="black">dávno-a</text>
  <text x="4800" y="3072" fill="black">dostatečně-a</text>
  <line x1="4320" y1="3360" x2="4464" y2="3360" stroke="green" stroke-width="2" />
  <line x1="4320" y1="3156" x2="4656" y2="3156" stroke="green" stroke-width="2" />
  <line x1="4320" y1="3360" x2="4320" y2="3156" stroke="red" stroke-width="2" />
  <line x1="4656" y1="3192" x2="4704" y2="3192" stroke="green" stroke-width="2" />
  <line x1="4656" y1="3120" x2="4752" y2="3120" stroke="green" stroke-width="2" />
  <line x1="4656" y1="3192" x2="4656" y2="3120" stroke="red" stroke-width="2" />
  <text x="4800" y="3120" fill="black">vysoko-a</text>
  <line x1="4704" y1="3216" x2="4752" y2="3216" stroke="green" stroke-width="2" />
  <line x1="4704" y1="3168" x2="4752" y2="3168" stroke="green" stroke-width="2" />
  <line x1="4704" y1="3216" x2="4704" y2="3168" stroke="red" stroke-width="2" />
  <text x="4800" y="3168" fill="black">zpět-a</text>
  <text x="4800" y="3216" fill="black">zpátky-a</text>
  <line x1="4464" y1="3456" x2="4512" y2="3456" stroke="green" stroke-width="2" />
  <line x1="4464" y1="3264" x2="4752" y2="3264" stroke="green" stroke-width="2" />
  <line x1="4464" y1="3456" x2="4464" y2="3264" stroke="red" stroke-width="2" />
  <text x="4800" y="3264" fill="black">zas-a</text>
  <line x1="4512" y1="3528" x2="4704" y2="3528" stroke="green" stroke-width="2" />
  <line x1="4512" y1="3384" x2="4608" y2="3384" stroke="green" stroke-width="2" />
  <line x1="4512" y1="3528" x2="4512" y2="3384" stroke="red" stroke-width="2" />
  <line x1="4608" y1="3432" x2="4704" y2="3432" stroke="green" stroke-width="2" />
  <line x1="4608" y1="3336" x2="4704" y2="3336" stroke="green" stroke-width="2" />
  <line x1="4608" y1="3432" x2="4608" y2="3336" stroke="red" stroke-width="2" />
  <line x1="4704" y1="3360" x2="4752" y2="3360" stroke="green" stroke-width="2" />
  <line x1="4704" y1="3312" x2="4752" y2="3312" stroke="green" stroke-width="2" />
  <line x1="4704" y1="3360" x2="4704" y2="3312" stroke="red" stroke-width="2" />
  <text x="4800" y="3312" fill="black">zhruba-a</text>
  <text x="4800" y="3360" fill="black">přibližně-a</text>
  <line x1="4704" y1="3456" x2="4752" y2="3456" stroke="green" stroke-width="2" />
  <line x1="4704" y1="3408" x2="4752" y2="3408" stroke="green" stroke-width="2" />
  <line x1="4704" y1="3456" x2="4704" y2="3408" stroke="red" stroke-width="2" />
  <text x="4800" y="3408" fill="black">minimálně-a</text>
  <text x="4800" y="3456" fill="black">maximálně-a</text>
  <line x1="4704" y1="3552" x2="4752" y2="3552" stroke="green" stroke-width="2" />
  <line x1="4704" y1="3504" x2="4752" y2="3504" stroke="green" stroke-width="2" />
  <line x1="4704" y1="3552" x2="4704" y2="3504" stroke="red" stroke-width="2" />
  <text x="4800" y="3504" fill="black">potřeba-a</text>
  <text x="4800" y="3552" fill="black">možno-a</text>
  <line x1="3984" y1="4266" x2="4608" y2="4266" stroke="green" stroke-width="2" />
  <line x1="3984" y1="3657" x2="4176" y2="3657" stroke="green" stroke-width="2" />
  <line x1="3984" y1="4266" x2="3984" y2="3657" stroke="red" stroke-width="2" />
  <line x1="4176" y1="3714" x2="4224" y2="3714" stroke="green" stroke-width="2" />
  <line x1="4176" y1="3600" x2="4752" y2="3600" stroke="green" stroke-width="2" />
  <line x1="4176" y1="3714" x2="4176" y2="3600" stroke="red" stroke-width="2" />
  <text x="4800" y="3600" fill="black">jasně-a</text>
  <line x1="4224" y1="3780" x2="4272" y2="3780" stroke="green" stroke-width="2" />
  <line x1="4224" y1="3648" x2="4752" y2="3648" stroke="green" stroke-width="2" />
  <line x1="4224" y1="3780" x2="4224" y2="3648" stroke="red" stroke-width="2" />
  <text x="4800" y="3648" fill="black">nutno-a</text>
  <line x1="4272" y1="3864" x2="4320" y2="3864" stroke="green" stroke-width="2" />
  <line x1="4272" y1="3696" x2="4752" y2="3696" stroke="green" stroke-width="2" />
  <line x1="4272" y1="3864" x2="4272" y2="3696" stroke="red" stroke-width="2" />
  <text x="4800" y="3696" fill="black">loni-a</text>
  <line x1="4320" y1="3985" x2="4368" y2="3985" stroke="green" stroke-width="2" />
  <line x1="4320" y1="3744" x2="4752" y2="3744" stroke="green" stroke-width="2" />
  <line x1="4320" y1="3985" x2="4320" y2="3744" stroke="red" stroke-width="2" />
  <text x="4800" y="3744" fill="black">kdysi-a</text>
  <line x1="4368" y1="4116" x2="4656" y2="4116" stroke="green" stroke-width="2" />
  <line x1="4368" y1="3855" x2="4512" y2="3855" stroke="green" stroke-width="2" />
  <line x1="4368" y1="4116" x2="4368" y2="3855" stroke="red" stroke-width="2" />
  <line x1="4512" y1="3918" x2="4560" y2="3918" stroke="green" stroke-width="2" />
  <line x1="4512" y1="3792" x2="4752" y2="3792" stroke="green" stroke-width="2" />
  <line x1="4512" y1="3918" x2="4512" y2="3792" stroke="red" stroke-width="2" />
  <text x="4800" y="3792" fill="black">jistě-a</text>
  <line x1="4560" y1="3972" x2="4656" y2="3972" stroke="green" stroke-width="2" />
  <line x1="4560" y1="3864" x2="4704" y2="3864" stroke="green" stroke-width="2" />
  <line x1="4560" y1="3972" x2="4560" y2="3864" stroke="red" stroke-width="2" />
  <line x1="4704" y1="3888" x2="4752" y2="3888" stroke="green" stroke-width="2" />
  <line x1="4704" y1="3840" x2="4752" y2="3840" stroke="green" stroke-width="2" />
  <line x1="4704" y1="3888" x2="4704" y2="3840" stroke="red" stroke-width="2" />
  <text x="4800" y="3840" fill="black">včera-a</text>
  <text x="4800" y="3888" fill="black">dneska-a</text>
  <line x1="4656" y1="4008" x2="4704" y2="4008" stroke="green" stroke-width="2" />
  <line x1="4656" y1="3936" x2="4752" y2="3936" stroke="green" stroke-width="2" />
  <line x1="4656" y1="4008" x2="4656" y2="3936" stroke="red" stroke-width="2" />
  <text x="4800" y="3936" fill="black">obecně-a</text>
  <line x1="4704" y1="4032" x2="4752" y2="4032" stroke="green" stroke-width="2" />
  <line x1="4704" y1="3984" x2="4752" y2="3984" stroke="green" stroke-width="2" />
  <line x1="4704" y1="4032" x2="4704" y2="3984" stroke="red" stroke-width="2" />
  <text x="4800" y="3984" fill="black">původně-a</text>
  <text x="4800" y="4032" fill="black">nedávno-a</text>
  <line x1="4656" y1="4152" x2="4704" y2="4152" stroke="green" stroke-width="2" />
  <line x1="4656" y1="4080" x2="4752" y2="4080" stroke="green" stroke-width="2" />
  <line x1="4656" y1="4152" x2="4656" y2="4080" stroke="red" stroke-width="2" />
  <text x="4800" y="4080" fill="black">teprve-a</text>
  <line x1="4704" y1="4176" x2="4752" y2="4176" stroke="green" stroke-width="2" />
  <line x1="4704" y1="4128" x2="4752" y2="4128" stroke="green" stroke-width="2" />
  <line x1="4704" y1="4176" x2="4704" y2="4128" stroke="red" stroke-width="2" />
  <text x="4800" y="4128" fill="black">tentokrát-a</text>
  <text x="4800" y="4176" fill="black">hlavně-a</text>
  <line x1="4608" y1="4308" x2="4656" y2="4308" stroke="green" stroke-width="2" />
  <line x1="4608" y1="4224" x2="4752" y2="4224" stroke="green" stroke-width="2" />
  <line x1="4608" y1="4308" x2="4608" y2="4224" stroke="red" stroke-width="2" />
  <text x="4800" y="4224" fill="black">akorát-a</text>
  <line x1="4656" y1="4344" x2="4704" y2="4344" stroke="green" stroke-width="2" />
  <line x1="4656" y1="4272" x2="4752" y2="4272" stroke="green" stroke-width="2" />
  <line x1="4656" y1="4344" x2="4656" y2="4272" stroke="red" stroke-width="2" />
  <text x="4800" y="4272" fill="black">současně-a</text>
  <line x1="4704" y1="4368" x2="4752" y2="4368" stroke="green" stroke-width="2" />
  <line x1="4704" y1="4320" x2="4752" y2="4320" stroke="green" stroke-width="2" />
  <line x1="4704" y1="4368" x2="4704" y2="4320" stroke="red" stroke-width="2" />
  <text x="4800" y="4320" fill="black">následně-a</text>
  <text x="4800" y="4368" fill="black">zvláště-a</text>
  <line x1="4512" y1="4509" x2="4560" y2="4509" stroke="green" stroke-width="2" />
  <line x1="4512" y1="4416" x2="4752" y2="4416" stroke="green" stroke-width="2" />
  <line x1="4512" y1="4509" x2="4512" y2="4416" stroke="red" stroke-width="2" />
  <text x="4800" y="4416" fill="black">osobně-a</text>
  <line x1="4560" y1="4554" x2="4608" y2="4554" stroke="green" stroke-width="2" />
  <line x1="4560" y1="4464" x2="4752" y2="4464" stroke="green" stroke-width="2" />
  <line x1="4560" y1="4554" x2="4560" y2="4464" stroke="red" stroke-width="2" />
  <text x="4800" y="4464" fill="black">zkrátka-a</text>
  <line x1="4608" y1="4596" x2="4656" y2="4596" stroke="green" stroke-width="2" />
  <line x1="4608" y1="4512" x2="4752" y2="4512" stroke="green" stroke-width="2" />
  <line x1="4608" y1="4596" x2="4608" y2="4512" stroke="red" stroke-width="2" />
  <text x="4800" y="4512" fill="black">celkově-a</text>
  <line x1="4656" y1="4632" x2="4704" y2="4632" stroke="green" stroke-width="2" />
  <line x1="4656" y1="4560" x2="4752" y2="4560" stroke="green" stroke-width="2" />
  <line x1="4656" y1="4632" x2="4656" y2="4560" stroke="red" stroke-width="2" />
  <text x="4800" y="4560" fill="black">nejprve-a</text>
  <line x1="4704" y1="4656" x2="4752" y2="4656" stroke="green" stroke-width="2" />
  <line x1="4704" y1="4608" x2="4752" y2="4608" stroke="green" stroke-width="2" />
  <line x1="4704" y1="4656" x2="4704" y2="4608" stroke="red" stroke-width="2" />
  <text x="4800" y="4608" fill="black">naštěstí-a</text>
  <text x="4800" y="4656" fill="black">ostatně-a</text>
  <line x1="4704" y1="4752" x2="4752" y2="4752" stroke="green" stroke-width="2" />
  <line x1="4704" y1="4704" x2="4752" y2="4704" stroke="green" stroke-width="2" />
  <line x1="4704" y1="4752" x2="4704" y2="4704" stroke="red" stroke-width="2" />
  <text x="4800" y="4704" fill="black">případně-a</text>
  <text x="4800" y="4752" fill="black">přičemž-a</text>
</svg>
