<svg width="4800" height="4800">
  <line x1="0" y1="1323" x2="48" y2="1323" stroke="green" stroke-width="2" />
  <line x1="0" y1="0" x2="4752" y2="0" stroke="green" stroke-width="2" />
  <line x1="0" y1="1323" x2="0" y2="0" stroke="red" stroke-width="2" />
  <text x="4800" y="0" fill="black">milý-j</text>
  <line x1="48" y1="2551" x2="336" y2="2551" stroke="green" stroke-width="2" />
  <line x1="48" y1="94" x2="4512" y2="94" stroke="green" stroke-width="2" />
  <line x1="48" y1="2551" x2="48" y2="94" stroke="red" stroke-width="2" />
  <line x1="4512" y1="141" x2="4560" y2="141" stroke="green" stroke-width="2" />
  <line x1="4512" y1="48" x2="4752" y2="48" stroke="green" stroke-width="2" />
  <line x1="4512" y1="141" x2="4512" y2="48" stroke="red" stroke-width="2" />
  <text x="4800" y="48" fill="black">super-j</text>
  <line x1="4560" y1="186" x2="4608" y2="186" stroke="green" stroke-width="2" />
  <line x1="4560" y1="96" x2="4752" y2="96" stroke="green" stroke-width="2" />
  <line x1="4560" y1="186" x2="4560" y2="96" stroke="red" stroke-width="2" />
  <text x="4800" y="96" fill="black">úžasný-j</text>
  <line x1="4608" y1="228" x2="4656" y2="228" stroke="green" stroke-width="2" />
  <line x1="4608" y1="144" x2="4752" y2="144" stroke="green" stroke-width="2" />
  <line x1="4608" y1="228" x2="4608" y2="144" stroke="red" stroke-width="2" />
  <text x="4800" y="144" fill="black">složitý-j</text>
  <line x1="4656" y1="264" x2="4704" y2="264" stroke="green" stroke-width="2" />
  <line x1="4656" y1="192" x2="4752" y2="192" stroke="green" stroke-width="2" />
  <line x1="4656" y1="264" x2="4656" y2="192" stroke="red" stroke-width="2" />
  <text x="4800" y="192" fill="black">spokojený-j</text>
  <line x1="4704" y1="288" x2="4752" y2="288" stroke="green" stroke-width="2" />
  <line x1="4704" y1="240" x2="4752" y2="240" stroke="green" stroke-width="2" />
  <line x1="4704" y1="288" x2="4704" y2="240" stroke="red" stroke-width="2" />
  <text x="4800" y="240" fill="black">zbytečný-j</text>
  <text x="4800" y="288" fill="black">mrtvý-j</text>
  <line x1="336" y1="4692" x2="4656" y2="4692" stroke="green" stroke-width="2" />
  <line x1="336" y1="411" x2="480" y2="411" stroke="green" stroke-width="2" />
  <line x1="336" y1="4692" x2="336" y2="411" stroke="red" stroke-width="2" />
  <line x1="480" y1="487" x2="528" y2="487" stroke="green" stroke-width="2" />
  <line x1="480" y1="336" x2="4752" y2="336" stroke="green" stroke-width="2" />
  <line x1="480" y1="487" x2="480" y2="336" stroke="red" stroke-width="2" />
  <text x="4800" y="336" fill="black">naprostý-j</text>
  <line x1="528" y1="590" x2="576" y2="590" stroke="green" stroke-width="2" />
  <line x1="528" y1="384" x2="4752" y2="384" stroke="green" stroke-width="2" />
  <line x1="528" y1="590" x2="528" y2="384" stroke="red" stroke-width="2" />
  <text x="4800" y="384" fill="black">závěrečný-j</text>
  <line x1="576" y1="749" x2="624" y2="749" stroke="green" stroke-width="2" />
  <line x1="576" y1="432" x2="4752" y2="432" stroke="green" stroke-width="2" />
  <line x1="576" y1="749" x2="576" y2="432" stroke="red" stroke-width="2" />
  <text x="4800" y="432" fill="black">tiskový-j</text>
  <line x1="624" y1="965" x2="1008" y2="965" stroke="green" stroke-width="2" />
  <line x1="624" y1="534" x2="4416" y2="534" stroke="green" stroke-width="2" />
  <line x1="624" y1="965" x2="624" y2="534" stroke="red" stroke-width="2" />
  <line x1="4416" y1="589" x2="4464" y2="589" stroke="green" stroke-width="2" />
  <line x1="4416" y1="480" x2="4752" y2="480" stroke="green" stroke-width="2" />
  <line x1="4416" y1="589" x2="4416" y2="480" stroke="red" stroke-width="2" />
  <text x="4800" y="480" fill="black">budoucí-j</text>
  <line x1="4464" y1="651" x2="4512" y2="651" stroke="green" stroke-width="2" />
  <line x1="4464" y1="528" x2="4752" y2="528" stroke="green" stroke-width="2" />
  <line x1="4464" y1="651" x2="4464" y2="528" stroke="red" stroke-width="2" />
  <text x="4800" y="528" fill="black">daňový-j</text>
  <line x1="4512" y1="726" x2="4560" y2="726" stroke="green" stroke-width="2" />
  <line x1="4512" y1="576" x2="4752" y2="576" stroke="green" stroke-width="2" />
  <line x1="4512" y1="726" x2="4512" y2="576" stroke="red" stroke-width="2" />
  <text x="4800" y="576" fill="black">filmový-j</text>
  <line x1="4560" y1="792" x2="4704" y2="792" stroke="green" stroke-width="2" />
  <line x1="4560" y1="660" x2="4656" y2="660" stroke="green" stroke-width="2" />
  <line x1="4560" y1="792" x2="4560" y2="660" stroke="red" stroke-width="2" />
  <line x1="4656" y1="696" x2="4704" y2="696" stroke="green" stroke-width="2" />
  <line x1="4656" y1="624" x2="4752" y2="624" stroke="green" stroke-width="2" />
  <line x1="4656" y1="696" x2="4656" y2="624" stroke="red" stroke-width="2" />
  <text x="4800" y="624" fill="black">členský-j</text>
  <line x1="4704" y1="720" x2="4752" y2="720" stroke="green" stroke-width="2" />
  <line x1="4704" y1="672" x2="4752" y2="672" stroke="green" stroke-width="2" />
  <line x1="4704" y1="720" x2="4704" y2="672" stroke="red" stroke-width="2" />
  <text x="4800" y="672" fill="black">vědecký-j</text>
  <text x="4800" y="720" fill="black">vládní-j</text>
  <line x1="4704" y1="816" x2="4752" y2="816" stroke="green" stroke-width="2" />
  <line x1="4704" y1="768" x2="4752" y2="768" stroke="green" stroke-width="2" />
  <line x1="4704" y1="816" x2="4704" y2="768" stroke="red" stroke-width="2" />
  <text x="4800" y="768" fill="black">vzájemný-j</text>
  <text x="4800" y="816" fill="black">energetický-j</text>
  <line x1="1008" y1="1066" x2="1056" y2="1066" stroke="green" stroke-width="2" />
  <line x1="1008" y1="864" x2="4752" y2="864" stroke="green" stroke-width="2" />
  <line x1="1008" y1="1066" x2="1008" y2="864" stroke="red" stroke-width="2" />
  <text x="4800" y="864" fill="black">zmíněný-j</text>
  <line x1="1056" y1="1220" x2="1104" y2="1220" stroke="green" stroke-width="2" />
  <line x1="1056" y1="912" x2="4752" y2="912" stroke="green" stroke-width="2" />
  <line x1="1056" y1="1220" x2="1056" y2="912" stroke="red" stroke-width="2" />
  <text x="4800" y="912" fill="black">rozsáhlý-j</text>
  <line x1="1104" y1="1481" x2="1152" y2="1481" stroke="green" stroke-width="2" />
  <line x1="1104" y1="960" x2="4752" y2="960" stroke="green" stroke-width="2" />
  <line x1="1104" y1="1481" x2="1104" y2="960" stroke="red" stroke-width="2" />
  <text x="4800" y="960" fill="black">originální-j</text>
  <line x1="1152" y1="1954" x2="1200" y2="1954" stroke="green" stroke-width="2" />
  <line x1="1152" y1="1008" x2="4752" y2="1008" stroke="green" stroke-width="2" />
  <line x1="1152" y1="1954" x2="1152" y2="1008" stroke="red" stroke-width="2" />
  <text x="4800" y="1008" fill="black">obecný-j</text>
  <line x1="1200" y1="2852" x2="1248" y2="2852" stroke="green" stroke-width="2" />
  <line x1="1200" y1="1056" x2="4752" y2="1056" stroke="green" stroke-width="2" />
  <line x1="1200" y1="2852" x2="1200" y2="1056" stroke="red" stroke-width="2" />
  <text x="4800" y="1056" fill="black">podstatný-j</text>
  <line x1="1248" y1="4548" x2="4656" y2="4548" stroke="green" stroke-width="2" />
  <line x1="1248" y1="1157" x2="1392" y2="1157" stroke="green" stroke-width="2" />
  <line x1="1248" y1="4548" x2="1248" y2="1157" stroke="red" stroke-width="2" />
  <line x1="1392" y1="1210" x2="1440" y2="1210" stroke="green" stroke-width="2" />
  <line x1="1392" y1="1104" x2="4752" y2="1104" stroke="green" stroke-width="2" />
  <line x1="1392" y1="1210" x2="1392" y2="1104" stroke="red" stroke-width="2" />
  <text x="4800" y="1104" fill="black">průměrný-j</text>
  <line x1="1440" y1="1268" x2="1488" y2="1268" stroke="green" stroke-width="2" />
  <line x1="1440" y1="1152" x2="4752" y2="1152" stroke="green" stroke-width="2" />
  <line x1="1440" y1="1268" x2="1440" y2="1152" stroke="red" stroke-width="2" />
  <text x="4800" y="1152" fill="black">maximální-j</text>
  <line x1="1488" y1="1337" x2="1536" y2="1337" stroke="green" stroke-width="2" />
  <line x1="1488" y1="1200" x2="4752" y2="1200" stroke="green" stroke-width="2" />
  <line x1="1488" y1="1337" x2="1488" y2="1200" stroke="red" stroke-width="2" />
  <text x="4800" y="1200" fill="black">britský-j</text>
  <line x1="1536" y1="1427" x2="1584" y2="1427" stroke="green" stroke-width="2" />
  <line x1="1536" y1="1248" x2="4752" y2="1248" stroke="green" stroke-width="2" />
  <line x1="1536" y1="1427" x2="1536" y2="1248" stroke="red" stroke-width="2" />
  <text x="4800" y="1248" fill="black">oficiální-j</text>
  <line x1="1584" y1="1558" x2="1632" y2="1558" stroke="green" stroke-width="2" />
  <line x1="1584" y1="1296" x2="4752" y2="1296" stroke="green" stroke-width="2" />
  <line x1="1584" y1="1558" x2="1584" y2="1296" stroke="red" stroke-width="2" />
  <text x="4800" y="1296" fill="black">klíčový-j</text>
  <line x1="1632" y1="1772" x2="1680" y2="1772" stroke="green" stroke-width="2" />
  <line x1="1632" y1="1344" x2="4752" y2="1344" stroke="green" stroke-width="2" />
  <line x1="1632" y1="1772" x2="1632" y2="1344" stroke="red" stroke-width="2" />
  <text x="4800" y="1344" fill="black">zásadní-j</text>
  <line x1="1680" y1="2092" x2="1920" y2="2092" stroke="green" stroke-width="2" />
  <line x1="1680" y1="1452" x2="4560" y2="1452" stroke="green" stroke-width="2" />
  <line x1="1680" y1="2092" x2="1680" y2="1452" stroke="red" stroke-width="2" />
  <line x1="4560" y1="1512" x2="4608" y2="1512" stroke="green" stroke-width="2" />
  <line x1="4560" y1="1392" x2="4752" y2="1392" stroke="green" stroke-width="2" />
  <line x1="4560" y1="1512" x2="4560" y2="1392" stroke="red" stroke-width="2" />
  <text x="4800" y="1392" fill="black">veliký-j</text>
  <line x1="4608" y1="1560" x2="4704" y2="1560" stroke="green" stroke-width="2" />
  <line x1="4608" y1="1464" x2="4704" y2="1464" stroke="green" stroke-width="2" />
  <line x1="4608" y1="1560" x2="4608" y2="1464" stroke="red" stroke-width="2" />
  <line x1="4704" y1="1488" x2="4752" y2="1488" stroke="green" stroke-width="2" />
  <line x1="4704" y1="1440" x2="4752" y2="1440" stroke="green" stroke-width="2" />
  <line x1="4704" y1="1488" x2="4704" y2="1440" stroke="red" stroke-width="2" />
  <text x="4800" y="1440" fill="black">nádherný-j</text>
  <text x="4800" y="1488" fill="black">vynikající-j</text>
  <line x1="4704" y1="1584" x2="4752" y2="1584" stroke="green" stroke-width="2" />
  <line x1="4704" y1="1536" x2="4752" y2="1536" stroke="green" stroke-width="2" />
  <line x1="4704" y1="1584" x2="4704" y2="1536" stroke="red" stroke-width="2" />
  <text x="4800" y="1536" fill="black">klidný-j</text>
  <text x="4800" y="1584" fill="black">připravený-j</text>
  <line x1="1920" y1="2552" x2="1968" y2="2552" stroke="green" stroke-width="2" />
  <line x1="1920" y1="1632" x2="4752" y2="1632" stroke="green" stroke-width="2" />
  <line x1="1920" y1="2552" x2="1920" y2="1632" stroke="red" stroke-width="2" />
  <text x="4800" y="1632" fill="black">zkušený-j</text>
  <line x1="1968" y1="3425" x2="2016" y2="3425" stroke="green" stroke-width="2" />
  <line x1="1968" y1="1680" x2="4752" y2="1680" stroke="green" stroke-width="2" />
  <line x1="1968" y1="3425" x2="1968" y2="1680" stroke="red" stroke-width="2" />
  <text x="4800" y="1680" fill="black">levý-j</text>
  <line x1="2016" y1="4440" x2="4704" y2="4440" stroke="green" stroke-width="2" />
  <line x1="2016" y1="2410" x2="2112" y2="2410" stroke="green" stroke-width="2" />
  <line x1="2016" y1="4440" x2="2016" y2="2410" stroke="red" stroke-width="2" />
  <line x1="2112" y1="3092" x2="2160" y2="3092" stroke="green" stroke-width="2" />
  <line x1="2112" y1="1728" x2="4752" y2="1728" stroke="green" stroke-width="2" />
  <line x1="2112" y1="3092" x2="2112" y2="1728" stroke="red" stroke-width="2" />
  <text x="4800" y="1728" fill="black">minimální-j</text>
  <line x1="2160" y1="4344" x2="4704" y2="4344" stroke="green" stroke-width="2" />
  <line x1="2160" y1="1841" x2="2256" y2="1841" stroke="green" stroke-width="2" />
  <line x1="2160" y1="4344" x2="2160" y2="1841" stroke="red" stroke-width="2" />
  <line x1="2256" y1="1907" x2="2304" y2="1907" stroke="green" stroke-width="2" />
  <line x1="2256" y1="1776" x2="4752" y2="1776" stroke="green" stroke-width="2" />
  <line x1="2256" y1="1907" x2="2256" y2="1776" stroke="red" stroke-width="2" />
  <text x="4800" y="1776" fill="black">negativní-j</text>
  <line x1="2304" y1="1991" x2="2352" y2="1991" stroke="green" stroke-width="2" />
  <line x1="2304" y1="1824" x2="4752" y2="1824" stroke="green" stroke-width="2" />
  <line x1="2304" y1="1991" x2="2304" y2="1824" stroke="red" stroke-width="2" />
  <text x="4800" y="1824" fill="black">reálný-j</text>
  <line x1="2352" y1="2110" x2="2400" y2="2110" stroke="green" stroke-width="2" />
  <line x1="2352" y1="1872" x2="4752" y2="1872" stroke="green" stroke-width="2" />
  <line x1="2352" y1="2110" x2="2352" y2="1872" stroke="red" stroke-width="2" />
  <text x="4800" y="1872" fill="black">cizí-j</text>
  <line x1="2400" y1="2300" x2="2448" y2="2300" stroke="green" stroke-width="2" />
  <line x1="2400" y1="1920" x2="4752" y2="1920" stroke="green" stroke-width="2" />
  <line x1="2400" y1="2300" x2="2400" y2="1920" stroke="red" stroke-width="2" />
  <text x="4800" y="1920" fill="black">boží-j</text>
  <line x1="2448" y1="2632" x2="2496" y2="2632" stroke="green" stroke-width="2" />
  <line x1="2448" y1="1968" x2="4752" y2="1968" stroke="green" stroke-width="2" />
  <line x1="2448" y1="2632" x2="2448" y2="1968" stroke="red" stroke-width="2" />
  <text x="4800" y="1968" fill="black">slušný-j</text>
  <line x1="2496" y1="3248" x2="2544" y2="3248" stroke="green" stroke-width="2" />
  <line x1="2496" y1="2016" x2="4752" y2="2016" stroke="green" stroke-width="2" />
  <line x1="2496" y1="3248" x2="2496" y2="2016" stroke="red" stroke-width="2" />
  <text x="4800" y="2016" fill="black">individuální-j</text>
  <line x1="2544" y1="3983" x2="4416" y2="3983" stroke="green" stroke-width="2" />
  <line x1="2544" y1="2513" x2="2928" y2="2513" stroke="green" stroke-width="2" />
  <line x1="2544" y1="3983" x2="2544" y2="2513" stroke="red" stroke-width="2" />
  <line x1="2928" y1="2962" x2="2976" y2="2962" stroke="green" stroke-width="2" />
  <line x1="2928" y1="2064" x2="4752" y2="2064" stroke="green" stroke-width="2" />
  <line x1="2928" y1="2962" x2="2928" y2="2064" stroke="red" stroke-width="2" />
  <text x="4800" y="2064" fill="black">úplný-j</text>
  <line x1="2976" y1="3741" x2="4560" y2="3741" stroke="green" stroke-width="2" />
  <line x1="2976" y1="2183" x2="3216" y2="2183" stroke="green" stroke-width="2" />
  <line x1="2976" y1="3741" x2="2976" y2="2183" stroke="red" stroke-width="2" />
  <line x1="3216" y1="2255" x2="3264" y2="2255" stroke="green" stroke-width="2" />
  <line x1="3216" y1="2112" x2="4752" y2="2112" stroke="green" stroke-width="2" />
  <line x1="3216" y1="2255" x2="3216" y2="2112" stroke="red" stroke-width="2" />
  <text x="4800" y="2112" fill="black">zimní-j</text>
  <line x1="3264" y1="2351" x2="3312" y2="2351" stroke="green" stroke-width="2" />
  <line x1="3264" y1="2160" x2="4752" y2="2160" stroke="green" stroke-width="2" />
  <line x1="3264" y1="2351" x2="3264" y2="2160" stroke="red" stroke-width="2" />
  <text x="4800" y="2160" fill="black">noční-j</text>
  <line x1="3312" y1="2495" x2="3360" y2="2495" stroke="green" stroke-width="2" />
  <line x1="3312" y1="2208" x2="4752" y2="2208" stroke="green" stroke-width="2" />
  <line x1="3312" y1="2495" x2="3312" y2="2208" stroke="red" stroke-width="2" />
  <text x="4800" y="2208" fill="black">denní-j</text>
  <line x1="3360" y1="2734" x2="3408" y2="2734" stroke="green" stroke-width="2" />
  <line x1="3360" y1="2256" x2="4752" y2="2256" stroke="green" stroke-width="2" />
  <line x1="3360" y1="2734" x2="3360" y2="2256" stroke="red" stroke-width="2" />
  <text x="4800" y="2256" fill="black">mateřský-j</text>
  <line x1="3408" y1="3116" x2="4032" y2="3116" stroke="green" stroke-width="2" />
  <line x1="3408" y1="2351" x2="4176" y2="2351" stroke="green" stroke-width="2" />
  <line x1="3408" y1="3116" x2="3408" y2="2351" stroke="red" stroke-width="2" />
  <line x1="4176" y1="2399" x2="4224" y2="2399" stroke="green" stroke-width="2" />
  <line x1="4176" y1="2304" x2="4752" y2="2304" stroke="green" stroke-width="2" />
  <line x1="4176" y1="2399" x2="4176" y2="2304" stroke="red" stroke-width="2" />
  <text x="4800" y="2304" fill="black">duchovní-j</text>
  <line x1="4224" y1="2447" x2="4272" y2="2447" stroke="green" stroke-width="2" />
  <line x1="4224" y1="2352" x2="4752" y2="2352" stroke="green" stroke-width="2" />
  <line x1="4224" y1="2447" x2="4224" y2="2352" stroke="red" stroke-width="2" />
  <text x="4800" y="2352" fill="black">hospodářský-j</text>
  <line x1="4272" y1="2495" x2="4320" y2="2495" stroke="green" stroke-width="2" />
  <line x1="4272" y1="2400" x2="4752" y2="2400" stroke="green" stroke-width="2" />
  <line x1="4272" y1="2495" x2="4272" y2="2400" stroke="red" stroke-width="2" />
  <text x="4800" y="2400" fill="black">umělecký-j</text>
  <line x1="4320" y1="2543" x2="4368" y2="2543" stroke="green" stroke-width="2" />
  <line x1="4320" y1="2448" x2="4752" y2="2448" stroke="green" stroke-width="2" />
  <line x1="4320" y1="2543" x2="4320" y2="2448" stroke="red" stroke-width="2" />
  <text x="4800" y="2448" fill="black">fyzický-j</text>
  <line x1="4368" y1="2591" x2="4416" y2="2591" stroke="green" stroke-width="2" />
  <line x1="4368" y1="2496" x2="4752" y2="2496" stroke="green" stroke-width="2" />
  <line x1="4368" y1="2591" x2="4368" y2="2496" stroke="red" stroke-width="2" />
  <text x="4800" y="2496" fill="black">televizní-j</text>
  <line x1="4416" y1="2639" x2="4464" y2="2639" stroke="green" stroke-width="2" />
  <line x1="4416" y1="2544" x2="4752" y2="2544" stroke="green" stroke-width="2" />
  <line x1="4416" y1="2639" x2="4416" y2="2544" stroke="red" stroke-width="2" />
  <text x="4800" y="2544" fill="black">průmyslový-j</text>
  <line x1="4464" y1="2686" x2="4512" y2="2686" stroke="green" stroke-width="2" />
  <line x1="4464" y1="2592" x2="4752" y2="2592" stroke="green" stroke-width="2" />
  <line x1="4464" y1="2686" x2="4464" y2="2592" stroke="red" stroke-width="2" />
  <text x="4800" y="2592" fill="black">východní-j</text>
  <line x1="4512" y1="2733" x2="4560" y2="2733" stroke="green" stroke-width="2" />
  <line x1="4512" y1="2640" x2="4752" y2="2640" stroke="green" stroke-width="2" />
  <line x1="4512" y1="2733" x2="4512" y2="2640" stroke="red" stroke-width="2" />
  <text x="4800" y="2640" fill="black">severní-j</text>
  <line x1="4560" y1="2778" x2="4608" y2="2778" stroke="green" stroke-width="2" />
  <line x1="4560" y1="2688" x2="4752" y2="2688" stroke="green" stroke-width="2" />
  <line x1="4560" y1="2778" x2="4560" y2="2688" stroke="red" stroke-width="2" />
  <text x="4800" y="2688" fill="black">západní-j</text>
  <line x1="4608" y1="2820" x2="4656" y2="2820" stroke="green" stroke-width="2" />
  <line x1="4608" y1="2736" x2="4752" y2="2736" stroke="green" stroke-width="2" />
  <line x1="4608" y1="2820" x2="4608" y2="2736" stroke="red" stroke-width="2" />
  <text x="4800" y="2736" fill="black">operační-j</text>
  <line x1="4656" y1="2856" x2="4704" y2="2856" stroke="green" stroke-width="2" />
  <line x1="4656" y1="2784" x2="4752" y2="2784" stroke="green" stroke-width="2" />
  <line x1="4656" y1="2856" x2="4656" y2="2784" stroke="red" stroke-width="2" />
  <text x="4800" y="2784" fill="black">slovenský-j</text>
  <line x1="4704" y1="2880" x2="4752" y2="2880" stroke="green" stroke-width="2" />
  <line x1="4704" y1="2832" x2="4752" y2="2832" stroke="green" stroke-width="2" />
  <line x1="4704" y1="2880" x2="4704" y2="2832" stroke="red" stroke-width="2" />
  <text x="4800" y="2832" fill="black">ruský-j</text>
  <text x="4800" y="2880" fill="black">francouzský-j</text>
  <line x1="4032" y1="3305" x2="4080" y2="3305" stroke="green" stroke-width="2" />
  <line x1="4032" y1="2928" x2="4752" y2="2928" stroke="green" stroke-width="2" />
  <line x1="4032" y1="3305" x2="4032" y2="2928" stroke="red" stroke-width="2" />
  <text x="4800" y="2928" fill="black">obyčejný-j</text>
  <line x1="4080" y1="3588" x2="4656" y2="3588" stroke="green" stroke-width="2" />
  <line x1="4080" y1="3023" x2="4224" y2="3023" stroke="green" stroke-width="2" />
  <line x1="4080" y1="3588" x2="4080" y2="3023" stroke="red" stroke-width="2" />
  <line x1="4224" y1="3071" x2="4272" y2="3071" stroke="green" stroke-width="2" />
  <line x1="4224" y1="2976" x2="4752" y2="2976" stroke="green" stroke-width="2" />
  <line x1="4224" y1="3071" x2="4224" y2="2976" stroke="red" stroke-width="2" />
  <text x="4800" y="2976" fill="black">dřevěný-j</text>
  <line x1="4272" y1="3119" x2="4320" y2="3119" stroke="green" stroke-width="2" />
  <line x1="4272" y1="3024" x2="4752" y2="3024" stroke="green" stroke-width="2" />
  <line x1="4272" y1="3119" x2="4272" y2="3024" stroke="red" stroke-width="2" />
  <text x="4800" y="3024" fill="black">drobný-j</text>
  <line x1="4320" y1="3167" x2="4368" y2="3167" stroke="green" stroke-width="2" />
  <line x1="4320" y1="3072" x2="4752" y2="3072" stroke="green" stroke-width="2" />
  <line x1="4320" y1="3167" x2="4320" y2="3072" stroke="red" stroke-width="2" />
  <text x="4800" y="3072" fill="black">barevný-j</text>
  <line x1="4368" y1="3215" x2="4416" y2="3215" stroke="green" stroke-width="2" />
  <line x1="4368" y1="3120" x2="4752" y2="3120" stroke="green" stroke-width="2" />
  <line x1="4368" y1="3215" x2="4368" y2="3120" stroke="red" stroke-width="2" />
  <text x="4800" y="3120" fill="black">profesionální-j</text>
  <line x1="4416" y1="3263" x2="4464" y2="3263" stroke="green" stroke-width="2" />
  <line x1="4416" y1="3168" x2="4752" y2="3168" stroke="green" stroke-width="2" />
  <line x1="4416" y1="3263" x2="4416" y2="3168" stroke="red" stroke-width="2" />
  <text x="4800" y="3168" fill="black">anglický-j</text>
  <line x1="4464" y1="3310" x2="4512" y2="3310" stroke="green" stroke-width="2" />
  <line x1="4464" y1="3216" x2="4752" y2="3216" stroke="green" stroke-width="2" />
  <line x1="4464" y1="3310" x2="4464" y2="3216" stroke="red" stroke-width="2" />
  <text x="4800" y="3216" fill="black">digitální-j</text>
  <line x1="4512" y1="3357" x2="4560" y2="3357" stroke="green" stroke-width="2" />
  <line x1="4512" y1="3264" x2="4752" y2="3264" stroke="green" stroke-width="2" />
  <line x1="4512" y1="3357" x2="4512" y2="3264" stroke="red" stroke-width="2" />
  <text x="4800" y="3264" fill="black">elektronický-j</text>
  <line x1="4560" y1="3402" x2="4608" y2="3402" stroke="green" stroke-width="2" />
  <line x1="4560" y1="3312" x2="4752" y2="3312" stroke="green" stroke-width="2" />
  <line x1="4560" y1="3402" x2="4560" y2="3312" stroke="red" stroke-width="2" />
  <text x="4800" y="3312" fill="black">časový-j</text>
  <line x1="4608" y1="3444" x2="4656" y2="3444" stroke="green" stroke-width="2" />
  <line x1="4608" y1="3360" x2="4752" y2="3360" stroke="green" stroke-width="2" />
  <line x1="4608" y1="3444" x2="4608" y2="3360" stroke="red" stroke-width="2" />
  <text x="4800" y="3360" fill="black">bezpečnostní-j</text>
  <line x1="4656" y1="3480" x2="4704" y2="3480" stroke="green" stroke-width="2" />
  <line x1="4656" y1="3408" x2="4752" y2="3408" stroke="green" stroke-width="2" />
  <line x1="4656" y1="3480" x2="4656" y2="3408" stroke="red" stroke-width="2" />
  <text x="4800" y="3408" fill="black">mobilní-j</text>
  <line x1="4704" y1="3504" x2="4752" y2="3504" stroke="green" stroke-width="2" />
  <line x1="4704" y1="3456" x2="4752" y2="3456" stroke="green" stroke-width="2" />
  <line x1="4704" y1="3504" x2="4704" y2="3456" stroke="red" stroke-width="2" />
  <text x="4800" y="3456" fill="black">vodní-j</text>
  <text x="4800" y="3504" fill="black">elektrický-j</text>
  <line x1="4656" y1="3624" x2="4704" y2="3624" stroke="green" stroke-width="2" />
  <line x1="4656" y1="3552" x2="4752" y2="3552" stroke="green" stroke-width="2" />
  <line x1="4656" y1="3624" x2="4656" y2="3552" stroke="red" stroke-width="2" />
  <text x="4800" y="3552" fill="black">teplý-j</text>
  <line x1="4704" y1="3648" x2="4752" y2="3648" stroke="green" stroke-width="2" />
  <line x1="4704" y1="3600" x2="4752" y2="3600" stroke="green" stroke-width="2" />
  <line x1="4704" y1="3648" x2="4704" y2="3600" stroke="red" stroke-width="2" />
  <text x="4800" y="3600" fill="black">hluboký-j</text>
  <text x="4800" y="3648" fill="black">tvrdý-j</text>
  <line x1="4560" y1="3786" x2="4608" y2="3786" stroke="green" stroke-width="2" />
  <line x1="4560" y1="3696" x2="4752" y2="3696" stroke="green" stroke-width="2" />
  <line x1="4560" y1="3786" x2="4560" y2="3696" stroke="red" stroke-width="2" />
  <text x="4800" y="3696" fill="black">vybraný-j</text>
  <line x1="4608" y1="3828" x2="4656" y2="3828" stroke="green" stroke-width="2" />
  <line x1="4608" y1="3744" x2="4752" y2="3744" stroke="green" stroke-width="2" />
  <line x1="4608" y1="3828" x2="4608" y2="3744" stroke="red" stroke-width="2" />
  <text x="4800" y="3744" fill="black">dlouhodobý-j</text>
  <line x1="4656" y1="3864" x2="4704" y2="3864" stroke="green" stroke-width="2" />
  <line x1="4656" y1="3792" x2="4752" y2="3792" stroke="green" stroke-width="2" />
  <line x1="4656" y1="3864" x2="4656" y2="3792" stroke="red" stroke-width="2" />
  <text x="4800" y="3792" fill="black">slavný-j</text>
  <line x1="4704" y1="3888" x2="4752" y2="3888" stroke="green" stroke-width="2" />
  <line x1="4704" y1="3840" x2="4752" y2="3840" stroke="green" stroke-width="2" />
  <line x1="4704" y1="3888" x2="4704" y2="3840" stroke="red" stroke-width="2" />
  <text x="4800" y="3840" fill="black">pravidelný-j</text>
  <text x="4800" y="3888" fill="black">standardní-j</text>
  <line x1="4416" y1="4031" x2="4464" y2="4031" stroke="green" stroke-width="2" />
  <line x1="4416" y1="3936" x2="4752" y2="3936" stroke="green" stroke-width="2" />
  <line x1="4416" y1="4031" x2="4416" y2="3936" stroke="red" stroke-width="2" />
  <text x="4800" y="3936" fill="black">přirozený-j</text>
  <line x1="4464" y1="4078" x2="4512" y2="4078" stroke="green" stroke-width="2" />
  <line x1="4464" y1="3984" x2="4752" y2="3984" stroke="green" stroke-width="2" />
  <line x1="4464" y1="4078" x2="4464" y2="3984" stroke="red" stroke-width="2" />
  <text x="4800" y="3984" fill="black">ženský-j</text>
  <line x1="4512" y1="4125" x2="4560" y2="4125" stroke="green" stroke-width="2" />
  <line x1="4512" y1="4032" x2="4752" y2="4032" stroke="green" stroke-width="2" />
  <line x1="4512" y1="4125" x2="4512" y2="4032" stroke="red" stroke-width="2" />
  <text x="4800" y="4032" fill="black">dokonalý-j</text>
  <line x1="4560" y1="4170" x2="4608" y2="4170" stroke="green" stroke-width="2" />
  <line x1="4560" y1="4080" x2="4752" y2="4080" stroke="green" stroke-width="2" />
  <line x1="4560" y1="4170" x2="4560" y2="4080" stroke="red" stroke-width="2" />
  <text x="4800" y="4080" fill="black">pozitivní-j</text>
  <line x1="4608" y1="4212" x2="4656" y2="4212" stroke="green" stroke-width="2" />
  <line x1="4608" y1="4128" x2="4752" y2="4128" stroke="green" stroke-width="2" />
  <line x1="4608" y1="4212" x2="4608" y2="4128" stroke="red" stroke-width="2" />
  <text x="4800" y="4128" fill="black">obvyklý-j</text>
  <line x1="4656" y1="4248" x2="4704" y2="4248" stroke="green" stroke-width="2" />
  <line x1="4656" y1="4176" x2="4752" y2="4176" stroke="green" stroke-width="2" />
  <line x1="4656" y1="4248" x2="4656" y2="4176" stroke="red" stroke-width="2" />
  <text x="4800" y="4176" fill="black">výhodný-j</text>
  <line x1="4704" y1="4272" x2="4752" y2="4272" stroke="green" stroke-width="2" />
  <line x1="4704" y1="4224" x2="4752" y2="4224" stroke="green" stroke-width="2" />
  <line x1="4704" y1="4272" x2="4704" y2="4224" stroke="red" stroke-width="2" />
  <text x="4800" y="4224" fill="black">mocný-j</text>
  <text x="4800" y="4272" fill="black">účinný-j</text>
  <line x1="4704" y1="4368" x2="4752" y2="4368" stroke="green" stroke-width="2" />
  <line x1="4704" y1="4320" x2="4752" y2="4320" stroke="green" stroke-width="2" />
  <line x1="4704" y1="4368" x2="4704" y2="4320" stroke="red" stroke-width="2" />
  <text x="4800" y="4320" fill="black">dostatečný-j</text>
  <text x="4800" y="4368" fill="black">omezený-j</text>
  <line x1="4704" y1="4464" x2="4752" y2="4464" stroke="green" stroke-width="2" />
  <line x1="4704" y1="4416" x2="4752" y2="4416" stroke="green" stroke-width="2" />
  <line x1="4704" y1="4464" x2="4704" y2="4416" stroke="red" stroke-width="2" />
  <text x="4800" y="4416" fill="black">stávající-j</text>
  <text x="4800" y="4464" fill="black">značný-j</text>
  <line x1="4656" y1="4584" x2="4704" y2="4584" stroke="green" stroke-width="2" />
  <line x1="4656" y1="4512" x2="4752" y2="4512" stroke="green" stroke-width="2" />
  <line x1="4656" y1="4584" x2="4656" y2="4512" stroke="red" stroke-width="2" />
  <text x="4800" y="4512" fill="black">kompletní-j</text>
  <line x1="4704" y1="4608" x2="4752" y2="4608" stroke="green" stroke-width="2" />
  <line x1="4704" y1="4560" x2="4752" y2="4560" stroke="green" stroke-width="2" />
  <line x1="4704" y1="4608" x2="4704" y2="4560" stroke="red" stroke-width="2" />
  <text x="4800" y="4560" fill="black">častý-j</text>
  <text x="4800" y="4608" fill="black">typický-j</text>
  <line x1="4656" y1="4728" x2="4704" y2="4728" stroke="green" stroke-width="2" />
  <line x1="4656" y1="4656" x2="4752" y2="4656" stroke="green" stroke-width="2" />
  <line x1="4656" y1="4728" x2="4656" y2="4656" stroke="red" stroke-width="2" />
  <text x="4800" y="4656" fill="black">následný-j</text>
  <line x1="4704" y1="4752" x2="4752" y2="4752" stroke="green" stroke-width="2" />
  <line x1="4704" y1="4704" x2="4752" y2="4704" stroke="green" stroke-width="2" />
  <line x1="4704" y1="4752" x2="4704" y2="4704" stroke="red" stroke-width="2" />
  <text x="4800" y="4704" fill="black">schopný-j</text>
  <text x="4800" y="4752" fill="black">platný-j</text>
</svg>
