<svg width="4800" height="4800">
  <line x1="0" y1="1740" x2="48" y2="1740" stroke="green" stroke-width="2" />
  <line x1="0" y1="0" x2="4752" y2="0" stroke="green" stroke-width="2" />
  <line x1="0" y1="1740" x2="0" y2="0" stroke="red" stroke-width="2" />
  <text x="4800" y="0" fill="black">click-v</text>
  <line x1="48" y1="3432" x2="96" y2="3432" stroke="green" stroke-width="2" />
  <line x1="48" y1="48" x2="4752" y2="48" stroke="green" stroke-width="2" />
  <line x1="48" y1="3432" x2="48" y2="48" stroke="red" stroke-width="2" />
  <text x="4800" y="48" fill="black">conclude-v</text>
  <line x1="96" y1="4639" x2="4368" y2="4639" stroke="green" stroke-width="2" />
  <line x1="96" y1="2226" x2="528" y2="2226" stroke="green" stroke-width="2" />
  <line x1="96" y1="4639" x2="96" y2="2226" stroke="red" stroke-width="2" />
  <line x1="528" y1="4296" x2="4704" y2="4296" stroke="green" stroke-width="2" />
  <line x1="528" y1="156" x2="624" y2="156" stroke="green" stroke-width="2" />
  <line x1="528" y1="4296" x2="528" y2="156" stroke="red" stroke-width="2" />
  <line x1="624" y1="217" x2="672" y2="217" stroke="green" stroke-width="2" />
  <line x1="624" y1="96" x2="4752" y2="96" stroke="green" stroke-width="2" />
  <line x1="624" y1="217" x2="624" y2="96" stroke="red" stroke-width="2" />
  <text x="4800" y="96" fill="black">surround-v</text>
  <line x1="672" y1="291" x2="720" y2="291" stroke="green" stroke-width="2" />
  <line x1="672" y1="144" x2="4752" y2="144" stroke="green" stroke-width="2" />
  <line x1="672" y1="291" x2="672" y2="144" stroke="red" stroke-width="2" />
  <text x="4800" y="144" fill="black">clean-v</text>
  <line x1="720" y1="390" x2="768" y2="390" stroke="green" stroke-width="2" />
  <line x1="720" y1="192" x2="4752" y2="192" stroke="green" stroke-width="2" />
  <line x1="720" y1="390" x2="720" y2="192" stroke="red" stroke-width="2" />
  <text x="4800" y="192" fill="black">survive-v</text>
  <line x1="768" y1="516" x2="864" y2="516" stroke="green" stroke-width="2" />
  <line x1="768" y1="264" x2="4704" y2="264" stroke="green" stroke-width="2" />
  <line x1="768" y1="516" x2="768" y2="264" stroke="red" stroke-width="2" />
  <line x1="4704" y1="288" x2="4752" y2="288" stroke="green" stroke-width="2" />
  <line x1="4704" y1="240" x2="4752" y2="240" stroke="green" stroke-width="2" />
  <line x1="4704" y1="288" x2="4704" y2="240" stroke="red" stroke-width="2" />
  <text x="4800" y="240" fill="black">destroy-v</text>
  <text x="4800" y="288" fill="black">solve-v</text>
  <line x1="864" y1="697" x2="912" y2="697" stroke="green" stroke-width="2" />
  <line x1="864" y1="336" x2="4752" y2="336" stroke="green" stroke-width="2" />
  <line x1="864" y1="697" x2="864" y2="336" stroke="red" stroke-width="2" />
  <text x="4800" y="336" fill="black">ignore-v</text>
  <line x1="912" y1="1010" x2="960" y2="1010" stroke="green" stroke-width="2" />
  <line x1="912" y1="384" x2="4752" y2="384" stroke="green" stroke-width="2" />
  <line x1="912" y1="1010" x2="912" y2="384" stroke="red" stroke-width="2" />
  <text x="4800" y="384" fill="black">deny-v</text>
  <line x1="960" y1="1588" x2="1008" y2="1588" stroke="green" stroke-width="2" />
  <line x1="960" y1="432" x2="4752" y2="432" stroke="green" stroke-width="2" />
  <line x1="960" y1="1588" x2="960" y2="432" stroke="red" stroke-width="2" />
  <text x="4800" y="432" fill="black">cost-v</text>
  <line x1="1008" y1="2696" x2="1056" y2="2696" stroke="green" stroke-width="2" />
  <line x1="1008" y1="480" x2="4752" y2="480" stroke="green" stroke-width="2" />
  <line x1="1008" y1="2696" x2="1008" y2="480" stroke="red" stroke-width="2" />
  <text x="4800" y="480" fill="black">care-v</text>
  <line x1="1056" y1="4200" x2="4704" y2="4200" stroke="green" stroke-width="2" />
  <line x1="1056" y1="1193" x2="1152" y2="1193" stroke="green" stroke-width="2" />
  <line x1="1056" y1="4200" x2="1056" y2="1193" stroke="red" stroke-width="2" />
  <line x1="1152" y1="1859" x2="1200" y2="1859" stroke="green" stroke-width="2" />
  <line x1="1152" y1="528" x2="4752" y2="528" stroke="green" stroke-width="2" />
  <line x1="1152" y1="1859" x2="1152" y2="528" stroke="red" stroke-width="2" />
  <text x="4800" y="528" fill="black">search-v</text>
  <line x1="1200" y1="3086" x2="3648" y2="3086" stroke="green" stroke-width="2" />
  <line x1="1200" y1="633" x2="2352" y2="633" stroke="green" stroke-width="2" />
  <line x1="1200" y1="3086" x2="1200" y2="633" stroke="red" stroke-width="2" />
  <line x1="2352" y1="690" x2="2400" y2="690" stroke="green" stroke-width="2" />
  <line x1="2352" y1="576" x2="4752" y2="576" stroke="green" stroke-width="2" />
  <line x1="2352" y1="690" x2="2352" y2="576" stroke="red" stroke-width="2" />
  <text x="4800" y="576" fill="black">marry-v</text>
  <line x1="2400" y1="756" x2="2448" y2="756" stroke="green" stroke-width="2" />
  <line x1="2400" y1="624" x2="4752" y2="624" stroke="green" stroke-width="2" />
  <line x1="2400" y1="756" x2="2400" y2="624" stroke="red" stroke-width="2" />
  <text x="4800" y="624" fill="black">vary-v</text>
  <line x1="2448" y1="840" x2="2496" y2="840" stroke="green" stroke-width="2" />
  <line x1="2448" y1="672" x2="4752" y2="672" stroke="green" stroke-width="2" />
  <line x1="2448" y1="840" x2="2448" y2="672" stroke="red" stroke-width="2" />
  <text x="4800" y="672" fill="black">answer-v</text>
  <line x1="2496" y1="925" x2="2640" y2="925" stroke="green" stroke-width="2" />
  <line x1="2496" y1="756" x2="4656" y2="756" stroke="green" stroke-width="2" />
  <line x1="2496" y1="925" x2="2496" y2="756" stroke="red" stroke-width="2" />
  <line x1="4656" y1="792" x2="4704" y2="792" stroke="green" stroke-width="2" />
  <line x1="4656" y1="720" x2="4752" y2="720" stroke="green" stroke-width="2" />
  <line x1="4656" y1="792" x2="4656" y2="720" stroke="red" stroke-width="2" />
  <text x="4800" y="720" fill="black">edit-v</text>
  <line x1="4704" y1="816" x2="4752" y2="816" stroke="green" stroke-width="2" />
  <line x1="4704" y1="768" x2="4752" y2="768" stroke="green" stroke-width="2" />
  <line x1="4704" y1="816" x2="4704" y2="768" stroke="red" stroke-width="2" />
  <text x="4800" y="768" fill="black">listen-v</text>
  <text x="4800" y="816" fill="black">update-v</text>
  <line x1="2640" y1="987" x2="2688" y2="987" stroke="green" stroke-width="2" />
  <line x1="2640" y1="864" x2="4752" y2="864" stroke="green" stroke-width="2" />
  <line x1="2640" y1="987" x2="2640" y2="864" stroke="red" stroke-width="2" />
  <text x="4800" y="864" fill="black">submit-v</text>
  <line x1="2688" y1="1062" x2="2736" y2="1062" stroke="green" stroke-width="2" />
  <line x1="2688" y1="912" x2="4752" y2="912" stroke="green" stroke-width="2" />
  <line x1="2688" y1="1062" x2="2688" y2="912" stroke="red" stroke-width="2" />
  <text x="4800" y="912" fill="black">register-v</text>
  <line x1="2736" y1="1165" x2="2784" y2="1165" stroke="green" stroke-width="2" />
  <line x1="2736" y1="960" x2="4752" y2="960" stroke="green" stroke-width="2" />
  <line x1="2736" y1="1165" x2="2736" y2="960" stroke="red" stroke-width="2" />
  <text x="4800" y="960" fill="black">order-v</text>
  <line x1="2784" y1="1323" x2="2832" y2="1323" stroke="green" stroke-width="2" />
  <line x1="2784" y1="1008" x2="4752" y2="1008" stroke="green" stroke-width="2" />
  <line x1="2784" y1="1323" x2="2784" y2="1008" stroke="red" stroke-width="2" />
  <text x="4800" y="1008" fill="black">request-v</text>
  <line x1="2832" y1="1590" x2="2880" y2="1590" stroke="green" stroke-width="2" />
  <line x1="2832" y1="1056" x2="4752" y2="1056" stroke="green" stroke-width="2" />
  <line x1="2832" y1="1590" x2="2832" y2="1056" stroke="red" stroke-width="2" />
  <text x="4800" y="1056" fill="black">confirm-v</text>
  <line x1="2880" y1="2076" x2="2928" y2="2076" stroke="green" stroke-width="2" />
  <line x1="2880" y1="1104" x2="4752" y2="1104" stroke="green" stroke-width="2" />
  <line x1="2880" y1="2076" x2="2880" y2="1104" stroke="red" stroke-width="2" />
  <text x="4800" y="1104" fill="black">intend-v</text>
  <line x1="2928" y1="2952" x2="4704" y2="2952" stroke="green" stroke-width="2" />
  <line x1="2928" y1="1200" x2="3024" y2="1200" stroke="green" stroke-width="2" />
  <line x1="2928" y1="2952" x2="2928" y2="1200" stroke="red" stroke-width="2" />
  <line x1="3024" y1="1248" x2="3072" y2="1248" stroke="green" stroke-width="2" />
  <line x1="3024" y1="1152" x2="4752" y2="1152" stroke="green" stroke-width="2" />
  <line x1="3024" y1="1248" x2="3024" y2="1152" stroke="red" stroke-width="2" />
  <text x="4800" y="1152" fill="black">commit-v</text>
  <line x1="3072" y1="1296" x2="3120" y2="1296" stroke="green" stroke-width="2" />
  <line x1="3072" y1="1200" x2="4752" y2="1200" stroke="green" stroke-width="2" />
  <line x1="3072" y1="1296" x2="3072" y2="1200" stroke="red" stroke-width="2" />
  <text x="4800" y="1200" fill="black">acquire-v</text>
  <line x1="3120" y1="1345" x2="3168" y2="1345" stroke="green" stroke-width="2" />
  <line x1="3120" y1="1248" x2="4752" y2="1248" stroke="green" stroke-width="2" />
  <line x1="3120" y1="1345" x2="3120" y2="1248" stroke="red" stroke-width="2" />
  <text x="4800" y="1248" fill="black">issue-v</text>
  <line x1="3168" y1="1395" x2="3216" y2="1395" stroke="green" stroke-width="2" />
  <line x1="3168" y1="1296" x2="4752" y2="1296" stroke="green" stroke-width="2" />
  <line x1="3168" y1="1395" x2="3168" y2="1296" stroke="red" stroke-width="2" />
  <text x="4800" y="1296" fill="black">file-v</text>
  <line x1="3216" y1="1447" x2="3264" y2="1447" stroke="green" stroke-width="2" />
  <line x1="3216" y1="1344" x2="4752" y2="1344" stroke="green" stroke-width="2" />
  <line x1="3216" y1="1447" x2="3216" y2="1344" stroke="red" stroke-width="2" />
  <text x="4800" y="1344" fill="black">adopt-v</text>
  <line x1="3264" y1="1502" x2="3312" y2="1502" stroke="green" stroke-width="2" />
  <line x1="3264" y1="1392" x2="4752" y2="1392" stroke="green" stroke-width="2" />
  <line x1="3264" y1="1502" x2="3264" y2="1392" stroke="red" stroke-width="2" />
  <text x="4800" y="1392" fill="black">employ-v</text>
  <line x1="3312" y1="1564" x2="3360" y2="1564" stroke="green" stroke-width="2" />
  <line x1="3312" y1="1440" x2="4752" y2="1440" stroke="green" stroke-width="2" />
  <line x1="3312" y1="1564" x2="3312" y2="1440" stroke="red" stroke-width="2" />
  <text x="4800" y="1440" fill="black">inform-v</text>
  <line x1="3360" y1="1641" x2="3408" y2="1641" stroke="green" stroke-width="2" />
  <line x1="3360" y1="1488" x2="4752" y2="1488" stroke="green" stroke-width="2" />
  <line x1="3360" y1="1641" x2="3360" y2="1488" stroke="red" stroke-width="2" />
  <text x="4800" y="1488" fill="black">supply-v</text>
  <line x1="3408" y1="1746" x2="3456" y2="1746" stroke="green" stroke-width="2" />
  <line x1="3408" y1="1536" x2="4752" y2="1536" stroke="green" stroke-width="2" />
  <line x1="3408" y1="1746" x2="3408" y2="1536" stroke="red" stroke-width="2" />
  <text x="4800" y="1536" fill="black">incorporate-v</text>
  <line x1="3456" y1="1908" x2="3504" y2="1908" stroke="green" stroke-width="2" />
  <line x1="3456" y1="1584" x2="4752" y2="1584" stroke="green" stroke-width="2" />
  <line x1="3456" y1="1908" x2="3456" y2="1584" stroke="red" stroke-width="2" />
  <text x="4800" y="1584" fill="black">invest-v</text>
  <line x1="3504" y1="2185" x2="3552" y2="2185" stroke="green" stroke-width="2" />
  <line x1="3504" y1="1632" x2="4752" y2="1632" stroke="green" stroke-width="2" />
  <line x1="3504" y1="2185" x2="3504" y2="1632" stroke="red" stroke-width="2" />
  <text x="4800" y="1632" fill="black">monitor-v</text>
  <line x1="3552" y1="2639" x2="4464" y2="2639" stroke="green" stroke-width="2" />
  <line x1="3552" y1="1731" x2="3888" y2="1731" stroke="green" stroke-width="2" />
  <line x1="3552" y1="2639" x2="3552" y2="1731" stroke="red" stroke-width="2" />
  <line x1="3888" y1="1783" x2="3936" y2="1783" stroke="green" stroke-width="2" />
  <line x1="3888" y1="1680" x2="4752" y2="1680" stroke="green" stroke-width="2" />
  <line x1="3888" y1="1783" x2="3888" y2="1680" stroke="red" stroke-width="2" />
  <text x="4800" y="1680" fill="black">attach-v</text>
  <line x1="3936" y1="1839" x2="3984" y2="1839" stroke="green" stroke-width="2" />
  <line x1="3936" y1="1728" x2="4752" y2="1728" stroke="green" stroke-width="2" />
  <line x1="3936" y1="1839" x2="3936" y2="1728" stroke="red" stroke-width="2" />
  <text x="4800" y="1728" fill="black">display-v</text>
  <line x1="3984" y1="1903" x2="4032" y2="1903" stroke="green" stroke-width="2" />
  <line x1="3984" y1="1776" x2="4752" y2="1776" stroke="green" stroke-width="2" />
  <line x1="3984" y1="1903" x2="3984" y2="1776" stroke="red" stroke-width="2" />
  <text x="4800" y="1776" fill="black">store-v</text>
  <line x1="4032" y1="1982" x2="4080" y2="1982" stroke="green" stroke-width="2" />
  <line x1="4032" y1="1824" x2="4752" y2="1824" stroke="green" stroke-width="2" />
  <line x1="4032" y1="1982" x2="4032" y2="1824" stroke="red" stroke-width="2" />
  <text x="4800" y="1824" fill="black">stick-v</text>
  <line x1="4080" y1="2093" x2="4128" y2="2093" stroke="green" stroke-width="2" />
  <line x1="4080" y1="1872" x2="4752" y2="1872" stroke="green" stroke-width="2" />
  <line x1="4080" y1="2093" x2="4080" y2="1872" stroke="red" stroke-width="2" />
  <text x="4800" y="1872" fill="black">spread-v</text>
  <line x1="4128" y1="2267" x2="4176" y2="2267" stroke="green" stroke-width="2" />
  <line x1="4128" y1="1920" x2="4752" y2="1920" stroke="green" stroke-width="2" />
  <line x1="4128" y1="2267" x2="4128" y2="1920" stroke="red" stroke-width="2" />
  <text x="4800" y="1920" fill="black">feed-v</text>
  <line x1="4176" y1="2520" x2="4704" y2="2520" stroke="green" stroke-width="2" />
  <line x1="4176" y1="2015" x2="4272" y2="2015" stroke="green" stroke-width="2" />
  <line x1="4176" y1="2520" x2="4176" y2="2015" stroke="red" stroke-width="2" />
  <line x1="4272" y1="2063" x2="4320" y2="2063" stroke="green" stroke-width="2" />
  <line x1="4272" y1="1968" x2="4752" y2="1968" stroke="green" stroke-width="2" />
  <line x1="4272" y1="2063" x2="4272" y2="1968" stroke="red" stroke-width="2" />
  <text x="4800" y="1968" fill="black">challenge-v</text>
  <line x1="4320" y1="2111" x2="4368" y2="2111" stroke="green" stroke-width="2" />
  <line x1="4320" y1="2016" x2="4752" y2="2016" stroke="green" stroke-width="2" />
  <line x1="4320" y1="2111" x2="4320" y2="2016" stroke="red" stroke-width="2" />
  <text x="4800" y="2016" fill="black">approve-v</text>
  <line x1="4368" y1="2159" x2="4416" y2="2159" stroke="green" stroke-width="2" />
  <line x1="4368" y1="2064" x2="4752" y2="2064" stroke="green" stroke-width="2" />
  <line x1="4368" y1="2159" x2="4368" y2="2064" stroke="red" stroke-width="2" />
  <text x="4800" y="2064" fill="black">charge-v</text>
  <line x1="4416" y1="2207" x2="4464" y2="2207" stroke="green" stroke-width="2" />
  <line x1="4416" y1="2112" x2="4752" y2="2112" stroke="green" stroke-width="2" />
  <line x1="4416" y1="2207" x2="4416" y2="2112" stroke="red" stroke-width="2" />
  <text x="4800" y="2112" fill="black">record-v</text>
  <line x1="4464" y1="2254" x2="4512" y2="2254" stroke="green" stroke-width="2" />
  <line x1="4464" y1="2160" x2="4752" y2="2160" stroke="green" stroke-width="2" />
  <line x1="4464" y1="2254" x2="4464" y2="2160" stroke="red" stroke-width="2" />
  <text x="4800" y="2160" fill="black">link-v</text>
  <line x1="4512" y1="2301" x2="4560" y2="2301" stroke="green" stroke-width="2" />
  <line x1="4512" y1="2208" x2="4752" y2="2208" stroke="green" stroke-width="2" />
  <line x1="4512" y1="2301" x2="4512" y2="2208" stroke="red" stroke-width="2" />
  <text x="4800" y="2208" fill="black">head-v</text>
  <line x1="4560" y1="2346" x2="4608" y2="2346" stroke="green" stroke-width="2" />
  <line x1="4560" y1="2256" x2="4752" y2="2256" stroke="green" stroke-width="2" />
  <line x1="4560" y1="2346" x2="4560" y2="2256" stroke="red" stroke-width="2" />
  <text x="4800" y="2256" fill="black">capture-v</text>
  <line x1="4608" y1="2388" x2="4656" y2="2388" stroke="green" stroke-width="2" />
  <line x1="4608" y1="2304" x2="4752" y2="2304" stroke="green" stroke-width="2" />
  <line x1="4608" y1="2388" x2="4608" y2="2304" stroke="red" stroke-width="2" />
  <text x="4800" y="2304" fill="black">earn-v</text>
  <line x1="4656" y1="2424" x2="4704" y2="2424" stroke="green" stroke-width="2" />
  <line x1="4656" y1="2352" x2="4752" y2="2352" stroke="green" stroke-width="2" />
  <line x1="4656" y1="2424" x2="4656" y2="2352" stroke="red" stroke-width="2" />
  <text x="4800" y="2352" fill="black">throw-v</text>
  <line x1="4704" y1="2448" x2="4752" y2="2448" stroke="green" stroke-width="2" />
  <line x1="4704" y1="2400" x2="4752" y2="2400" stroke="green" stroke-width="2" />
  <line x1="4704" y1="2448" x2="4704" y2="2400" stroke="red" stroke-width="2" />
  <text x="4800" y="2400" fill="black">drop-v</text>
  <text x="4800" y="2448" fill="black">push-v</text>
  <line x1="4704" y1="2544" x2="4752" y2="2544" stroke="green" stroke-width="2" />
  <line x1="4704" y1="2496" x2="4752" y2="2496" stroke="green" stroke-width="2" />
  <line x1="4704" y1="2544" x2="4704" y2="2496" stroke="red" stroke-width="2" />
  <text x="4800" y="2496" fill="black">fly-v</text>
  <text x="4800" y="2544" fill="black">shoot-v</text>
  <line x1="4464" y1="2686" x2="4512" y2="2686" stroke="green" stroke-width="2" />
  <line x1="4464" y1="2592" x2="4752" y2="2592" stroke="green" stroke-width="2" />
  <line x1="4464" y1="2686" x2="4464" y2="2592" stroke="red" stroke-width="2" />
  <text x="4800" y="2592" fill="black">organize-v</text>
  <line x1="4512" y1="2733" x2="4560" y2="2733" stroke="green" stroke-width="2" />
  <line x1="4512" y1="2640" x2="4752" y2="2640" stroke="green" stroke-width="2" />
  <line x1="4512" y1="2733" x2="4512" y2="2640" stroke="red" stroke-width="2" />
  <text x="4800" y="2640" fill="black">train-v</text>
  <line x1="4560" y1="2778" x2="4608" y2="2778" stroke="green" stroke-width="2" />
  <line x1="4560" y1="2688" x2="4752" y2="2688" stroke="green" stroke-width="2" />
  <line x1="4560" y1="2778" x2="4560" y2="2688" stroke="red" stroke-width="2" />
  <text x="4800" y="2688" fill="black">host-v</text>
  <line x1="4608" y1="2820" x2="4656" y2="2820" stroke="green" stroke-width="2" />
  <line x1="4608" y1="2736" x2="4752" y2="2736" stroke="green" stroke-width="2" />
  <line x1="4608" y1="2820" x2="4608" y2="2736" stroke="red" stroke-width="2" />
  <text x="4800" y="2736" fill="black">launch-v</text>
  <line x1="4656" y1="2856" x2="4704" y2="2856" stroke="green" stroke-width="2" />
  <line x1="4656" y1="2784" x2="4752" y2="2784" stroke="green" stroke-width="2" />
  <line x1="4656" y1="2856" x2="4656" y2="2784" stroke="red" stroke-width="2" />
  <text x="4800" y="2784" fill="black">analyze-v</text>
  <line x1="4704" y1="2880" x2="4752" y2="2880" stroke="green" stroke-width="2" />
  <line x1="4704" y1="2832" x2="4752" y2="2832" stroke="green" stroke-width="2" />
  <line x1="4704" y1="2880" x2="4704" y2="2832" stroke="red" stroke-width="2" />
  <text x="4800" y="2832" fill="black">assess-v</text>
  <text x="4800" y="2880" fill="black">evaluate-v</text>
  <line x1="4704" y1="2976" x2="4752" y2="2976" stroke="green" stroke-width="2" />
  <line x1="4704" y1="2928" x2="4752" y2="2928" stroke="green" stroke-width="2" />
  <line x1="4704" y1="2976" x2="4704" y2="2928" stroke="red" stroke-width="2" />
  <text x="4800" y="2928" fill="black">attempt-v</text>
  <text x="4800" y="2976" fill="black">rely-v</text>
  <line x1="3648" y1="3149" x2="3696" y2="3149" stroke="green" stroke-width="2" />
  <line x1="3648" y1="3024" x2="4752" y2="3024" stroke="green" stroke-width="2" />
  <line x1="3648" y1="3149" x2="3648" y2="3024" stroke="red" stroke-width="2" />
  <text x="4800" y="3024" fill="black">specify-v</text>
  <line x1="3696" y1="3227" x2="3744" y2="3227" stroke="green" stroke-width="2" />
  <line x1="3696" y1="3072" x2="4752" y2="3072" stroke="green" stroke-width="2" />
  <line x1="3696" y1="3227" x2="3696" y2="3072" stroke="red" stroke-width="2" />
  <text x="4800" y="3072" fill="black">calculate-v</text>
  <line x1="3744" y1="3334" x2="3792" y2="3334" stroke="green" stroke-width="2" />
  <line x1="3744" y1="3120" x2="4752" y2="3120" stroke="green" stroke-width="2" />
  <line x1="3744" y1="3334" x2="3744" y2="3120" stroke="red" stroke-width="2" />
  <text x="4800" y="3120" fill="black">investigate-v</text>
  <line x1="3792" y1="3456" x2="4032" y2="3456" stroke="green" stroke-width="2" />
  <line x1="3792" y1="3213" x2="4560" y2="3213" stroke="green" stroke-width="2" />
  <line x1="3792" y1="3456" x2="3792" y2="3213" stroke="red" stroke-width="2" />
  <line x1="4560" y1="3258" x2="4608" y2="3258" stroke="green" stroke-width="2" />
  <line x1="4560" y1="3168" x2="4752" y2="3168" stroke="green" stroke-width="2" />
  <line x1="4560" y1="3258" x2="4560" y2="3168" stroke="red" stroke-width="2" />
  <text x="4800" y="3168" fill="black">admit-v</text>
  <line x1="4608" y1="3300" x2="4656" y2="3300" stroke="green" stroke-width="2" />
  <line x1="4608" y1="3216" x2="4752" y2="3216" stroke="green" stroke-width="2" />
  <line x1="4608" y1="3300" x2="4608" y2="3216" stroke="red" stroke-width="2" />
  <text x="4800" y="3216" fill="black">aim-v</text>
  <line x1="4656" y1="3336" x2="4704" y2="3336" stroke="green" stroke-width="2" />
  <line x1="4656" y1="3264" x2="4752" y2="3264" stroke="green" stroke-width="2" />
  <line x1="4656" y1="3336" x2="4656" y2="3264" stroke="red" stroke-width="2" />
  <text x="4800" y="3264" fill="black">invite-v</text>
  <line x1="4704" y1="3360" x2="4752" y2="3360" stroke="green" stroke-width="2" />
  <line x1="4704" y1="3312" x2="4752" y2="3312" stroke="green" stroke-width="2" />
  <line x1="4704" y1="3360" x2="4704" y2="3312" stroke="red" stroke-width="2" />
  <text x="4800" y="3312" fill="black">examine-v</text>
  <text x="4800" y="3360" fill="black">estimate-v</text>
  <line x1="4032" y1="3504" x2="4080" y2="3504" stroke="green" stroke-width="2" />
  <line x1="4032" y1="3408" x2="4752" y2="3408" stroke="green" stroke-width="2" />
  <line x1="4032" y1="3504" x2="4032" y2="3408" stroke="red" stroke-width="2" />
  <text x="4800" y="3408" fill="black">refuse-v</text>
  <line x1="4080" y1="3553" x2="4128" y2="3553" stroke="green" stroke-width="2" />
  <line x1="4080" y1="3456" x2="4752" y2="3456" stroke="green" stroke-width="2" />
  <line x1="4080" y1="3553" x2="4080" y2="3456" stroke="red" stroke-width="2" />
  <text x="4800" y="3456" fill="black">mark-v</text>
  <line x1="4128" y1="3603" x2="4176" y2="3603" stroke="green" stroke-width="2" />
  <line x1="4128" y1="3504" x2="4752" y2="3504" stroke="green" stroke-width="2" />
  <line x1="4128" y1="3603" x2="4128" y2="3504" stroke="red" stroke-width="2" />
  <text x="4800" y="3504" fill="black">direct-v</text>
  <line x1="4176" y1="3655" x2="4224" y2="3655" stroke="green" stroke-width="2" />
  <line x1="4176" y1="3552" x2="4752" y2="3552" stroke="green" stroke-width="2" />
  <line x1="4176" y1="3655" x2="4176" y2="3552" stroke="red" stroke-width="2" />
  <text x="4800" y="3552" fill="black">lay-v</text>
  <line x1="4224" y1="3710" x2="4272" y2="3710" stroke="green" stroke-width="2" />
  <line x1="4224" y1="3600" x2="4752" y2="3600" stroke="green" stroke-width="2" />
  <line x1="4224" y1="3710" x2="4224" y2="3600" stroke="red" stroke-width="2" />
  <text x="4800" y="3600" fill="black">emerge-v</text>
  <line x1="4272" y1="3772" x2="4320" y2="3772" stroke="green" stroke-width="2" />
  <line x1="4272" y1="3648" x2="4752" y2="3648" stroke="green" stroke-width="2" />
  <line x1="4272" y1="3772" x2="4272" y2="3648" stroke="red" stroke-width="2" />
  <text x="4800" y="3648" fill="black">detect-v</text>
  <line x1="4320" y1="3848" x2="4368" y2="3848" stroke="green" stroke-width="2" />
  <line x1="4320" y1="3696" x2="4752" y2="3696" stroke="green" stroke-width="2" />
  <line x1="4320" y1="3848" x2="4320" y2="3696" stroke="red" stroke-width="2" />
  <text x="4800" y="3696" fill="black">expose-v</text>
  <line x1="4368" y1="3952" x2="4416" y2="3952" stroke="green" stroke-width="2" />
  <line x1="4368" y1="3744" x2="4752" y2="3744" stroke="green" stroke-width="2" />
  <line x1="4368" y1="3952" x2="4368" y2="3744" stroke="red" stroke-width="2" />
  <text x="4800" y="3744" fill="black">decrease-v</text>
  <line x1="4416" y1="4068" x2="4656" y2="4068" stroke="green" stroke-width="2" />
  <line x1="4416" y1="3837" x2="4560" y2="3837" stroke="green" stroke-width="2" />
  <line x1="4416" y1="4068" x2="4416" y2="3837" stroke="red" stroke-width="2" />
  <line x1="4560" y1="3882" x2="4608" y2="3882" stroke="green" stroke-width="2" />
  <line x1="4560" y1="3792" x2="4752" y2="3792" stroke="green" stroke-width="2" />
  <line x1="4560" y1="3882" x2="4560" y2="3792" stroke="red" stroke-width="2" />
  <text x="4800" y="3792" fill="black">access-v</text>
  <line x1="4608" y1="3924" x2="4656" y2="3924" stroke="green" stroke-width="2" />
  <line x1="4608" y1="3840" x2="4752" y2="3840" stroke="green" stroke-width="2" />
  <line x1="4608" y1="3924" x2="4608" y2="3840" stroke="red" stroke-width="2" />
  <text x="4800" y="3840" fill="black">benefit-v</text>
  <line x1="4656" y1="3960" x2="4704" y2="3960" stroke="green" stroke-width="2" />
  <line x1="4656" y1="3888" x2="4752" y2="3888" stroke="green" stroke-width="2" />
  <line x1="4656" y1="3960" x2="4656" y2="3888" stroke="red" stroke-width="2" />
  <text x="4800" y="3888" fill="black">match-v</text>
  <line x1="4704" y1="3984" x2="4752" y2="3984" stroke="green" stroke-width="2" />
  <line x1="4704" y1="3936" x2="4752" y2="3936" stroke="green" stroke-width="2" />
  <line x1="4704" y1="3984" x2="4704" y2="3936" stroke="red" stroke-width="2" />
  <text x="4800" y="3936" fill="black">enhance-v</text>
  <text x="4800" y="3984" fill="black">influence-v</text>
  <line x1="4656" y1="4104" x2="4704" y2="4104" stroke="green" stroke-width="2" />
  <line x1="4656" y1="4032" x2="4752" y2="4032" stroke="green" stroke-width="2" />
  <line x1="4656" y1="4104" x2="4656" y2="4032" stroke="red" stroke-width="2" />
  <text x="4800" y="4032" fill="black">assist-v</text>
  <line x1="4704" y1="4128" x2="4752" y2="4128" stroke="green" stroke-width="2" />
  <line x1="4704" y1="4080" x2="4752" y2="4080" stroke="green" stroke-width="2" />
  <line x1="4704" y1="4128" x2="4704" y2="4080" stroke="red" stroke-width="2" />
  <text x="4800" y="4080" fill="black">convert-v</text>
  <text x="4800" y="4128" fill="black">transfer-v</text>
  <line x1="4704" y1="4224" x2="4752" y2="4224" stroke="green" stroke-width="2" />
  <line x1="4704" y1="4176" x2="4752" y2="4176" stroke="green" stroke-width="2" />
  <line x1="4704" y1="4224" x2="4704" y2="4176" stroke="red" stroke-width="2" />
  <text x="4800" y="4176" fill="black">forget-v</text>
  <text x="4800" y="4224" fill="black">worry-v</text>
  <line x1="4704" y1="4320" x2="4752" y2="4320" stroke="green" stroke-width="2" />
  <line x1="4704" y1="4272" x2="4752" y2="4272" stroke="green" stroke-width="2" />
  <line x1="4704" y1="4320" x2="4704" y2="4272" stroke="red" stroke-width="2" />
  <text x="4800" y="4272" fill="black">grant-v</text>
  <text x="4800" y="4320" fill="black">arise-v</text>
  <line x1="4368" y1="4728" x2="4704" y2="4728" stroke="green" stroke-width="2" />
  <line x1="4368" y1="4551" x2="4464" y2="4551" stroke="green" stroke-width="2" />
  <line x1="4368" y1="4728" x2="4368" y2="4551" stroke="red" stroke-width="2" />
  <line x1="4464" y1="4632" x2="4704" y2="4632" stroke="green" stroke-width="2" />
  <line x1="4464" y1="4470" x2="4560" y2="4470" stroke="green" stroke-width="2" />
  <line x1="4464" y1="4632" x2="4464" y2="4470" stroke="red" stroke-width="2" />
  <line x1="4560" y1="4536" x2="4704" y2="4536" stroke="green" stroke-width="2" />
  <line x1="4560" y1="4404" x2="4656" y2="4404" stroke="green" stroke-width="2" />
  <line x1="4560" y1="4536" x2="4560" y2="4404" stroke="red" stroke-width="2" />
  <line x1="4656" y1="4440" x2="4704" y2="4440" stroke="green" stroke-width="2" />
  <line x1="4656" y1="4368" x2="4752" y2="4368" stroke="green" stroke-width="2" />
  <line x1="4656" y1="4440" x2="4656" y2="4368" stroke="red" stroke-width="2" />
  <text x="4800" y="4368" fill="black">imagine-v</text>
  <line x1="4704" y1="4464" x2="4752" y2="4464" stroke="green" stroke-width="2" />
  <line x1="4704" y1="4416" x2="4752" y2="4416" stroke="green" stroke-width="2" />
  <line x1="4704" y1="4464" x2="4704" y2="4416" stroke="red" stroke-width="2" />
  <text x="4800" y="4416" fill="black">notice-v</text>
  <text x="4800" y="4464" fill="black">suppose-v</text>
  <line x1="4704" y1="4560" x2="4752" y2="4560" stroke="green" stroke-width="2" />
  <line x1="4704" y1="4512" x2="4752" y2="4512" stroke="green" stroke-width="2" />
  <line x1="4704" y1="4560" x2="4704" y2="4512" stroke="red" stroke-width="2" />
  <text x="4800" y="4512" fill="black">sound-v</text>
  <text x="4800" y="4560" fill="black">appreciate-v</text>
  <line x1="4704" y1="4656" x2="4752" y2="4656" stroke="green" stroke-width="2" />
  <line x1="4704" y1="4608" x2="4752" y2="4608" stroke="green" stroke-width="2" />
  <line x1="4704" y1="4656" x2="4704" y2="4608" stroke="red" stroke-width="2" />
  <text x="4800" y="4608" fill="black">wonder-v</text>
  <text x="4800" y="4656" fill="black">guess-v</text>
  <line x1="4704" y1="4752" x2="4752" y2="4752" stroke="green" stroke-width="2" />
  <line x1="4704" y1="4704" x2="4752" y2="4704" stroke="green" stroke-width="2" />
  <line x1="4704" y1="4752" x2="4704" y2="4704" stroke="red" stroke-width="2" />
  <text x="4800" y="4704" fill="black">consist-v</text>
  <text x="4800" y="4752" fill="black">tend-v</text>
</svg>
