<svg width="4800" height="4800">
  <line x1="0" y1="168" x2="48" y2="168" stroke="green" stroke-width="2" />
  <line x1="0" y1="0" x2="4752" y2="0" stroke="green" stroke-width="2" />
  <line x1="0" y1="168" x2="0" y2="0" stroke="red" stroke-width="2" />
  <text x="4800" y="0" fill="black">5-n</text>
  <line x1="48" y1="288" x2="96" y2="288" stroke="green" stroke-width="2" />
  <line x1="48" y1="48" x2="4752" y2="48" stroke="green" stroke-width="2" />
  <line x1="48" y1="288" x2="48" y2="48" stroke="red" stroke-width="2" />
  <text x="4800" y="48" fill="black">guess-v</text>
  <line x1="96" y1="481" x2="144" y2="481" stroke="green" stroke-width="2" />
  <line x1="96" y1="96" x2="4752" y2="96" stroke="green" stroke-width="2" />
  <line x1="96" y1="481" x2="96" y2="96" stroke="red" stroke-width="2" />
  <text x="4800" y="96" fill="black">auto-n</text>
  <line x1="144" y1="819" x2="192" y2="819" stroke="green" stroke-width="2" />
  <line x1="144" y1="144" x2="4752" y2="144" stroke="green" stroke-width="2" />
  <line x1="144" y1="819" x2="144" y2="144" stroke="red" stroke-width="2" />
  <text x="4800" y="144" fill="black">Chapter-n</text>
  <line x1="192" y1="1446" x2="240" y2="1446" stroke="green" stroke-width="2" />
  <line x1="192" y1="192" x2="4752" y2="192" stroke="green" stroke-width="2" />
  <line x1="192" y1="1446" x2="192" y2="192" stroke="red" stroke-width="2" />
  <text x="4800" y="192" fill="black">originally-a</text>
  <line x1="240" y1="2653" x2="288" y2="2653" stroke="green" stroke-width="2" />
  <line x1="240" y1="240" x2="4752" y2="240" stroke="green" stroke-width="2" />
  <line x1="240" y1="2653" x2="240" y2="240" stroke="red" stroke-width="2" />
  <text x="4800" y="240" fill="black">Inc.-n</text>
  <line x1="288" y1="4692" x2="4656" y2="4692" stroke="green" stroke-width="2" />
  <line x1="288" y1="614" x2="432" y2="614" stroke="green" stroke-width="2" />
  <line x1="288" y1="4692" x2="288" y2="614" stroke="red" stroke-width="2" />
  <line x1="432" y1="940" x2="480" y2="940" stroke="green" stroke-width="2" />
  <line x1="432" y1="288" x2="4752" y2="288" stroke="green" stroke-width="2" />
  <line x1="432" y1="940" x2="432" y2="288" stroke="red" stroke-width="2" />
  <text x="4800" y="288" fill="black">favorite-j</text>
  <line x1="480" y1="1544" x2="528" y2="1544" stroke="green" stroke-width="2" />
  <line x1="480" y1="336" x2="4752" y2="336" stroke="green" stroke-width="2" />
  <line x1="480" y1="1544" x2="480" y2="336" stroke="red" stroke-width="2" />
  <text x="4800" y="336" fill="black">inch-n</text>
  <line x1="528" y1="2705" x2="576" y2="2705" stroke="green" stroke-width="2" />
  <line x1="528" y1="384" x2="4752" y2="384" stroke="green" stroke-width="2" />
  <line x1="528" y1="2705" x2="528" y2="384" stroke="red" stroke-width="2" />
  <text x="4800" y="384" fill="black">helpful-j</text>
  <line x1="576" y1="4584" x2="4704" y2="4584" stroke="green" stroke-width="2" />
  <line x1="576" y1="826" x2="672" y2="826" stroke="green" stroke-width="2" />
  <line x1="576" y1="4584" x2="576" y2="826" stroke="red" stroke-width="2" />
  <line x1="672" y1="1185" x2="816" y2="1185" stroke="green" stroke-width="2" />
  <line x1="672" y1="468" x2="4656" y2="468" stroke="green" stroke-width="2" />
  <line x1="672" y1="1185" x2="672" y2="468" stroke="red" stroke-width="2" />
  <line x1="4656" y1="504" x2="4704" y2="504" stroke="green" stroke-width="2" />
  <line x1="4656" y1="432" x2="4752" y2="432" stroke="green" stroke-width="2" />
  <line x1="4656" y1="504" x2="4656" y2="432" stroke="red" stroke-width="2" />
  <text x="4800" y="432" fill="black">Free-n</text>
  <line x1="4704" y1="528" x2="4752" y2="528" stroke="green" stroke-width="2" />
  <line x1="4704" y1="480" x2="4752" y2="480" stroke="green" stroke-width="2" />
  <line x1="4704" y1="528" x2="4704" y2="480" stroke="red" stroke-width="2" />
  <text x="4800" y="480" fill="black">Data-n</text>
  <text x="4800" y="528" fill="black">Home-n</text>
  <line x1="816" y1="1759" x2="960" y2="1759" stroke="green" stroke-width="2" />
  <line x1="816" y1="612" x2="4656" y2="612" stroke="green" stroke-width="2" />
  <line x1="816" y1="1759" x2="816" y2="612" stroke="red" stroke-width="2" />
  <line x1="4656" y1="648" x2="4704" y2="648" stroke="green" stroke-width="2" />
  <line x1="4656" y1="576" x2="4752" y2="576" stroke="green" stroke-width="2" />
  <line x1="4656" y1="648" x2="4656" y2="576" stroke="red" stroke-width="2" />
  <text x="4800" y="576" fill="black">appreciate-v</text>
  <line x1="4704" y1="672" x2="4752" y2="672" stroke="green" stroke-width="2" />
  <line x1="4704" y1="624" x2="4752" y2="624" stroke="green" stroke-width="2" />
  <line x1="4704" y1="672" x2="4704" y2="624" stroke="red" stroke-width="2" />
  <text x="4800" y="624" fill="black">worry-v</text>
  <text x="4800" y="672" fill="black">marry-v</text>
  <line x1="960" y1="2798" x2="1008" y2="2798" stroke="green" stroke-width="2" />
  <line x1="960" y1="720" x2="4752" y2="720" stroke="green" stroke-width="2" />
  <line x1="960" y1="2798" x2="960" y2="720" stroke="red" stroke-width="2" />
  <text x="4800" y="720" fill="black">early-a</text>
  <line x1="1008" y1="4049" x2="4176" y2="4049" stroke="green" stroke-width="2" />
  <line x1="1008" y1="1547" x2="1632" y2="1547" stroke="green" stroke-width="2" />
  <line x1="1008" y1="4049" x2="1008" y2="1547" stroke="red" stroke-width="2" />
  <line x1="1632" y1="2326" x2="1680" y2="2326" stroke="green" stroke-width="2" />
  <line x1="1632" y1="768" x2="4752" y2="768" stroke="green" stroke-width="2" />
  <line x1="1632" y1="2326" x2="1632" y2="768" stroke="red" stroke-width="2" />
  <text x="4800" y="768" fill="black">over-a</text>
  <line x1="1680" y1="3407" x2="4224" y2="3407" stroke="green" stroke-width="2" />
  <line x1="1680" y1="1244" x2="2256" y2="1244" stroke="green" stroke-width="2" />
  <line x1="1680" y1="3407" x2="1680" y2="1244" stroke="red" stroke-width="2" />
  <line x1="2256" y1="1672" x2="2304" y2="1672" stroke="green" stroke-width="2" />
  <line x1="2256" y1="816" x2="4752" y2="816" stroke="green" stroke-width="2" />
  <line x1="2256" y1="1672" x2="2256" y2="816" stroke="red" stroke-width="2" />
  <text x="4800" y="816" fill="black">ticket-n</text>
  <line x1="2304" y1="2334" x2="2736" y2="2334" stroke="green" stroke-width="2" />
  <line x1="2304" y1="1011" x2="4368" y2="1011" stroke="green" stroke-width="2" />
  <line x1="2304" y1="2334" x2="2304" y2="1011" stroke="red" stroke-width="2" />
  <line x1="4368" y1="1116" x2="4560" y2="1116" stroke="green" stroke-width="2" />
  <line x1="4368" y1="906" x2="4608" y2="906" stroke="green" stroke-width="2" />
  <line x1="4368" y1="1116" x2="4368" y2="906" stroke="red" stroke-width="2" />
  <line x1="4608" y1="948" x2="4656" y2="948" stroke="green" stroke-width="2" />
  <line x1="4608" y1="864" x2="4752" y2="864" stroke="green" stroke-width="2" />
  <line x1="4608" y1="948" x2="4608" y2="864" stroke="red" stroke-width="2" />
  <text x="4800" y="864" fill="black">specify-v</text>
  <line x1="4656" y1="984" x2="4704" y2="984" stroke="green" stroke-width="2" />
  <line x1="4656" y1="912" x2="4752" y2="912" stroke="green" stroke-width="2" />
  <line x1="4656" y1="984" x2="4656" y2="912" stroke="red" stroke-width="2" />
  <text x="4800" y="912" fill="black">request-v</text>
  <line x1="4704" y1="1008" x2="4752" y2="1008" stroke="green" stroke-width="2" />
  <line x1="4704" y1="960" x2="4752" y2="960" stroke="green" stroke-width="2" />
  <line x1="4704" y1="1008" x2="4704" y2="960" stroke="red" stroke-width="2" />
  <text x="4800" y="960" fill="black">calculate-v</text>
  <text x="4800" y="1008" fill="black">analyze-v</text>
  <line x1="4560" y1="1176" x2="4608" y2="1176" stroke="green" stroke-width="2" />
  <line x1="4560" y1="1056" x2="4752" y2="1056" stroke="green" stroke-width="2" />
  <line x1="4560" y1="1176" x2="4560" y2="1056" stroke="red" stroke-width="2" />
  <text x="4800" y="1056" fill="black">chair-n</text>
  <line x1="4608" y1="1224" x2="4704" y2="1224" stroke="green" stroke-width="2" />
  <line x1="4608" y1="1128" x2="4704" y2="1128" stroke="green" stroke-width="2" />
  <line x1="4608" y1="1224" x2="4608" y2="1128" stroke="red" stroke-width="2" />
  <line x1="4704" y1="1152" x2="4752" y2="1152" stroke="green" stroke-width="2" />
  <line x1="4704" y1="1104" x2="4752" y2="1104" stroke="green" stroke-width="2" />
  <line x1="4704" y1="1152" x2="4704" y2="1104" stroke="red" stroke-width="2" />
  <text x="4800" y="1104" fill="black">rise-n</text>
  <text x="4800" y="1152" fill="black">partnership-n</text>
  <line x1="4704" y1="1248" x2="4752" y2="1248" stroke="green" stroke-width="2" />
  <line x1="4704" y1="1200" x2="4752" y2="1200" stroke="green" stroke-width="2" />
  <line x1="4704" y1="1248" x2="4704" y2="1200" stroke="red" stroke-width="2" />
  <text x="4800" y="1200" fill="black">debate-n</text>
  <text x="4800" y="1248" fill="black">novel-n</text>
  <line x1="2736" y1="3288" x2="4704" y2="3288" stroke="green" stroke-width="2" />
  <line x1="2736" y1="1381" x2="2832" y2="1381" stroke="green" stroke-width="2" />
  <line x1="2736" y1="3288" x2="2736" y2="1381" stroke="red" stroke-width="2" />
  <line x1="2832" y1="1443" x2="2928" y2="1443" stroke="green" stroke-width="2" />
  <line x1="2832" y1="1320" x2="4704" y2="1320" stroke="green" stroke-width="2" />
  <line x1="2832" y1="1443" x2="2832" y2="1320" stroke="red" stroke-width="2" />
  <line x1="4704" y1="1344" x2="4752" y2="1344" stroke="green" stroke-width="2" />
  <line x1="4704" y1="1296" x2="4752" y2="1296" stroke="green" stroke-width="2" />
  <line x1="4704" y1="1344" x2="4704" y2="1296" stroke="red" stroke-width="2" />
  <text x="4800" y="1296" fill="black">Christmas-n</text>
  <text x="4800" y="1344" fill="black">wedding-n</text>
  <line x1="2928" y1="1494" x2="2976" y2="1494" stroke="green" stroke-width="2" />
  <line x1="2928" y1="1392" x2="4752" y2="1392" stroke="green" stroke-width="2" />
  <line x1="2928" y1="1494" x2="2928" y2="1392" stroke="red" stroke-width="2" />
  <text x="4800" y="1392" fill="black">friendly-j</text>
  <line x1="2976" y1="1548" x2="3024" y2="1548" stroke="green" stroke-width="2" />
  <line x1="2976" y1="1440" x2="4752" y2="1440" stroke="green" stroke-width="2" />
  <line x1="2976" y1="1548" x2="2976" y2="1440" stroke="red" stroke-width="2" />
  <text x="4800" y="1440" fill="black">comfortable-j</text>
  <line x1="3024" y1="1608" x2="3072" y2="1608" stroke="green" stroke-width="2" />
  <line x1="3024" y1="1488" x2="4752" y2="1488" stroke="green" stroke-width="2" />
  <line x1="3024" y1="1608" x2="3024" y2="1488" stroke="red" stroke-width="2" />
  <text x="4800" y="1488" fill="black">warm-j</text>
  <line x1="3072" y1="1681" x2="3120" y2="1681" stroke="green" stroke-width="2" />
  <line x1="3072" y1="1536" x2="4752" y2="1536" stroke="green" stroke-width="2" />
  <line x1="3072" y1="1681" x2="3072" y2="1536" stroke="red" stroke-width="2" />
  <text x="4800" y="1536" fill="black">register-v</text>
  <line x1="3120" y1="1779" x2="3168" y2="1779" stroke="green" stroke-width="2" />
  <line x1="3120" y1="1584" x2="4752" y2="1584" stroke="green" stroke-width="2" />
  <line x1="3120" y1="1779" x2="3120" y2="1584" stroke="red" stroke-width="2" />
  <text x="4800" y="1584" fill="black">stick-v</text>
  <line x1="3168" y1="1927" x2="3216" y2="1927" stroke="green" stroke-width="2" />
  <line x1="3168" y1="1632" x2="4752" y2="1632" stroke="green" stroke-width="2" />
  <line x1="3168" y1="1927" x2="3168" y2="1632" stroke="red" stroke-width="2" />
  <text x="4800" y="1632" fill="black">cost-v</text>
  <line x1="3216" y1="2174" x2="3264" y2="2174" stroke="green" stroke-width="2" />
  <line x1="3216" y1="1680" x2="4752" y2="1680" stroke="green" stroke-width="2" />
  <line x1="3216" y1="2174" x2="3216" y2="1680" stroke="red" stroke-width="2" />
  <text x="4800" y="1680" fill="black">benefit-v</text>
  <line x1="3264" y1="2621" x2="3312" y2="2621" stroke="green" stroke-width="2" />
  <line x1="3264" y1="1728" x2="4752" y2="1728" stroke="green" stroke-width="2" />
  <line x1="3264" y1="2621" x2="3264" y2="1728" stroke="red" stroke-width="2" />
  <text x="4800" y="1728" fill="black">feed-v</text>
  <line x1="3312" y1="2927" x2="4416" y2="2927" stroke="green" stroke-width="2" />
  <line x1="3312" y1="2316" x2="3696" y2="2316" stroke="green" stroke-width="2" />
  <line x1="3312" y1="2927" x2="3312" y2="2316" stroke="red" stroke-width="2" />
  <line x1="3696" y1="2808" x2="4704" y2="2808" stroke="green" stroke-width="2" />
  <line x1="3696" y1="1824" x2="3792" y2="1824" stroke="green" stroke-width="2" />
  <line x1="3696" y1="2808" x2="3696" y2="1824" stroke="red" stroke-width="2" />
  <line x1="3792" y1="1872" x2="3840" y2="1872" stroke="green" stroke-width="2" />
  <line x1="3792" y1="1776" x2="4752" y2="1776" stroke="green" stroke-width="2" />
  <line x1="3792" y1="1872" x2="3792" y2="1776" stroke="red" stroke-width="2" />
  <text x="4800" y="1776" fill="black">motor-n</text>
  <line x1="3840" y1="1921" x2="3888" y2="1921" stroke="green" stroke-width="2" />
  <line x1="3840" y1="1824" x2="4752" y2="1824" stroke="green" stroke-width="2" />
  <line x1="3840" y1="1921" x2="3840" y2="1824" stroke="red" stroke-width="2" />
  <text x="4800" y="1824" fill="black">engineering-n</text>
  <line x1="3888" y1="1971" x2="3936" y2="1971" stroke="green" stroke-width="2" />
  <line x1="3888" y1="1872" x2="4752" y2="1872" stroke="green" stroke-width="2" />
  <line x1="3888" y1="1971" x2="3888" y2="1872" stroke="red" stroke-width="2" />
  <text x="4800" y="1872" fill="black">radio-n</text>
  <line x1="3936" y1="2023" x2="3984" y2="2023" stroke="green" stroke-width="2" />
  <line x1="3936" y1="1920" x2="4752" y2="1920" stroke="green" stroke-width="2" />
  <line x1="3936" y1="2023" x2="3936" y2="1920" stroke="red" stroke-width="2" />
  <text x="4800" y="1920" fill="black">steel-n</text>
  <line x1="3984" y1="2078" x2="4032" y2="2078" stroke="green" stroke-width="2" />
  <line x1="3984" y1="1968" x2="4752" y2="1968" stroke="green" stroke-width="2" />
  <line x1="3984" y1="2078" x2="3984" y2="1968" stroke="red" stroke-width="2" />
  <text x="4800" y="1968" fill="black">ice-n</text>
  <line x1="4032" y1="2140" x2="4080" y2="2140" stroke="green" stroke-width="2" />
  <line x1="4032" y1="2016" x2="4752" y2="2016" stroke="green" stroke-width="2" />
  <line x1="4032" y1="2140" x2="4032" y2="2016" stroke="red" stroke-width="2" />
  <text x="4800" y="2016" fill="black">ignore-v</text>
  <line x1="4080" y1="2216" x2="4128" y2="2216" stroke="green" stroke-width="2" />
  <line x1="4080" y1="2064" x2="4752" y2="2064" stroke="green" stroke-width="2" />
  <line x1="4080" y1="2216" x2="4080" y2="2064" stroke="red" stroke-width="2" />
  <text x="4800" y="2064" fill="black">bus-n</text>
  <line x1="4128" y1="2321" x2="4176" y2="2321" stroke="green" stroke-width="2" />
  <line x1="4128" y1="2112" x2="4752" y2="2112" stroke="green" stroke-width="2" />
  <line x1="4128" y1="2321" x2="4128" y2="2112" stroke="red" stroke-width="2" />
  <text x="4800" y="2112" fill="black">grade-n</text>
  <line x1="4176" y1="2483" x2="4224" y2="2483" stroke="green" stroke-width="2" />
  <line x1="4176" y1="2160" x2="4752" y2="2160" stroke="green" stroke-width="2" />
  <line x1="4176" y1="2483" x2="4176" y2="2160" stroke="red" stroke-width="2" />
  <text x="4800" y="2160" fill="black">cut-n</text>
  <line x1="4224" y1="2712" x2="4704" y2="2712" stroke="green" stroke-width="2" />
  <line x1="4224" y1="2255" x2="4320" y2="2255" stroke="green" stroke-width="2" />
  <line x1="4224" y1="2712" x2="4224" y2="2255" stroke="red" stroke-width="2" />
  <line x1="4320" y1="2303" x2="4368" y2="2303" stroke="green" stroke-width="2" />
  <line x1="4320" y1="2208" x2="4752" y2="2208" stroke="green" stroke-width="2" />
  <line x1="4320" y1="2303" x2="4320" y2="2208" stroke="red" stroke-width="2" />
  <text x="4800" y="2208" fill="black">survive-v</text>
  <line x1="4368" y1="2351" x2="4416" y2="2351" stroke="green" stroke-width="2" />
  <line x1="4368" y1="2256" x2="4752" y2="2256" stroke="green" stroke-width="2" />
  <line x1="4368" y1="2351" x2="4368" y2="2256" stroke="red" stroke-width="2" />
  <text x="4800" y="2256" fill="black">alternative-n</text>
  <line x1="4416" y1="2399" x2="4464" y2="2399" stroke="green" stroke-width="2" />
  <line x1="4416" y1="2304" x2="4752" y2="2304" stroke="green" stroke-width="2" />
  <line x1="4416" y1="2399" x2="4416" y2="2304" stroke="red" stroke-width="2" />
  <text x="4800" y="2304" fill="black">meal-n</text>
  <line x1="4464" y1="2446" x2="4512" y2="2446" stroke="green" stroke-width="2" />
  <line x1="4464" y1="2352" x2="4752" y2="2352" stroke="green" stroke-width="2" />
  <line x1="4464" y1="2446" x2="4464" y2="2352" stroke="red" stroke-width="2" />
  <text x="4800" y="2352" fill="black">hole-n</text>
  <line x1="4512" y1="2493" x2="4560" y2="2493" stroke="green" stroke-width="2" />
  <line x1="4512" y1="2400" x2="4752" y2="2400" stroke="green" stroke-width="2" />
  <line x1="4512" y1="2493" x2="4512" y2="2400" stroke="red" stroke-width="2" />
  <text x="4800" y="2400" fill="black">tank-n</text>
  <line x1="4560" y1="2538" x2="4608" y2="2538" stroke="green" stroke-width="2" />
  <line x1="4560" y1="2448" x2="4752" y2="2448" stroke="green" stroke-width="2" />
  <line x1="4560" y1="2538" x2="4560" y2="2448" stroke="red" stroke-width="2" />
  <text x="4800" y="2448" fill="black">plate-n</text>
  <line x1="4608" y1="2580" x2="4656" y2="2580" stroke="green" stroke-width="2" />
  <line x1="4608" y1="2496" x2="4752" y2="2496" stroke="green" stroke-width="2" />
  <line x1="4608" y1="2580" x2="4608" y2="2496" stroke="red" stroke-width="2" />
  <text x="4800" y="2496" fill="black">interface-n</text>
  <line x1="4656" y1="2616" x2="4704" y2="2616" stroke="green" stroke-width="2" />
  <line x1="4656" y1="2544" x2="4752" y2="2544" stroke="green" stroke-width="2" />
  <line x1="4656" y1="2616" x2="4656" y2="2544" stroke="red" stroke-width="2" />
  <text x="4800" y="2544" fill="black">diet-n</text>
  <line x1="4704" y1="2640" x2="4752" y2="2640" stroke="green" stroke-width="2" />
  <line x1="4704" y1="2592" x2="4752" y2="2592" stroke="green" stroke-width="2" />
  <line x1="4704" y1="2640" x2="4704" y2="2592" stroke="red" stroke-width="2" />
  <text x="4800" y="2592" fill="black">match-n</text>
  <text x="4800" y="2640" fill="black">journey-n</text>
  <line x1="4704" y1="2736" x2="4752" y2="2736" stroke="green" stroke-width="2" />
  <line x1="4704" y1="2688" x2="4752" y2="2688" stroke="green" stroke-width="2" />
  <line x1="4704" y1="2736" x2="4704" y2="2688" stroke="red" stroke-width="2" />
  <text x="4800" y="2688" fill="black">bird-n</text>
  <text x="4800" y="2736" fill="black">colour-n</text>
  <line x1="4704" y1="2832" x2="4752" y2="2832" stroke="green" stroke-width="2" />
  <line x1="4704" y1="2784" x2="4752" y2="2784" stroke="green" stroke-width="2" />
  <line x1="4704" y1="2832" x2="4704" y2="2784" stroke="red" stroke-width="2" />
  <text x="4800" y="2784" fill="black">solar-j</text>
  <text x="4800" y="2832" fill="black">carbon-n</text>
  <line x1="4416" y1="2975" x2="4464" y2="2975" stroke="green" stroke-width="2" />
  <line x1="4416" y1="2880" x2="4752" y2="2880" stroke="green" stroke-width="2" />
  <line x1="4416" y1="2975" x2="4416" y2="2880" stroke="red" stroke-width="2" />
  <text x="4800" y="2880" fill="black">decrease-v</text>
  <line x1="4464" y1="3022" x2="4512" y2="3022" stroke="green" stroke-width="2" />
  <line x1="4464" y1="2928" x2="4752" y2="2928" stroke="green" stroke-width="2" />
  <line x1="4464" y1="3022" x2="4464" y2="2928" stroke="red" stroke-width="2" />
  <text x="4800" y="2928" fill="black">detect-v</text>
  <line x1="4512" y1="3069" x2="4560" y2="3069" stroke="green" stroke-width="2" />
  <line x1="4512" y1="2976" x2="4752" y2="2976" stroke="green" stroke-width="2" />
  <line x1="4512" y1="3069" x2="4512" y2="2976" stroke="red" stroke-width="2" />
  <text x="4800" y="2976" fill="black">challenge-v</text>
  <line x1="4560" y1="3114" x2="4608" y2="3114" stroke="green" stroke-width="2" />
  <line x1="4560" y1="3024" x2="4752" y2="3024" stroke="green" stroke-width="2" />
  <line x1="4560" y1="3114" x2="4560" y2="3024" stroke="red" stroke-width="2" />
  <text x="4800" y="3024" fill="black">expose-v</text>
  <line x1="4608" y1="3156" x2="4656" y2="3156" stroke="green" stroke-width="2" />
  <line x1="4608" y1="3072" x2="4752" y2="3072" stroke="green" stroke-width="2" />
  <line x1="4608" y1="3156" x2="4608" y2="3072" stroke="red" stroke-width="2" />
  <text x="4800" y="3072" fill="black">invest-v</text>
  <line x1="4656" y1="3192" x2="4704" y2="3192" stroke="green" stroke-width="2" />
  <line x1="4656" y1="3120" x2="4752" y2="3120" stroke="green" stroke-width="2" />
  <line x1="4656" y1="3192" x2="4656" y2="3120" stroke="red" stroke-width="2" />
  <text x="4800" y="3120" fill="black">incorporate-v</text>
  <line x1="4704" y1="3216" x2="4752" y2="3216" stroke="green" stroke-width="2" />
  <line x1="4704" y1="3168" x2="4752" y2="3168" stroke="green" stroke-width="2" />
  <line x1="4704" y1="3216" x2="4704" y2="3168" stroke="red" stroke-width="2" />
  <text x="4800" y="3168" fill="black">convert-v</text>
  <text x="4800" y="3216" fill="black">transfer-v</text>
  <line x1="4704" y1="3312" x2="4752" y2="3312" stroke="green" stroke-width="2" />
  <line x1="4704" y1="3264" x2="4752" y2="3264" stroke="green" stroke-width="2" />
  <line x1="4704" y1="3312" x2="4704" y2="3264" stroke="red" stroke-width="2" />
  <text x="4800" y="3264" fill="black">dead-j</text>
  <text x="4800" y="3312" fill="black">expensive-j</text>
  <line x1="4224" y1="3455" x2="4272" y2="3455" stroke="green" stroke-width="2" />
  <line x1="4224" y1="3360" x2="4752" y2="3360" stroke="green" stroke-width="2" />
  <line x1="4224" y1="3455" x2="4224" y2="3360" stroke="red" stroke-width="2" />
  <text x="4800" y="3360" fill="black">waste-n</text>
  <line x1="4272" y1="3503" x2="4320" y2="3503" stroke="green" stroke-width="2" />
  <line x1="4272" y1="3408" x2="4752" y2="3408" stroke="green" stroke-width="2" />
  <line x1="4272" y1="3503" x2="4272" y2="3408" stroke="red" stroke-width="2" />
  <text x="4800" y="3408" fill="black">effectively-a</text>
  <line x1="4320" y1="3551" x2="4368" y2="3551" stroke="green" stroke-width="2" />
  <line x1="4320" y1="3456" x2="4752" y2="3456" stroke="green" stroke-width="2" />
  <line x1="4320" y1="3551" x2="4320" y2="3456" stroke="red" stroke-width="2" />
  <text x="4800" y="3456" fill="black">corner-n</text>
  <line x1="4368" y1="3599" x2="4416" y2="3599" stroke="green" stroke-width="2" />
  <line x1="4368" y1="3504" x2="4752" y2="3504" stroke="green" stroke-width="2" />
  <line x1="4368" y1="3599" x2="4368" y2="3504" stroke="red" stroke-width="2" />
  <text x="4800" y="3504" fill="black">soul-n</text>
  <line x1="4416" y1="3647" x2="4464" y2="3647" stroke="green" stroke-width="2" />
  <line x1="4416" y1="3552" x2="4752" y2="3552" stroke="green" stroke-width="2" />
  <line x1="4416" y1="3647" x2="4416" y2="3552" stroke="red" stroke-width="2" />
  <text x="4800" y="3552" fill="black">border-n</text>
  <line x1="4464" y1="3694" x2="4512" y2="3694" stroke="green" stroke-width="2" />
  <line x1="4464" y1="3600" x2="4752" y2="3600" stroke="green" stroke-width="2" />
  <line x1="4464" y1="3694" x2="4464" y2="3600" stroke="red" stroke-width="2" />
  <text x="4800" y="3600" fill="black">zone-n</text>
  <line x1="4512" y1="3741" x2="4560" y2="3741" stroke="green" stroke-width="2" />
  <line x1="4512" y1="3648" x2="4752" y2="3648" stroke="green" stroke-width="2" />
  <line x1="4512" y1="3741" x2="4512" y2="3648" stroke="red" stroke-width="2" />
  <text x="4800" y="3648" fill="black">infrastructure-n</text>
  <line x1="4560" y1="3786" x2="4608" y2="3786" stroke="green" stroke-width="2" />
  <line x1="4560" y1="3696" x2="4752" y2="3696" stroke="green" stroke-width="2" />
  <line x1="4560" y1="3786" x2="4560" y2="3696" stroke="red" stroke-width="2" />
  <text x="4800" y="3696" fill="black">mass-n</text>
  <line x1="4608" y1="3828" x2="4656" y2="3828" stroke="green" stroke-width="2" />
  <line x1="4608" y1="3744" x2="4752" y2="3744" stroke="green" stroke-width="2" />
  <line x1="4608" y1="3828" x2="4608" y2="3744" stroke="red" stroke-width="2" />
  <text x="4800" y="3744" fill="black">lead-n</text>
  <line x1="4656" y1="3864" x2="4704" y2="3864" stroke="green" stroke-width="2" />
  <line x1="4656" y1="3792" x2="4752" y2="3792" stroke="green" stroke-width="2" />
  <line x1="4656" y1="3864" x2="4656" y2="3792" stroke="red" stroke-width="2" />
  <text x="4800" y="3792" fill="black">defense-n</text>
  <line x1="4704" y1="3888" x2="4752" y2="3888" stroke="green" stroke-width="2" />
  <line x1="4704" y1="3840" x2="4752" y2="3840" stroke="green" stroke-width="2" />
  <line x1="4704" y1="3888" x2="4704" y2="3840" stroke="red" stroke-width="2" />
  <text x="4800" y="3840" fill="black">innovation-n</text>
  <text x="4800" y="3888" fill="black">intervention-n</text>
  <line x1="4176" y1="4162" x2="4224" y2="4162" stroke="green" stroke-width="2" />
  <line x1="4176" y1="3936" x2="4752" y2="3936" stroke="green" stroke-width="2" />
  <line x1="4176" y1="4162" x2="4176" y2="3936" stroke="red" stroke-width="2" />
  <text x="4800" y="3936" fill="black">deny-v</text>
  <line x1="4224" y1="4316" x2="4320" y2="4316" stroke="green" stroke-width="2" />
  <line x1="4224" y1="4008" x2="4704" y2="4008" stroke="green" stroke-width="2" />
  <line x1="4224" y1="4316" x2="4224" y2="4008" stroke="red" stroke-width="2" />
  <line x1="4704" y1="4032" x2="4752" y2="4032" stroke="green" stroke-width="2" />
  <line x1="4704" y1="3984" x2="4752" y2="3984" stroke="green" stroke-width="2" />
  <line x1="4704" y1="4032" x2="4704" y2="3984" stroke="red" stroke-width="2" />
  <text x="4800" y="3984" fill="black">rely-v</text>
  <text x="4800" y="4032" fill="black">comprehensive-j</text>
  <line x1="4320" y1="4488" x2="4704" y2="4488" stroke="green" stroke-width="2" />
  <line x1="4320" y1="4145" x2="4416" y2="4145" stroke="green" stroke-width="2" />
  <line x1="4320" y1="4488" x2="4320" y2="4145" stroke="red" stroke-width="2" />
  <line x1="4416" y1="4210" x2="4464" y2="4210" stroke="green" stroke-width="2" />
  <line x1="4416" y1="4080" x2="4752" y2="4080" stroke="green" stroke-width="2" />
  <line x1="4416" y1="4210" x2="4416" y2="4080" stroke="red" stroke-width="2" />
  <text x="4800" y="4080" fill="black">European-n</text>
  <line x1="4464" y1="4269" x2="4560" y2="4269" stroke="green" stroke-width="2" />
  <line x1="4464" y1="4152" x2="4704" y2="4152" stroke="green" stroke-width="2" />
  <line x1="4464" y1="4269" x2="4464" y2="4152" stroke="red" stroke-width="2" />
  <line x1="4704" y1="4176" x2="4752" y2="4176" stroke="green" stroke-width="2" />
  <line x1="4704" y1="4128" x2="4752" y2="4128" stroke="green" stroke-width="2" />
  <line x1="4704" y1="4176" x2="4704" y2="4128" stroke="red" stroke-width="2" />
  <text x="4800" y="4128" fill="black">Central-n</text>
  <text x="4800" y="4176" fill="black">ancient-j</text>
  <line x1="4560" y1="4314" x2="4608" y2="4314" stroke="green" stroke-width="2" />
  <line x1="4560" y1="4224" x2="4752" y2="4224" stroke="green" stroke-width="2" />
  <line x1="4560" y1="4314" x2="4560" y2="4224" stroke="red" stroke-width="2" />
  <text x="4800" y="4224" fill="black">Air-n</text>
  <line x1="4608" y1="4356" x2="4656" y2="4356" stroke="green" stroke-width="2" />
  <line x1="4608" y1="4272" x2="4752" y2="4272" stroke="green" stroke-width="2" />
  <line x1="4608" y1="4356" x2="4608" y2="4272" stroke="red" stroke-width="2" />
  <text x="4800" y="4272" fill="black">Energy-n</text>
  <line x1="4656" y1="4392" x2="4704" y2="4392" stroke="green" stroke-width="2" />
  <line x1="4656" y1="4320" x2="4752" y2="4320" stroke="green" stroke-width="2" />
  <line x1="4656" y1="4392" x2="4656" y2="4320" stroke="red" stroke-width="2" />
  <text x="4800" y="4320" fill="black">Law-n</text>
  <line x1="4704" y1="4416" x2="4752" y2="4416" stroke="green" stroke-width="2" />
  <line x1="4704" y1="4368" x2="4752" y2="4368" stroke="green" stroke-width="2" />
  <line x1="4704" y1="4416" x2="4704" y2="4368" stroke="red" stroke-width="2" />
  <text x="4800" y="4368" fill="black">Project-n</text>
  <text x="4800" y="4416" fill="black">Community-n</text>
  <line x1="4704" y1="4512" x2="4752" y2="4512" stroke="green" stroke-width="2" />
  <line x1="4704" y1="4464" x2="4752" y2="4464" stroke="green" stroke-width="2" />
  <line x1="4704" y1="4512" x2="4704" y2="4464" stroke="red" stroke-width="2" />
  <text x="4800" y="4464" fill="black">official-j</text>
  <text x="4800" y="4512" fill="black">maximum-j</text>
  <line x1="4704" y1="4608" x2="4752" y2="4608" stroke="green" stroke-width="2" />
  <line x1="4704" y1="4560" x2="4752" y2="4560" stroke="green" stroke-width="2" />
  <line x1="4704" y1="4608" x2="4704" y2="4560" stroke="red" stroke-width="2" />
  <text x="4800" y="4560" fill="black">rating-n</text>
  <text x="4800" y="4608" fill="black">origin-n</text>
  <line x1="4656" y1="4728" x2="4704" y2="4728" stroke="green" stroke-width="2" />
  <line x1="4656" y1="4656" x2="4752" y2="4656" stroke="green" stroke-width="2" />
  <line x1="4656" y1="4728" x2="4656" y2="4656" stroke="red" stroke-width="2" />
  <text x="4800" y="4656" fill="black">extent-n</text>
  <line x1="4704" y1="4752" x2="4752" y2="4752" stroke="green" stroke-width="2" />
  <line x1="4704" y1="4704" x2="4752" y2="4704" stroke="green" stroke-width="2" />
  <line x1="4704" y1="4752" x2="4704" y2="4704" stroke="red" stroke-width="2" />
  <text x="4800" y="4704" fill="black">possibly-a</text>
  <text x="4800" y="4752" fill="black">prior-a</text>
</svg>
